<svg width="100" height="100" viewBox="0 0 100 100" fill="none" xmlns="http://www.w3.org/2000/svg">
<path d="M73.9688 26.0425L48.1056 35.7944L49.9306 46.9234L81 35.1898L73.9688 26.0425Z" stroke="#4D494A" stroke-width="3" stroke-linecap="round" stroke-linejoin="round"/>
<path d="M51.6884 17.4551L25.8252 27.2182L19.0963 35.1898L50.1657 23.4674L51.6884 17.4551Z" stroke="#4D494A" stroke-width="3" stroke-linecap="round" stroke-linejoin="round"/>
<path d="M38.7568 2.14996L30.5052 4.0869L61.5858 15.8093L69.8262 13.8836L38.7568 2.14996Z" stroke="#4D494A" stroke-width="3" stroke-linecap="round" stroke-linejoin="round"/>
<path d="M18.85 85.3376V35.2123L49.8858 46.9235V97.06L18.85 85.3376Z" fill="white" stroke="#4D494A" stroke-width="3" stroke-linecap="round" stroke-linejoin="round"/>
<path d="M80.9216 85.3376V35.2123L49.8857 46.9235V97.06L80.9216 85.3376Z" fill="white" stroke="#4D494A" stroke-width="3" stroke-linecap="round" stroke-linejoin="round"/>
<path d="M81 35.1899L69.8262 13.8836L38.7568 2.14996" stroke="#4D494A" stroke-width="3" stroke-linecap="round" stroke-linejoin="round"/>
<path d="M65.3589 29.2895L49.9306 23.4675L18.85 35.1899L49.9306 46.9235L81 35.1899" stroke="#4D494A" stroke-width="3" stroke-linecap="round" stroke-linejoin="round"/>
<path d="M49.9306 23.4675L65.4037 29.3007" stroke="#4D494A" stroke-width="3" stroke-linecap="round" stroke-linejoin="round"/>
<path d="M42.0485 8.4422L47.5906 19.0002" stroke="#4D494A" stroke-width="3" stroke-linecap="round" stroke-linejoin="round"/>
</svg>
