<svg width="100" height="100" viewBox="0 0 100 100" fill="none" xmlns="http://www.w3.org/2000/svg">
<path d="M97 71.429L42.3158 92.5191V85.2764L97 64.1863V71.429Z" fill="white" stroke="#4D494A" stroke-width="3" stroke-linecap="round" stroke-linejoin="round"/>
<path d="M3.27002 71.1044V28.3309L57.9542 7.24084V50.0143" fill="white"/>
<path d="M3.27002 71.1044V28.3309L57.9542 7.24084V50.0143" stroke="#4D494A" stroke-width="3" stroke-linecap="round" stroke-linejoin="round"/>
<path d="M41.5 85L3 71.0901L57.6842 50L96.1842 63.9099" fill="white"/>
<path d="M42.3158 85.2764V79.8024L83.2422 64.0184L97 64.1863" stroke="#4D494A" stroke-width="3" stroke-linecap="round" stroke-linejoin="round"/>
<path d="M3.27002 78.3471L42.3158 92.5191V85.2764L3.27002 71.1044V78.3471Z" fill="white" stroke="#4D494A" stroke-width="3" stroke-linecap="round" stroke-linejoin="round"/>
<path d="M57.9542 54.8279V62.0706L73.5591 67.7461" stroke="#4D494A" stroke-width="3" stroke-linecap="round" stroke-linejoin="round"/>
<path d="M57.9542 54.8279L16.1771 70.9477L3.27002 71.1044L57.9542 50.0143V54.8279Z" stroke="#4D494A" stroke-width="3" stroke-linecap="round" stroke-linejoin="round"/>
<path d="M97 64.1863L57.9542 50.0143V54.8391L83.3093 64.0408" stroke="#4D494A" stroke-width="3" stroke-linecap="round" stroke-linejoin="round"/>
<path d="M16.1771 70.9476L42.3158 79.8023" stroke="#4D494A" stroke-width="3" stroke-linecap="round" stroke-linejoin="round"/>
<path d="M57.9542 62.0706L27.4945 74.6418" stroke="#4D494A" stroke-width="3" stroke-linecap="round" stroke-linejoin="round"/>
</svg>
