<svg width="101" height="100" viewBox="0 0 101 100" fill="none" xmlns="http://www.w3.org/2000/svg">
<path d="M28 65L45 58.5L73.5 69.5L56.5 76L28 65Z" fill="white"/>
<path d="M56.4225 96.0292L2.44 74.8532V55.3563L56.4225 76.5211V96.0292Z" fill="white" stroke="#4D494A" stroke-width="3" stroke-linecap="round" stroke-linejoin="round"/>
<path d="M82.3995 31.6333L28.4058 10.4573L45.0062 3.92078L99 25.0855L82.3995 31.6333Z" stroke="#4D494A" stroke-width="3" stroke-linecap="round" stroke-linejoin="round"/>
<path d="M99 79.5977L56.4225 96.0291V76.5211L99 60.1009V79.5977Z" fill="white" stroke="#4D494A" stroke-width="3" stroke-linecap="round" stroke-linejoin="round"/>
<path d="M73.9246 69.7704L45.0062 58.433V38.9362L99 60.1009L73.9246 69.7704Z" fill="white" stroke="#4D494A" stroke-width="3" stroke-linecap="round" stroke-linejoin="round"/>
<path d="M45.0062 58.433L27.5154 65.1836L2.44 55.3563L45.0062 38.9362V58.433Z" fill="white" stroke="#4D494A" stroke-width="3" stroke-linecap="round" stroke-linejoin="round"/>
<path d="M45.0062 3.92078L99 25.0855V60.1009L45.0062 38.9362V16.9713" stroke="#4D494A" stroke-width="3" stroke-linecap="round" stroke-linejoin="round"/>
</svg>
