<svg width="100" height="100" viewBox="0 0 100 100" fill="none" xmlns="http://www.w3.org/2000/svg">
<path d="M2.24445 56.5244L21.09 38.634L20.0713 37.5158L47.0662 12.3574L97.4907 37.5158L98 47.5792L70.4958 72.1785H69.4771L52.1596 87.8327L2.24445 63.7924V56.5244Z" fill="white"/>
<path d="M52.2452 88L2 63.4842V56.6165L52.2452 81.1323V88Z" stroke="#4D494A" stroke-width="3" stroke-linecap="round" stroke-linejoin="round"/>
<path d="M98 47.4596L70.2491 73.2018V62.6199L98 36.8778V47.4596Z" stroke="#4D494A" stroke-width="3" stroke-linecap="round" stroke-linejoin="round"/>
<path d="M2 56.6166L21.2702 38.7349" stroke="#4D494A" stroke-width="3" stroke-linecap="round" stroke-linejoin="round"/>
<path d="M26.1329 41.0826L6.85205 58.9759" stroke="#4D494A" stroke-width="3" stroke-linecap="round" stroke-linejoin="round"/>
<path d="M70.2491 71.298L52.2451 88V81.1323L70.2491 64.4303" stroke="#4D494A" stroke-width="3" stroke-linecap="round" stroke-linejoin="round"/>
<path d="M47.0312 12.0233L19.2804 37.7655L38.3697 47.0743C39.4019 46.4319 40.7107 46.0348 42.1578 46.0348C45.4351 46.0348 48.0953 48.0553 48.0953 50.5315C48.0953 50.9402 48.0208 51.3257 47.8825 51.6994L70.2491 62.6083L98 36.8662L47.0419 12L47.0312 12.0233Z" stroke="#4D494A" stroke-width="3" stroke-linecap="round" stroke-linejoin="round"/>
<path d="M22.5896 66.3925C23.6749 65.4114 25.303 64.7924 27.1225 64.7924C30.3999 64.7924 33.06 66.8129 33.06 69.289C33.06 70.0599 32.8046 70.7841 32.3577 71.4148" stroke="#4D494A" stroke-width="3" stroke-linecap="round" stroke-linejoin="round"/>
</svg>
