<svg width="16" height="17" viewBox="0 0 16 17" fill="none" xmlns="http://www.w3.org/2000/svg" id="inst"> <path d="M8 5.5C9.65685 5.5 11 6.84315 11 8.5C11 10.1569 9.65685 11.5 8 11.5C6.34315 11.5 5 10.1569 5 8.5C5 6.84315 6.34315 5.5 8 5.5Z" fill="url(#paint0_linear_4001_313)"></path> <path d="M8 5.5C9.65685 5.5 11 6.84315 11 8.5C11 10.1569 9.65685 11.5 8 11.5C6.34315 11.5 5 10.1569 5 8.5C5 6.84315 6.34315 5.5 8 5.5Z" fill="url(#paint1_radial_4001_313)"></path> <path d="M8 5.5C9.65685 5.5 11 6.84315 11 8.5C11 10.1569 9.65685 11.5 8 11.5C6.34315 11.5 5 10.1569 5 8.5C5 6.84315 6.34315 5.5 8 5.5Z" fill="url(#paint2_radial_4001_313)"></path> <path d="M8 5.5C9.65685 5.5 11 6.84315 11 8.5C11 10.1569 9.65685 11.5 8 11.5C6.34315 11.5 5 10.1569 5 8.5C5 6.84315 6.34315 5.5 8 5.5Z" fill="url(#paint3_radial_4001_313)" fill-opacity="0.7"></path> <path d="M8 5.5C9.65685 5.5 11 6.84315 11 8.5C11 10.1569 9.65685 11.5 8 11.5C6.34315 11.5 5 10.1569 5 8.5C5 6.84315 6.34315 5.5 8 5.5Z" fill="url(#paint4_radial_4001_313)"></path> <path d="M8 5.5C9.65685 5.5 11 6.84315 11 8.5C11 10.1569 9.65685 11.5 8 11.5C6.34315 11.5 5 10.1569 5 8.5C5 6.84315 6.34315 5.5 8 5.5Z" fill="url(#paint5_radial_4001_313)"></path> <path fill-rule="evenodd" clip-rule="evenodd" d="M15 0.5C15.5523 0.5 16 0.947715 16 1.5V15.5C16 16.0523 15.5523 16.5 15 16.5H1C0.447715 16.5 0 16.0523 0 15.5V1.5C0 0.947715 0.447715 0.5 1 0.5H15ZM8 3.5C5.23858 3.5 3 5.73858 3 8.5C3 11.2614 5.23858 13.5 8 13.5C10.7614 13.5 13 11.2614 13 8.5C13 5.73858 10.7614 3.5 8 3.5ZM13 2.5C12.4477 2.5 12 2.94772 12 3.5C12 4.05228 12.4477 4.5 13 4.5C13.5523 4.5 14 4.05228 14 3.5C14 2.94772 13.5523 2.5 13 2.5Z" fill="url(#paint6_linear_4001_313)"></path> <path fill-rule="evenodd" clip-rule="evenodd" d="M15 0.5C15.5523 0.5 16 0.947715 16 1.5V15.5C16 16.0523 15.5523 16.5 15 16.5H1C0.447715 16.5 0 16.0523 0 15.5V1.5C0 0.947715 0.447715 0.5 1 0.5H15ZM8 3.5C5.23858 3.5 3 5.73858 3 8.5C3 11.2614 5.23858 13.5 8 13.5C10.7614 13.5 13 11.2614 13 8.5C13 5.73858 10.7614 3.5 8 3.5ZM13 2.5C12.4477 2.5 12 2.94772 12 3.5C12 4.05228 12.4477 4.5 13 4.5C13.5523 4.5 14 4.05228 14 3.5C14 2.94772 13.5523 2.5 13 2.5Z" fill="url(#paint7_radial_4001_313)"></path> <path fill-rule="evenodd" clip-rule="evenodd" d="M15 0.5C15.5523 0.5 16 0.947715 16 1.5V15.5C16 16.0523 15.5523 16.5 15 16.5H1C0.447715 16.5 0 16.0523 0 15.5V1.5C0 0.947715 0.447715 0.5 1 0.5H15ZM8 3.5C5.23858 3.5 3 5.73858 3 8.5C3 11.2614 5.23858 13.5 8 13.5C10.7614 13.5 13 11.2614 13 8.5C13 5.73858 10.7614 3.5 8 3.5ZM13 2.5C12.4477 2.5 12 2.94772 12 3.5C12 4.05228 12.4477 4.5 13 4.5C13.5523 4.5 14 4.05228 14 3.5C14 2.94772 13.5523 2.5 13 2.5Z" fill="url(#paint8_radial_4001_313)"></path> <path fill-rule="evenodd" clip-rule="evenodd" d="M15 0.5C15.5523 0.5 16 0.947715 16 1.5V15.5C16 16.0523 15.5523 16.5 15 16.5H1C0.447715 16.5 0 16.0523 0 15.5V1.5C0 0.947715 0.447715 0.5 1 0.5H15ZM8 3.5C5.23858 3.5 3 5.73858 3 8.5C3 11.2614 5.23858 13.5 8 13.5C10.7614 13.5 13 11.2614 13 8.5C13 5.73858 10.7614 3.5 8 3.5ZM13 2.5C12.4477 2.5 12 2.94772 12 3.5C12 4.05228 12.4477 4.5 13 4.5C13.5523 4.5 14 4.05228 14 3.5C14 2.94772 13.5523 2.5 13 2.5Z" fill="url(#paint9_radial_4001_313)" fill-opacity="0.7"></path> <path fill-rule="evenodd" clip-rule="evenodd" d="M15 0.5C15.5523 0.5 16 0.947715 16 1.5V15.5C16 16.0523 15.5523 16.5 15 16.5H1C0.447715 16.5 0 16.0523 0 15.5V1.5C0 0.947715 0.447715 0.5 1 0.5H15ZM8 3.5C5.23858 3.5 3 5.73858 3 8.5C3 11.2614 5.23858 13.5 8 13.5C10.7614 13.5 13 11.2614 13 8.5C13 5.73858 10.7614 3.5 8 3.5ZM13 2.5C12.4477 2.5 12 2.94772 12 3.5C12 4.05228 12.4477 4.5 13 4.5C13.5523 4.5 14 4.05228 14 3.5C14 2.94772 13.5523 2.5 13 2.5Z" fill="url(#paint10_radial_4001_313)"></path> <path fill-rule="evenodd" clip-rule="evenodd" d="M15 0.5C15.5523 0.5 16 0.947715 16 1.5V15.5C16 16.0523 15.5523 16.5 15 16.5H1C0.447715 16.5 0 16.0523 0 15.5V1.5C0 0.947715 0.447715 0.5 1 0.5H15ZM8 3.5C5.23858 3.5 3 5.73858 3 8.5C3 11.2614 5.23858 13.5 8 13.5C10.7614 13.5 13 11.2614 13 8.5C13 5.73858 10.7614 3.5 8 3.5ZM13 2.5C12.4477 2.5 12 2.94772 12 3.5C12 4.05228 12.4477 4.5 13 4.5C13.5523 4.5 14 4.05228 14 3.5C14 2.94772 13.5523 2.5 13 2.5Z" fill="url(#paint11_radial_4001_313)"></path> <defs> <linearGradient id="paint0_linear_4001_313" x1="8.01656" y1="4.80642" x2="8" y2="16.5" gradientUnits="userSpaceOnUse"> <stop stop-color="#FE02B7"></stop> <stop offset="0.256159" stop-color="#FC2278"></stop> <stop offset="0.465895" stop-color="#FF2160"></stop> <stop offset="1" stop-color="#FF5234"></stop> </linearGradient> <radialGradient id="paint1_radial_4001_313" cx="0" cy="0" r="1" gradientUnits="userSpaceOnUse" gradientTransform="translate(2.45135 0.996894) rotate(64.7828) scale(6.29792 15.7834)"> <stop stop-color="#7837F9"></stop> <stop offset="0.277606" stop-color="#7837F9" stop-opacity="0.9"></stop> <stop offset="1" stop-color="#7837F9" stop-opacity="0"></stop> </radialGradient> <radialGradient id="paint2_radial_4001_313" cx="0" cy="0" r="1" gradientUnits="userSpaceOnUse" gradientTransform="translate(3.87578 16.1687) rotate(79.1145) scale(7.01652 11.1549)"> <stop stop-color="#FFD702"></stop> <stop offset="1" stop-color="#FFD702" stop-opacity="0"></stop> </radialGradient> <radialGradient id="paint3_radial_4001_313" cx="0" cy="0" r="1" gradientUnits="userSpaceOnUse" gradientTransform="translate(16.3313 14.8934) rotate(-159.55) scale(3.12886 4.52441)"> <stop stop-color="#D300C5"></stop> <stop offset="1" stop-color="#D300C5" stop-opacity="0"></stop> </radialGradient> <radialGradient id="paint4_radial_4001_313" cx="0" cy="0" r="1" gradientUnits="userSpaceOnUse" gradientTransform="translate(15.0725 1.65942) rotate(165.426) scale(10.2683 5.72831)"> <stop stop-color="#D300C5"></stop> <stop offset="1" stop-color="#D300C5" stop-opacity="0"></stop> </radialGradient> <radialGradient id="paint5_radial_4001_313" cx="0" cy="0" r="1" gradientUnits="userSpaceOnUse" gradientTransform="translate(-2.53733e-07 7.09213) rotate(-17.1428) scale(6.96795 3.62819)"> <stop stop-color="#D300C5"></stop> <stop offset="1" stop-color="#D300C5" stop-opacity="0"></stop> </radialGradient> <linearGradient id="paint6_linear_4001_313" x1="8.01656" y1="4.80642" x2="8" y2="16.5" gradientUnits="userSpaceOnUse"> <stop stop-color="#FE02B7"></stop> <stop offset="0.256159" stop-color="#FC2278"></stop> <stop offset="0.465895" stop-color="#FF2160"></stop> <stop offset="1" stop-color="#FF5234"></stop> </linearGradient> <radialGradient id="paint7_radial_4001_313" cx="0" cy="0" r="1" gradientUnits="userSpaceOnUse" gradientTransform="translate(2.45135 0.996894) rotate(64.7828) scale(6.29792 15.7834)"> <stop stop-color="#7837F9"></stop> <stop offset="0.277606" stop-color="#7837F9" stop-opacity="0.9"></stop> <stop offset="1" stop-color="#7837F9" stop-opacity="0"></stop> </radialGradient> <radialGradient id="paint8_radial_4001_313" cx="0" cy="0" r="1" gradientUnits="userSpaceOnUse" gradientTransform="translate(3.87578 16.1687) rotate(79.1145) scale(7.01652 11.1549)"> <stop stop-color="#FFD702"></stop> <stop offset="1" stop-color="#FFD702" stop-opacity="0"></stop> </radialGradient> <radialGradient id="paint9_radial_4001_313" cx="0" cy="0" r="1" gradientUnits="userSpaceOnUse" gradientTransform="translate(16.3313 14.8934) rotate(-159.55) scale(3.12886 4.52441)"> <stop stop-color="#D300C5"></stop> <stop offset="1" stop-color="#D300C5" stop-opacity="0"></stop> </radialGradient> <radialGradient id="paint10_radial_4001_313" cx="0" cy="0" r="1" gradientUnits="userSpaceOnUse" gradientTransform="translate(15.0725 1.65942) rotate(165.426) scale(10.2683 5.72831)"> <stop stop-color="#D300C5"></stop> <stop offset="1" stop-color="#D300C5" stop-opacity="0"></stop> </radialGradient> <radialGradient id="paint11_radial_4001_313" cx="0" cy="0" r="1" gradientUnits="userSpaceOnUse" gradientTransform="translate(-2.53733e-07 7.09213) rotate(-17.1428) scale(6.96795 3.62819)"> <stop stop-color="#D300C5"></stop> <stop offset="1" stop-color="#D300C5" stop-opacity="0"></stop> </radialGradient> </defs> </svg>