<svg width="75" height="80" viewBox="0 0 75 80" fill="none" xmlns="http://www.w3.org/2000/svg">
<g clip-path="url(#clip0_46_2)">
<path fill-rule="evenodd" clip-rule="evenodd" d="M48.5494 63.0983C50.9318 63.0983 53.2639 63.9189 54.9095 65.4984C56.6257 67.1187 57.4442 69.3974 57.4442 71.5645C57.4442 73.7316 56.6257 75.9493 54.9095 77.5999C53.2639 79.1796 50.942 80 48.5494 80C46.1568 80 43.8347 79.1796 42.1993 77.5999C40.4832 75.9493 39.6655 73.7011 39.6655 71.5645C39.6656 69.4278 40.4831 67.1288 42.1993 65.4984C43.8448 63.9187 46.167 63.0983 48.5494 63.0983ZM48.5494 67.1895C47.439 67.1895 46.1573 67.6053 45.2891 68.4761V68.4553C44.4209 69.3059 44.0064 70.4914 44.0064 71.6357C44.0065 73.0634 44.6834 74.0557 45.2891 74.643C46.0664 75.3923 47.1463 75.9295 48.5494 75.9296C49.9526 75.9296 51.043 75.4229 51.7901 74.6737C52.5372 73.9243 53.0924 72.8098 53.0924 71.5744C53.0924 70.339 52.5371 69.195 51.7901 68.4761C50.8916 67.6255 49.6599 67.1895 48.5494 67.1895Z" fill="#231F20"/>
<path fill-rule="evenodd" clip-rule="evenodd" d="M31.0843 63.4632C32.2453 63.4632 33.6183 63.6356 34.6178 64.7191C35.173 65.3267 35.6066 66.3195 35.6066 67.7472C35.6066 68.4458 35.4862 69.0536 35.1531 69.732C34.8099 70.3596 34.4562 70.7237 33.8507 70.9869C34.6985 71.0882 35.5465 71.4731 36.0512 71.9591C36.7075 72.5869 37.1416 73.6309 37.1416 74.9169C37.1415 76.4458 36.5561 77.4888 35.9605 78.0963C35.0924 78.9975 33.5679 79.6251 31.5792 79.6252H24.8653L24.8456 79.6351V63.4632H31.0843ZM29.0248 76.3647H29.9633C31.1243 76.3647 32.0941 76.2428 32.5484 75.7061C32.74 75.4834 32.8913 75.1292 32.8914 74.6638C32.8914 74.1574 32.7197 73.7419 32.4774 73.4988C31.9727 72.9925 30.9331 72.9618 29.8933 72.9618H29.0248V76.3647ZM29.0248 69.8428H29.8017C30.2357 69.8428 30.9627 69.7921 31.3968 69.3364C31.6593 69.0731 31.7813 68.6379 31.7813 68.2733C31.7813 67.8582 31.6391 67.453 31.3968 67.1796C31.1343 66.9164 30.6191 66.694 29.8017 66.694H29.0248V69.8428Z" fill="#231F20"/>
<path d="M66.5095 67.6553L69.0028 63.4632H74.1522L68.9023 71.0077L74.9902 79.6351H69.9118L66.4789 74.3701L62.8548 79.6351H57.807L64.1167 71.0077L58.9477 63.4632H64.1167L66.5095 67.6553Z" fill="#231F20"/>
<path fill-rule="evenodd" clip-rule="evenodd" d="M40.1398 54.734H35.6677L34.6779 52.0204H28.8325L27.7431 54.734H23.3204L29.5098 38.5621H34.0726L40.1398 54.734ZM29.9939 48.8202H33.5678L31.7606 43.5848L29.9939 48.8202Z" fill="#231F20"/>
<path fill-rule="evenodd" clip-rule="evenodd" d="M49.1351 38.5621C50.3465 38.5621 51.8916 38.7547 53.0727 39.9901C53.9912 40.9319 54.4451 42.3394 54.4451 43.6254C54.4451 45.0026 53.961 46.2179 53.1634 46.9976C52.5375 47.6052 51.6893 47.9694 50.9422 48.1112L55.99 54.734H50.7904L46.7827 48.5265V54.734H42.6035V38.5621H49.1351ZM46.7827 45.8129H47.5902C48.2161 45.8129 49.1153 45.6403 49.6201 45.1543C49.9329 44.8403 50.1446 44.3036 50.1446 43.7975C50.1446 43.2912 49.9529 42.7748 49.5896 42.4407C49.2059 42.0559 48.499 41.8127 47.5803 41.8127H46.7827V45.8129Z" fill="#231F20"/>
<path d="M67.317 42.1262H63.8239V54.734H59.6447V42.1262H56.2424V38.5621H67.317V42.1262Z" fill="#231F20"/>
<path d="M34.0824 17.2251H29.0346V19.9189H33.6279V23.484H29.0346V29.8329H24.8554V13.661H34.0824V17.2251Z" fill="#231F20"/>
<path d="M41.3514 29.8329H37.1722V13.661H41.3514V29.8329Z" fill="#231F20"/>
<path d="M57.2322 23.5542V13.661H61.4114V29.8329H57.2322L49.5186 19.9397V29.8329H45.3394V13.661H49.5186L57.2322 23.5542Z" fill="#231F20"/>
<path d="M74.5554 17.2251H69.5786V19.9189H74.2931V23.484H69.5786V26.2688H74.5554V29.8329H65.3994V13.661H74.5554V17.2251Z" fill="#231F20"/>
<path d="M0 65.924L15.3957 79.6354V13.7114L0 0V65.924Z" fill="#F15A2A"/>
</g>
<defs>
<clipPath id="clip0_46_2">
<rect width="75" height="80" fill="white"/>
</clipPath>
</defs>
</svg>
