<svg width="100" height="72" viewBox="0 0 100 72" fill="none" xmlns="http://www.w3.org/2000/svg">
<g clip-path="url(#clip0_2794_2363)">
<path d="M72 37.15L0 0V34.77L72 71.93L139.52 72L72 37.15Z" fill="#F3F0F0"/>
<path d="M0 34.77L8 38.9V4.13L0 0V34.77Z" fill="#F15A2A"/>
<path d="M31.9427 45.5374H24.4251V49.1159H31.9427V45.5374ZM31.9427 31.2238H20.2431V34.8022H31.9427V31.2238ZM31.9427 56.2727V52.6943H27.4123V56.2727H31.9427ZM31.9427 38.3806H22.6328V41.959H31.9427V38.3806ZM73.5138 23.9776V24.067H73.454C71.0245 28.3114 66.4542 31.1841 61.2167 31.1841C55.9793 31.1841 51.4089 28.3114 48.9794 24.067H39.7193L61.2167 40.5376L82.7141 24.067H77.636V7.00994H71.0145C73.6631 9.56452 75.316 13.1429 75.316 17.109C75.316 19.6039 74.6588 21.9398 73.5138 23.9776ZM67.7486 40.5476L77.3273 46.8793C78.2434 47.4857 78.4923 48.7183 77.8849 49.6327C77.2776 50.5472 76.0429 50.7957 75.1268 50.1894L64.4129 43.1021L61.2366 45.5374L58.0603 43.1021L47.3464 50.1894C46.4304 50.7957 45.1957 50.5472 44.5883 49.6327C43.9809 48.7183 44.2298 47.4857 45.1459 46.8793L54.7247 40.5476L36.4832 26.562V55.9546H73.5337V60.4674H18.4508V27.6454H31.9427V24.067H18.4508V19.5542H47.3564C47.217 18.759 47.1274 17.944 47.1274 17.109C47.1274 16.4231 47.1971 15.7572 47.2867 15.1011H31.3453V11.5227H48.2924C49.0391 9.81302 50.1045 8.2922 51.4288 7.00994H14V65H77.646V55.9645H86V26.5719L67.7585 40.5575L67.7486 40.5476ZM24.7836 11.5227H28.3681V15.1011H24.7836V11.5227ZM18.4508 11.5227H22.0354V15.1011H18.4508V11.5227ZM61.2267 27.1981C66.8126 27.1981 71.3431 22.6754 71.3431 17.0991C71.3431 16.0156 71.1738 14.9818 70.8552 14.0077L61.9037 21.8007C61.147 22.4567 60.0119 22.4567 59.2651 21.7808L54.645 17.6557C53.8285 16.9201 53.7588 15.6677 54.4857 14.8526C55.2126 14.0375 56.4771 13.968 57.2936 14.6936L60.5994 17.6458L68.8439 10.4691C66.9918 8.3419 64.2636 7 61.2267 7C55.6407 7 51.1102 11.5227 51.1102 17.0991C51.1102 22.6754 55.6407 27.1981 61.2267 27.1981Z" fill="#767373"/>
</g>
<defs>
<clipPath id="clip0_2794_2363">
<rect width="100" height="72" fill="white"/>
</clipPath>
</defs>
</svg>
