<svg width="0" height="0" class="hidden">
  <symbol fill="none" xmlns="http://www.w3.org/2000/svg" viewBox="0 0 100 100" id="Icon-1-Active">
    <path d="M20.1001 83.01V21.73L65.9201 36.05V97.34L20.1001 83.01Z" fill="white" stroke="#4D494A" stroke-width="3" stroke-linecap="round" stroke-linejoin="round"></path>
    <path d="M77.6602 93.9099V32.6299L65.9202 36.3499L66.7002 97.3399L77.6602 93.9099Z" fill="white" stroke="#4D494A" stroke-width="3" stroke-linecap="round" stroke-linejoin="round"></path>
    <path d="M77.6601 32.64L31.8801 17.99L20.1101 21.67L66.1801 35.93L74.1001 33.46" fill="white"></path>
    <path d="M77.6601 32.64L31.8801 17.99L20.1101 21.67L66.1801 35.93L74.1001 33.46" stroke="#4D494A" stroke-width="3" stroke-linecap="round" stroke-linejoin="round"></path>
    <path d="M31.75 17.04L34.12 8.53003" stroke="#4D494A" stroke-width="3" stroke-linecap="round" stroke-linejoin="round"></path>
    <path d="M77.4602 32.5998L79.9002 24.0598" stroke="#4D494A" stroke-width="3" stroke-linecap="round" stroke-linejoin="round"></path>
    <path d="M79.9001 24.0599L34.0801 9.72991L31.3901 2.65991L77.0701 16.6399L79.9001 24.0599Z" fill="white" stroke="#4D494A" stroke-width="3" stroke-linecap="round" stroke-linejoin="round"></path>
    <path d="M20.1001 21.7298L21.3001 14.4698L25.8601 12.8398L31.8801 17.9898L20.1001 21.7298Z" fill="white" stroke="#4D494A" stroke-width="3" stroke-linecap="round" stroke-linejoin="round"></path>
    <path d="M65.9202 36.05L65.2002 28.45L70.6502 26.74L77.6602 32.64L65.9202 36.05Z" fill="white" stroke="#4D494A" stroke-width="3" stroke-linecap="round" stroke-linejoin="round"></path>
  </symbol>
  <symbol fill="none" xmlns="http://www.w3.org/2000/svg" viewBox="0 0 100 100" id="Icon-1-Hover">
    <path d="M20.1001 83.01V21.73L65.9201 36.05V97.34L20.1001 83.01Z" fill="white"></path>
    <path d="M20.1001 83.01V21.73L65.9201 36.05V97.34L20.1001 83.01Z" stroke="#767373" stroke-width="3" stroke-linecap="round" stroke-linejoin="round"></path>
    <path d="M20.1001 83.01V21.73L65.9201 36.05V97.34L20.1001 83.01Z" stroke="black" stroke-opacity="0.2" stroke-width="3" stroke-linecap="round" stroke-linejoin="round"></path>
    <path d="M20.1001 83.01V21.73L65.9201 36.05V97.34L20.1001 83.01Z" stroke="black" stroke-opacity="0.2" stroke-width="3" stroke-linecap="round" stroke-linejoin="round"></path>
    <path d="M77.6602 93.9099V32.6299L65.9202 36.3499L66.7002 97.3399L77.6602 93.9099Z" fill="white"></path>
    <path d="M77.6602 93.9099V32.6299L65.9202 36.3499L66.7002 97.3399L77.6602 93.9099Z" stroke="#767373" stroke-width="3" stroke-linecap="round" stroke-linejoin="round"></path>
    <path d="M77.6602 93.9099V32.6299L65.9202 36.3499L66.7002 97.3399L77.6602 93.9099Z" stroke="black" stroke-opacity="0.2" stroke-width="3" stroke-linecap="round" stroke-linejoin="round"></path>
    <path d="M77.6602 93.9099V32.6299L65.9202 36.3499L66.7002 97.3399L77.6602 93.9099Z" stroke="black" stroke-opacity="0.2" stroke-width="3" stroke-linecap="round" stroke-linejoin="round"></path>
    <path d="M77.6601 32.64L31.8801 17.99L20.1101 21.67L66.1801 35.93L74.1001 33.46" fill="white"></path>
    <path d="M77.6601 32.64L31.8801 17.99L20.1101 21.67L66.1801 35.93L74.1001 33.46" stroke="#767373" stroke-width="3" stroke-linecap="round" stroke-linejoin="round"></path>
    <path d="M77.6601 32.64L31.8801 17.99L20.1101 21.67L66.1801 35.93L74.1001 33.46" stroke="black" stroke-opacity="0.2" stroke-width="3" stroke-linecap="round" stroke-linejoin="round"></path>
    <path d="M77.6601 32.64L31.8801 17.99L20.1101 21.67L66.1801 35.93L74.1001 33.46" stroke="black" stroke-opacity="0.2" stroke-width="3" stroke-linecap="round" stroke-linejoin="round"></path>
    <path d="M31.75 17.04L34.12 8.53003" stroke="#767373" stroke-width="3" stroke-linecap="round" stroke-linejoin="round"></path>
    <path d="M31.75 17.04L34.12 8.53003" stroke="black" stroke-opacity="0.2" stroke-width="3" stroke-linecap="round" stroke-linejoin="round"></path>
    <path d="M31.75 17.04L34.12 8.53003" stroke="black" stroke-opacity="0.2" stroke-width="3" stroke-linecap="round" stroke-linejoin="round"></path>
    <path d="M77.4602 32.5998L79.9002 24.0598" stroke="#767373" stroke-width="3" stroke-linecap="round" stroke-linejoin="round"></path>
    <path d="M77.4602 32.5998L79.9002 24.0598" stroke="black" stroke-opacity="0.2" stroke-width="3" stroke-linecap="round" stroke-linejoin="round"></path>
    <path d="M77.4602 32.5998L79.9002 24.0598" stroke="black" stroke-opacity="0.2" stroke-width="3" stroke-linecap="round" stroke-linejoin="round"></path>
    <path d="M79.9001 24.0599L34.0801 9.72991L31.3901 2.65991L77.0701 16.6399L79.9001 24.0599Z" fill="white"></path>
    <path d="M79.9001 24.0599L34.0801 9.72991L31.3901 2.65991L77.0701 16.6399L79.9001 24.0599Z" stroke="#767373" stroke-width="3" stroke-linecap="round" stroke-linejoin="round"></path>
    <path d="M79.9001 24.0599L34.0801 9.72991L31.3901 2.65991L77.0701 16.6399L79.9001 24.0599Z" stroke="black" stroke-opacity="0.2" stroke-width="3" stroke-linecap="round" stroke-linejoin="round"></path>
    <path d="M79.9001 24.0599L34.0801 9.72991L31.3901 2.65991L77.0701 16.6399L79.9001 24.0599Z" stroke="black" stroke-opacity="0.2" stroke-width="3" stroke-linecap="round" stroke-linejoin="round"></path>
    <path d="M20.1001 21.7298L21.3001 14.4698L25.8601 12.8398L31.8801 17.9898L20.1001 21.7298Z" fill="white"></path>
    <path d="M20.1001 21.7298L21.3001 14.4698L25.8601 12.8398L31.8801 17.9898L20.1001 21.7298Z" stroke="#767373" stroke-width="3" stroke-linecap="round" stroke-linejoin="round"></path>
    <path d="M20.1001 21.7298L21.3001 14.4698L25.8601 12.8398L31.8801 17.9898L20.1001 21.7298Z" stroke="black" stroke-opacity="0.2" stroke-width="3" stroke-linecap="round" stroke-linejoin="round"></path>
    <path d="M20.1001 21.7298L21.3001 14.4698L25.8601 12.8398L31.8801 17.9898L20.1001 21.7298Z" stroke="black" stroke-opacity="0.2" stroke-width="3" stroke-linecap="round" stroke-linejoin="round"></path>
    <path d="M65.9202 36.05L65.2002 28.45L70.6502 26.74L77.6602 32.64L65.9202 36.05Z" fill="white"></path>
    <path d="M65.9202 36.05L65.2002 28.45L70.6502 26.74L77.6602 32.64L65.9202 36.05Z" stroke="#767373" stroke-width="3" stroke-linecap="round" stroke-linejoin="round"></path>
    <path d="M65.9202 36.05L65.2002 28.45L70.6502 26.74L77.6602 32.64L65.9202 36.05Z" stroke="black" stroke-opacity="0.2" stroke-width="3" stroke-linecap="round" stroke-linejoin="round"></path>
    <path d="M65.9202 36.05L65.2002 28.45L70.6502 26.74L77.6602 32.64L65.9202 36.05Z" stroke="black" stroke-opacity="0.2" stroke-width="3" stroke-linecap="round" stroke-linejoin="round"></path>
  </symbol>
  <symbol fill="none" xmlns="http://www.w3.org/2000/svg" viewBox="0 0 100 100" id="Icon-1-Unselected">
    <path d="M20.1001 83.01V21.73L65.9201 36.05V97.34L20.1001 83.01Z" fill="white" stroke="#A09C9D" stroke-width="3" stroke-linecap="round" stroke-linejoin="round"></path>
    <path d="M77.6602 93.9099V32.6299L65.9202 36.3499L66.7002 97.3399L77.6602 93.9099Z" fill="white" stroke="#A09C9D" stroke-width="3" stroke-linecap="round" stroke-linejoin="round"></path>
    <path d="M77.6601 32.64L31.8801 17.99L20.1101 21.67L66.1801 35.93L74.1001 33.46" fill="white"></path>
    <path d="M77.6601 32.64L31.8801 17.99L20.1101 21.67L66.1801 35.93L74.1001 33.46" stroke="#A09C9D" stroke-width="3" stroke-linecap="round" stroke-linejoin="round"></path>
    <path d="M31.75 17.04L34.12 8.53003" stroke="#A09C9D" stroke-width="3" stroke-linecap="round" stroke-linejoin="round"></path>
    <path d="M77.4602 32.5998L79.9002 24.0598" stroke="#A09C9D" stroke-width="3" stroke-linecap="round" stroke-linejoin="round"></path>
    <path d="M79.9001 24.0599L34.0801 9.72991L31.3901 2.65991L77.0701 16.6399L79.9001 24.0599Z" fill="white" stroke="#A09C9D" stroke-width="3" stroke-linecap="round" stroke-linejoin="round"></path>
    <path d="M20.1001 21.7298L21.3001 14.4698L25.8601 12.8398L31.8801 17.9898L20.1001 21.7298Z" fill="white" stroke="#A09C9D" stroke-width="3" stroke-linecap="round" stroke-linejoin="round"></path>
    <path d="M65.9202 36.05L65.2002 28.45L70.6502 26.74L77.6602 32.64L65.9202 36.05Z" fill="white" stroke="#A09C9D" stroke-width="3" stroke-linecap="round" stroke-linejoin="round"></path>
  </symbol>
  <symbol fill="none" xmlns="http://www.w3.org/2000/svg" viewBox="0 0 100 100" id="Icon-2-Active">
    <path d="M41.37 5.34009L97.47 30.9601L58.62 51.6001L2.53003 21.8001L41.38 5.34009H41.37Z" fill="white" stroke="#4D494A" stroke-width="3" stroke-linecap="round" stroke-linejoin="round"></path>
    <path d="M97.4701 49.3002V30.9602L58.6201 51.6002V69.9402L97.4701 49.3002Z" fill="white" stroke="#4D494A" stroke-width="3" stroke-linecap="round" stroke-linejoin="round"></path>
    <path d="M2.53003 40.06V21.8L58.63 51.6001V69.94L2.53003 40.06Z" fill="white" stroke="#4D494A" stroke-width="3" stroke-linecap="round" stroke-linejoin="round"></path>
    <path d="M94.5801 58.33L94.6401 51.0701L58.6301 69.8101V77.4201L94.5901 58.33H94.5801Z" fill="white" stroke="#4D494A" stroke-width="3" stroke-linecap="round" stroke-linejoin="round"></path>
    <path d="M4.41992 48.6502L4.48992 41.2102L58.6199 69.8102V77.4202L4.41992 48.6502Z" fill="white" stroke="#4D494A" stroke-width="3" stroke-linecap="round" stroke-linejoin="round"></path>
    <path d="M26.6501 90.3501H12.2501C11.4935 90.3501 10.8801 90.9635 10.8801 91.7201V93.2901C10.8801 94.0467 11.4935 94.6601 12.2501 94.6601H26.6501C27.4068 94.6601 28.0201 94.0467 28.0201 93.2901V91.7201C28.0201 90.9635 27.4068 90.3501 26.6501 90.3501Z" fill="#4D494A"></path>
    <path d="M21.6901 73.2001L21.0201 68.4001C20.7701 66.5701 18.1301 66.5701 17.8701 68.4001L17.2001 73.2001C16.9601 74.9201 16.5801 76.6301 16.0701 78.2901L12.8701 88.5701C12.6001 89.4301 13.2501 90.3101 14.1501 90.3101H24.7301C25.6301 90.3101 26.2801 89.4401 26.0101 88.5701L22.8101 78.2901C22.2901 76.6301 21.9101 74.9301 21.6801 73.2001H21.6901Z" fill="#4D494A"></path>
    <path d="M26.6501 90.3501H12.2501C11.4935 90.3501 10.8801 90.9635 10.8801 91.7201V93.2901C10.8801 94.0467 11.4935 94.6601 12.2501 94.6601H26.6501C27.4068 94.6601 28.0201 94.0467 28.0201 93.2901V91.7201C28.0201 90.9635 27.4068 90.3501 26.6501 90.3501Z" fill="white"></path>
    <path d="M21.6901 73.2001L21.0201 68.4001C20.7701 66.5701 18.1301 66.5701 17.8701 68.4001L17.2001 73.2001C16.9601 74.9201 16.5801 76.6301 16.0701 78.2901L12.8701 88.5701C12.6001 89.4301 13.2501 90.3101 14.1501 90.3101H24.7301C25.6301 90.3101 26.2801 89.4401 26.0101 88.5701L22.8101 78.2901C22.2901 76.6301 21.9101 74.9301 21.6801 73.2001H21.6901Z" fill="white"></path>
    <path d="M26.6501 90.3501H12.2501C11.4935 90.3501 10.8801 90.9635 10.8801 91.7201V93.2901C10.8801 94.0467 11.4935 94.6601 12.2501 94.6601H26.6501C27.4068 94.6601 28.0201 94.0467 28.0201 93.2901V91.7201C28.0201 90.9635 27.4068 90.3501 26.6501 90.3501Z" stroke="#4D494A" stroke-width="3" stroke-linecap="round" stroke-linejoin="round"></path>
    <path d="M21.6901 73.2001L21.0201 68.4001C20.7701 66.5701 18.1301 66.5701 17.8701 68.4001L17.2001 73.2001C16.9601 74.9201 16.5801 76.6301 16.0701 78.2901L12.8701 88.5701C12.6001 89.4301 13.2501 90.3101 14.1501 90.3101H24.7301C25.6301 90.3101 26.2801 89.4401 26.0101 88.5701L22.8101 78.2901C22.2901 76.6301 21.9101 74.9301 21.6801 73.2001H21.6901Z" stroke="#4D494A" stroke-width="3" stroke-linecap="round" stroke-linejoin="round"></path>
    <path d="M72.6101 76.6301L83.2901 71.1301L93.9701 76.5001L83.2901 82.0001L72.6101 76.6301Z" fill="white" stroke="#4D494A" stroke-width="3" stroke-linecap="round" stroke-linejoin="round"></path>
    <path d="M83.29 82L93.97 76.5L94.03 88.74L83.36 94.66L83.29 82Z" fill="white" stroke="#4D494A" stroke-width="3" stroke-linecap="round" stroke-linejoin="round"></path>
    <path d="M83.3601 82L72.6801 76.5L72.6101 88.74L83.2901 94.66L83.3601 82Z" fill="white" stroke="#4D494A" stroke-width="3" stroke-linecap="round" stroke-linejoin="round"></path>
    <path d="M77.0295 83.907C77.4111 83.653 77.3631 82.9104 76.9225 82.2484C76.4818 81.5863 75.8152 81.2556 75.4336 81.5096C75.052 81.7636 75.0999 82.5062 75.5406 83.1682C75.9813 83.8302 76.6479 84.161 77.0295 83.907Z" fill="#4D494A"></path>
    <path d="M80.3634 89.4868C80.745 89.2328 80.6971 88.4902 80.2564 87.8282C79.8158 87.1662 79.1492 86.8354 78.7676 87.0894C78.386 87.3434 78.4339 88.086 78.8746 88.748C79.3153 89.4101 79.9819 89.7408 80.3634 89.4868Z" fill="#4D494A"></path>
    <path d="M91.5421 82.269C91.9828 81.607 92.0307 80.8643 91.6491 80.6103C91.2675 80.3563 90.6009 80.6871 90.1602 81.3491C89.7195 82.0112 89.6716 82.7538 90.0532 83.0078C90.4348 83.2618 91.1014 82.931 91.5421 82.269Z" fill="#4D494A"></path>
    <path d="M87.2435 89.4333C87.6842 88.7713 87.7321 88.0287 87.3505 87.7747C86.9689 87.5207 86.3023 87.8514 85.8616 88.5135C85.421 89.1755 85.3731 89.9181 85.7547 90.1721C86.1362 90.4261 86.8028 90.0953 87.2435 89.4333Z" fill="#4D494A"></path>
    <path d="M89.3568 86.0412C89.7975 85.3792 89.8454 84.6366 89.4638 84.3826C89.0822 84.1286 88.4156 84.4593 87.9749 85.1214C87.5342 85.7834 87.4863 86.526 87.8679 86.78C88.2495 87.034 88.9161 86.7032 89.3568 86.0412Z" fill="#4D494A"></path>
    <path d="M83.29 77.4201C84.2731 77.4201 85.07 77.0082 85.07 76.5001C85.07 75.992 84.2731 75.5801 83.29 75.5801C82.3069 75.5801 81.51 75.992 81.51 76.5001C81.51 77.0082 82.3069 77.4201 83.29 77.4201Z" fill="#4D494A"></path>
  </symbol>
  <symbol fill="none" xmlns="http://www.w3.org/2000/svg" viewBox="0 0 100 100" id="Icon-2-Hover">
    <path d="M41.37 5.34009L97.47 30.9601L58.62 51.6001L2.53003 21.8001L41.38 5.34009H41.37Z" fill="white"></path>
    <path d="M41.37 5.34009L97.47 30.9601L58.62 51.6001L2.53003 21.8001L41.38 5.34009H41.37Z" stroke="#767373" stroke-width="3" stroke-linecap="round" stroke-linejoin="round"></path>
    <path d="M41.37 5.34009L97.47 30.9601L58.62 51.6001L2.53003 21.8001L41.38 5.34009H41.37Z" stroke="black" stroke-opacity="0.2" stroke-width="3" stroke-linecap="round" stroke-linejoin="round"></path>
    <path d="M41.37 5.34009L97.47 30.9601L58.62 51.6001L2.53003 21.8001L41.38 5.34009H41.37Z" stroke="black" stroke-opacity="0.2" stroke-width="3" stroke-linecap="round" stroke-linejoin="round"></path>
    <path d="M97.4701 49.3002V30.9602L58.6201 51.6002V69.9402L97.4701 49.3002Z" fill="white"></path>
    <path d="M97.4701 49.3002V30.9602L58.6201 51.6002V69.9402L97.4701 49.3002Z" stroke="#767373" stroke-width="3" stroke-linecap="round" stroke-linejoin="round"></path>
    <path d="M97.4701 49.3002V30.9602L58.6201 51.6002V69.9402L97.4701 49.3002Z" stroke="black" stroke-opacity="0.2" stroke-width="3" stroke-linecap="round" stroke-linejoin="round"></path>
    <path d="M97.4701 49.3002V30.9602L58.6201 51.6002V69.9402L97.4701 49.3002Z" stroke="black" stroke-opacity="0.2" stroke-width="3" stroke-linecap="round" stroke-linejoin="round"></path>
    <path d="M2.53003 40.06V21.8L58.63 51.6001V69.94L2.53003 40.06Z" fill="white"></path>
    <path d="M2.53003 40.06V21.8L58.63 51.6001V69.94L2.53003 40.06Z" stroke="#767373" stroke-width="3" stroke-linecap="round" stroke-linejoin="round"></path>
    <path d="M2.53003 40.06V21.8L58.63 51.6001V69.94L2.53003 40.06Z" stroke="black" stroke-opacity="0.2" stroke-width="3" stroke-linecap="round" stroke-linejoin="round"></path>
    <path d="M2.53003 40.06V21.8L58.63 51.6001V69.94L2.53003 40.06Z" stroke="black" stroke-opacity="0.2" stroke-width="3" stroke-linecap="round" stroke-linejoin="round"></path>
    <path d="M94.5801 58.33L94.6401 51.0701L58.6301 69.8101V77.4201L94.5901 58.33H94.5801Z" fill="white"></path>
    <path d="M94.5801 58.33L94.6401 51.0701L58.6301 69.8101V77.4201L94.5901 58.33H94.5801Z" stroke="#767373" stroke-width="3" stroke-linecap="round" stroke-linejoin="round"></path>
    <path d="M94.5801 58.33L94.6401 51.0701L58.6301 69.8101V77.4201L94.5901 58.33H94.5801Z" stroke="black" stroke-opacity="0.2" stroke-width="3" stroke-linecap="round" stroke-linejoin="round"></path>
    <path d="M94.5801 58.33L94.6401 51.0701L58.6301 69.8101V77.4201L94.5901 58.33H94.5801Z" stroke="black" stroke-opacity="0.2" stroke-width="3" stroke-linecap="round" stroke-linejoin="round"></path>
    <path d="M4.41992 48.6502L4.48992 41.2102L58.6199 69.8102V77.4202L4.41992 48.6502Z" fill="white"></path>
    <path d="M4.41992 48.6502L4.48992 41.2102L58.6199 69.8102V77.4202L4.41992 48.6502Z" stroke="#767373" stroke-width="3" stroke-linecap="round" stroke-linejoin="round"></path>
    <path d="M4.41992 48.6502L4.48992 41.2102L58.6199 69.8102V77.4202L4.41992 48.6502Z" stroke="black" stroke-opacity="0.2" stroke-width="3" stroke-linecap="round" stroke-linejoin="round"></path>
    <path d="M4.41992 48.6502L4.48992 41.2102L58.6199 69.8102V77.4202L4.41992 48.6502Z" stroke="black" stroke-opacity="0.2" stroke-width="3" stroke-linecap="round" stroke-linejoin="round"></path>
    <path d="M26.6501 90.3501H12.2501C11.4935 90.3501 10.8801 90.9635 10.8801 91.7201V93.2901C10.8801 94.0467 11.4935 94.6601 12.2501 94.6601H26.6501C27.4068 94.6601 28.0201 94.0467 28.0201 93.2901V91.7201C28.0201 90.9635 27.4068 90.3501 26.6501 90.3501Z" fill="#767373"></path>
    <path d="M26.6501 90.3501H12.2501C11.4935 90.3501 10.8801 90.9635 10.8801 91.7201V93.2901C10.8801 94.0467 11.4935 94.6601 12.2501 94.6601H26.6501C27.4068 94.6601 28.0201 94.0467 28.0201 93.2901V91.7201C28.0201 90.9635 27.4068 90.3501 26.6501 90.3501Z" fill="black" fill-opacity="0.2"></path>
    <path d="M26.6501 90.3501H12.2501C11.4935 90.3501 10.8801 90.9635 10.8801 91.7201V93.2901C10.8801 94.0467 11.4935 94.6601 12.2501 94.6601H26.6501C27.4068 94.6601 28.0201 94.0467 28.0201 93.2901V91.7201C28.0201 90.9635 27.4068 90.3501 26.6501 90.3501Z" fill="black" fill-opacity="0.2"></path>
    <path d="M21.6901 73.2001L21.0201 68.4001C20.7701 66.5701 18.1301 66.5701 17.8701 68.4001L17.2001 73.2001C16.9601 74.9201 16.5801 76.6301 16.0701 78.2901L12.8701 88.5701C12.6001 89.4301 13.2501 90.3101 14.1501 90.3101H24.7301C25.6301 90.3101 26.2801 89.4401 26.0101 88.5701L22.8101 78.2901C22.2901 76.6301 21.9101 74.9301 21.6801 73.2001H21.6901Z" fill="#767373"></path>
    <path d="M21.6901 73.2001L21.0201 68.4001C20.7701 66.5701 18.1301 66.5701 17.8701 68.4001L17.2001 73.2001C16.9601 74.9201 16.5801 76.6301 16.0701 78.2901L12.8701 88.5701C12.6001 89.4301 13.2501 90.3101 14.1501 90.3101H24.7301C25.6301 90.3101 26.2801 89.4401 26.0101 88.5701L22.8101 78.2901C22.2901 76.6301 21.9101 74.9301 21.6801 73.2001H21.6901Z" fill="black" fill-opacity="0.2"></path>
    <path d="M21.6901 73.2001L21.0201 68.4001C20.7701 66.5701 18.1301 66.5701 17.8701 68.4001L17.2001 73.2001C16.9601 74.9201 16.5801 76.6301 16.0701 78.2901L12.8701 88.5701C12.6001 89.4301 13.2501 90.3101 14.1501 90.3101H24.7301C25.6301 90.3101 26.2801 89.4401 26.0101 88.5701L22.8101 78.2901C22.2901 76.6301 21.9101 74.9301 21.6801 73.2001H21.6901Z" fill="black" fill-opacity="0.2"></path>
    <path d="M26.6501 90.3501H12.2501C11.4935 90.3501 10.8801 90.9635 10.8801 91.7201V93.2901C10.8801 94.0467 11.4935 94.6601 12.2501 94.6601H26.6501C27.4068 94.6601 28.0201 94.0467 28.0201 93.2901V91.7201C28.0201 90.9635 27.4068 90.3501 26.6501 90.3501Z" fill="white"></path>
    <path d="M21.6901 73.2001L21.0201 68.4001C20.7701 66.5701 18.1301 66.5701 17.8701 68.4001L17.2001 73.2001C16.9601 74.9201 16.5801 76.6301 16.0701 78.2901L12.8701 88.5701C12.6001 89.4301 13.2501 90.3101 14.1501 90.3101H24.7301C25.6301 90.3101 26.2801 89.4401 26.0101 88.5701L22.8101 78.2901C22.2901 76.6301 21.9101 74.9301 21.6801 73.2001H21.6901Z" fill="white"></path>
    <path d="M26.6501 90.3501H12.2501C11.4935 90.3501 10.8801 90.9635 10.8801 91.7201V93.2901C10.8801 94.0467 11.4935 94.6601 12.2501 94.6601H26.6501C27.4068 94.6601 28.0201 94.0467 28.0201 93.2901V91.7201C28.0201 90.9635 27.4068 90.3501 26.6501 90.3501Z" stroke="#767373" stroke-width="3" stroke-linecap="round" stroke-linejoin="round"></path>
    <path d="M26.6501 90.3501H12.2501C11.4935 90.3501 10.8801 90.9635 10.8801 91.7201V93.2901C10.8801 94.0467 11.4935 94.6601 12.2501 94.6601H26.6501C27.4068 94.6601 28.0201 94.0467 28.0201 93.2901V91.7201C28.0201 90.9635 27.4068 90.3501 26.6501 90.3501Z" stroke="black" stroke-opacity="0.2" stroke-width="3" stroke-linecap="round" stroke-linejoin="round"></path>
    <path d="M26.6501 90.3501H12.2501C11.4935 90.3501 10.8801 90.9635 10.8801 91.7201V93.2901C10.8801 94.0467 11.4935 94.6601 12.2501 94.6601H26.6501C27.4068 94.6601 28.0201 94.0467 28.0201 93.2901V91.7201C28.0201 90.9635 27.4068 90.3501 26.6501 90.3501Z" stroke="black" stroke-opacity="0.2" stroke-width="3" stroke-linecap="round" stroke-linejoin="round"></path>
    <path d="M21.6901 73.2001L21.0201 68.4001C20.7701 66.5701 18.1301 66.5701 17.8701 68.4001L17.2001 73.2001C16.9601 74.9201 16.5801 76.6301 16.0701 78.2901L12.8701 88.5701C12.6001 89.4301 13.2501 90.3101 14.1501 90.3101H24.7301C25.6301 90.3101 26.2801 89.4401 26.0101 88.5701L22.8101 78.2901C22.2901 76.6301 21.9101 74.9301 21.6801 73.2001H21.6901Z" stroke="#767373" stroke-width="3" stroke-linecap="round" stroke-linejoin="round"></path>
    <path d="M21.6901 73.2001L21.0201 68.4001C20.7701 66.5701 18.1301 66.5701 17.8701 68.4001L17.2001 73.2001C16.9601 74.9201 16.5801 76.6301 16.0701 78.2901L12.8701 88.5701C12.6001 89.4301 13.2501 90.3101 14.1501 90.3101H24.7301C25.6301 90.3101 26.2801 89.4401 26.0101 88.5701L22.8101 78.2901C22.2901 76.6301 21.9101 74.9301 21.6801 73.2001H21.6901Z" stroke="black" stroke-opacity="0.2" stroke-width="3" stroke-linecap="round" stroke-linejoin="round"></path>
    <path d="M21.6901 73.2001L21.0201 68.4001C20.7701 66.5701 18.1301 66.5701 17.8701 68.4001L17.2001 73.2001C16.9601 74.9201 16.5801 76.6301 16.0701 78.2901L12.8701 88.5701C12.6001 89.4301 13.2501 90.3101 14.1501 90.3101H24.7301C25.6301 90.3101 26.2801 89.4401 26.0101 88.5701L22.8101 78.2901C22.2901 76.6301 21.9101 74.9301 21.6801 73.2001H21.6901Z" stroke="black" stroke-opacity="0.2" stroke-width="3" stroke-linecap="round" stroke-linejoin="round"></path>
    <path d="M72.6101 76.6301L83.2901 71.1301L93.9701 76.5001L83.2901 82.0001L72.6101 76.6301Z" fill="white"></path>
    <path d="M72.6101 76.6301L83.2901 71.1301L93.9701 76.5001L83.2901 82.0001L72.6101 76.6301Z" stroke="#767373" stroke-width="3" stroke-linecap="round" stroke-linejoin="round"></path>
    <path d="M72.6101 76.6301L83.2901 71.1301L93.9701 76.5001L83.2901 82.0001L72.6101 76.6301Z" stroke="black" stroke-opacity="0.2" stroke-width="3" stroke-linecap="round" stroke-linejoin="round"></path>
    <path d="M72.6101 76.6301L83.2901 71.1301L93.9701 76.5001L83.2901 82.0001L72.6101 76.6301Z" stroke="black" stroke-opacity="0.2" stroke-width="3" stroke-linecap="round" stroke-linejoin="round"></path>
    <path d="M83.29 82L93.97 76.5L94.03 88.74L83.36 94.66L83.29 82Z" fill="white"></path>
    <path d="M83.29 82L93.97 76.5L94.03 88.74L83.36 94.66L83.29 82Z" stroke="#767373" stroke-width="3" stroke-linecap="round" stroke-linejoin="round"></path>
    <path d="M83.29 82L93.97 76.5L94.03 88.74L83.36 94.66L83.29 82Z" stroke="black" stroke-opacity="0.2" stroke-width="3" stroke-linecap="round" stroke-linejoin="round"></path>
    <path d="M83.29 82L93.97 76.5L94.03 88.74L83.36 94.66L83.29 82Z" stroke="black" stroke-opacity="0.2" stroke-width="3" stroke-linecap="round" stroke-linejoin="round"></path>
    <path d="M83.3601 82L72.6801 76.5L72.6101 88.74L83.2901 94.66L83.3601 82Z" fill="white"></path>
    <path d="M83.3601 82L72.6801 76.5L72.6101 88.74L83.2901 94.66L83.3601 82Z" stroke="#767373" stroke-width="3" stroke-linecap="round" stroke-linejoin="round"></path>
    <path d="M83.3601 82L72.6801 76.5L72.6101 88.74L83.2901 94.66L83.3601 82Z" stroke="black" stroke-opacity="0.2" stroke-width="3" stroke-linecap="round" stroke-linejoin="round"></path>
    <path d="M83.3601 82L72.6801 76.5L72.6101 88.74L83.2901 94.66L83.3601 82Z" stroke="black" stroke-opacity="0.2" stroke-width="3" stroke-linecap="round" stroke-linejoin="round"></path>
    <path d="M77.0295 83.907C77.4111 83.653 77.3631 82.9104 76.9225 82.2484C76.4818 81.5863 75.8152 81.2556 75.4336 81.5096C75.052 81.7636 75.0999 82.5062 75.5406 83.1682C75.9813 83.8302 76.6479 84.161 77.0295 83.907Z" fill="#767373"></path>
    <path d="M77.0295 83.907C77.4111 83.653 77.3631 82.9104 76.9225 82.2484C76.4818 81.5863 75.8152 81.2556 75.4336 81.5096C75.052 81.7636 75.0999 82.5062 75.5406 83.1682C75.9813 83.8302 76.6479 84.161 77.0295 83.907Z" fill="black" fill-opacity="0.2"></path>
    <path d="M77.0295 83.907C77.4111 83.653 77.3631 82.9104 76.9225 82.2484C76.4818 81.5863 75.8152 81.2556 75.4336 81.5096C75.052 81.7636 75.0999 82.5062 75.5406 83.1682C75.9813 83.8302 76.6479 84.161 77.0295 83.907Z" fill="black" fill-opacity="0.2"></path>
    <path d="M80.3634 89.4868C80.745 89.2328 80.6971 88.4902 80.2564 87.8282C79.8158 87.1662 79.1492 86.8354 78.7676 87.0894C78.386 87.3434 78.4339 88.086 78.8746 88.748C79.3153 89.4101 79.9819 89.7408 80.3634 89.4868Z" fill="#767373"></path>
    <path d="M80.3634 89.4868C80.745 89.2328 80.6971 88.4902 80.2564 87.8282C79.8158 87.1662 79.1492 86.8354 78.7676 87.0894C78.386 87.3434 78.4339 88.086 78.8746 88.748C79.3153 89.4101 79.9819 89.7408 80.3634 89.4868Z" fill="black" fill-opacity="0.2"></path>
    <path d="M80.3634 89.4868C80.745 89.2328 80.6971 88.4902 80.2564 87.8282C79.8158 87.1662 79.1492 86.8354 78.7676 87.0894C78.386 87.3434 78.4339 88.086 78.8746 88.748C79.3153 89.4101 79.9819 89.7408 80.3634 89.4868Z" fill="black" fill-opacity="0.2"></path>
    <path d="M91.5421 82.269C91.9828 81.607 92.0307 80.8643 91.6491 80.6103C91.2675 80.3563 90.6009 80.6871 90.1602 81.3491C89.7195 82.0112 89.6716 82.7538 90.0532 83.0078C90.4348 83.2618 91.1014 82.931 91.5421 82.269Z" fill="#767373"></path>
    <path d="M91.5421 82.269C91.9828 81.607 92.0307 80.8643 91.6491 80.6103C91.2675 80.3563 90.6009 80.6871 90.1602 81.3491C89.7195 82.0112 89.6716 82.7538 90.0532 83.0078C90.4348 83.2618 91.1014 82.931 91.5421 82.269Z" fill="black" fill-opacity="0.2"></path>
    <path d="M91.5421 82.269C91.9828 81.607 92.0307 80.8643 91.6491 80.6103C91.2675 80.3563 90.6009 80.6871 90.1602 81.3491C89.7195 82.0112 89.6716 82.7538 90.0532 83.0078C90.4348 83.2618 91.1014 82.931 91.5421 82.269Z" fill="black" fill-opacity="0.2"></path>
    <path d="M87.2435 89.4333C87.6842 88.7713 87.7321 88.0287 87.3505 87.7747C86.9689 87.5207 86.3023 87.8514 85.8616 88.5135C85.421 89.1755 85.3731 89.9181 85.7547 90.1721C86.1362 90.4261 86.8028 90.0953 87.2435 89.4333Z" fill="#767373"></path>
    <path d="M87.2435 89.4333C87.6842 88.7713 87.7321 88.0287 87.3505 87.7747C86.9689 87.5207 86.3023 87.8514 85.8616 88.5135C85.421 89.1755 85.3731 89.9181 85.7547 90.1721C86.1362 90.4261 86.8028 90.0953 87.2435 89.4333Z" fill="black" fill-opacity="0.2"></path>
    <path d="M87.2435 89.4333C87.6842 88.7713 87.7321 88.0287 87.3505 87.7747C86.9689 87.5207 86.3023 87.8514 85.8616 88.5135C85.421 89.1755 85.3731 89.9181 85.7547 90.1721C86.1362 90.4261 86.8028 90.0953 87.2435 89.4333Z" fill="black" fill-opacity="0.2"></path>
    <path d="M89.3568 86.0412C89.7975 85.3792 89.8454 84.6366 89.4638 84.3826C89.0822 84.1286 88.4156 84.4593 87.9749 85.1214C87.5342 85.7834 87.4863 86.526 87.8679 86.78C88.2495 87.034 88.9161 86.7032 89.3568 86.0412Z" fill="#767373"></path>
    <path d="M89.3568 86.0412C89.7975 85.3792 89.8454 84.6366 89.4638 84.3826C89.0822 84.1286 88.4156 84.4593 87.9749 85.1214C87.5342 85.7834 87.4863 86.526 87.8679 86.78C88.2495 87.034 88.9161 86.7032 89.3568 86.0412Z" fill="black" fill-opacity="0.2"></path>
    <path d="M89.3568 86.0412C89.7975 85.3792 89.8454 84.6366 89.4638 84.3826C89.0822 84.1286 88.4156 84.4593 87.9749 85.1214C87.5342 85.7834 87.4863 86.526 87.8679 86.78C88.2495 87.034 88.9161 86.7032 89.3568 86.0412Z" fill="black" fill-opacity="0.2"></path>
    <path d="M83.29 77.4201C84.2731 77.4201 85.07 77.0082 85.07 76.5001C85.07 75.992 84.2731 75.5801 83.29 75.5801C82.3069 75.5801 81.51 75.992 81.51 76.5001C81.51 77.0082 82.3069 77.4201 83.29 77.4201Z" fill="#767373"></path>
    <path d="M83.29 77.4201C84.2731 77.4201 85.07 77.0082 85.07 76.5001C85.07 75.992 84.2731 75.5801 83.29 75.5801C82.3069 75.5801 81.51 75.992 81.51 76.5001C81.51 77.0082 82.3069 77.4201 83.29 77.4201Z" fill="black" fill-opacity="0.2"></path>
    <path d="M83.29 77.4201C84.2731 77.4201 85.07 77.0082 85.07 76.5001C85.07 75.992 84.2731 75.5801 83.29 75.5801C82.3069 75.5801 81.51 75.992 81.51 76.5001C81.51 77.0082 82.3069 77.4201 83.29 77.4201Z" fill="black" fill-opacity="0.2"></path>
  </symbol>
  <symbol fill="none" xmlns="http://www.w3.org/2000/svg" viewBox="0 0 100 100" id="Icon-2-Unselected">
    <path d="M41.37 5.34009L97.47 30.9601L58.62 51.6001L2.53003 21.8001L41.38 5.34009H41.37Z" fill="white" stroke="#A09C9D" stroke-width="3" stroke-linecap="round" stroke-linejoin="round"></path>
    <path d="M97.4701 49.3002V30.9602L58.6201 51.6002V69.9402L97.4701 49.3002Z" fill="white" stroke="#A09C9D" stroke-width="3" stroke-linecap="round" stroke-linejoin="round"></path>
    <path d="M2.53003 40.06V21.8L58.63 51.6001V69.94L2.53003 40.06Z" fill="white" stroke="#A09C9D" stroke-width="3" stroke-linecap="round" stroke-linejoin="round"></path>
    <path d="M94.5801 58.33L94.6401 51.0701L58.6301 69.8101V77.4201L94.5901 58.33H94.5801Z" fill="white" stroke="#A09C9D" stroke-width="3" stroke-linecap="round" stroke-linejoin="round"></path>
    <path d="M4.41992 48.6502L4.48992 41.2102L58.6199 69.8102V77.4202L4.41992 48.6502Z" fill="white" stroke="#A09C9D" stroke-width="3" stroke-linecap="round" stroke-linejoin="round"></path>
    <path d="M26.6501 90.3501H12.2501C11.4935 90.3501 10.8801 90.9635 10.8801 91.7201V93.2901C10.8801 94.0467 11.4935 94.6601 12.2501 94.6601H26.6501C27.4068 94.6601 28.0201 94.0467 28.0201 93.2901V91.7201C28.0201 90.9635 27.4068 90.3501 26.6501 90.3501Z" fill="#A09C9D"></path>
    <path d="M21.6901 73.2001L21.0201 68.4001C20.7701 66.5701 18.1301 66.5701 17.8701 68.4001L17.2001 73.2001C16.9601 74.9201 16.5801 76.6301 16.0701 78.2901L12.8701 88.5701C12.6001 89.4301 13.2501 90.3101 14.1501 90.3101H24.7301C25.6301 90.3101 26.2801 89.4401 26.0101 88.5701L22.8101 78.2901C22.2901 76.6301 21.9101 74.9301 21.6801 73.2001H21.6901Z" fill="#A09C9D"></path>
    <path d="M26.6501 90.3501H12.2501C11.4935 90.3501 10.8801 90.9635 10.8801 91.7201V93.2901C10.8801 94.0467 11.4935 94.6601 12.2501 94.6601H26.6501C27.4068 94.6601 28.0201 94.0467 28.0201 93.2901V91.7201C28.0201 90.9635 27.4068 90.3501 26.6501 90.3501Z" fill="white"></path>
    <path d="M21.6901 73.2001L21.0201 68.4001C20.7701 66.5701 18.1301 66.5701 17.8701 68.4001L17.2001 73.2001C16.9601 74.9201 16.5801 76.6301 16.0701 78.2901L12.8701 88.5701C12.6001 89.4301 13.2501 90.3101 14.1501 90.3101H24.7301C25.6301 90.3101 26.2801 89.4401 26.0101 88.5701L22.8101 78.2901C22.2901 76.6301 21.9101 74.9301 21.6801 73.2001H21.6901Z" fill="white"></path>
    <path d="M26.6501 90.3501H12.2501C11.4935 90.3501 10.8801 90.9635 10.8801 91.7201V93.2901C10.8801 94.0467 11.4935 94.6601 12.2501 94.6601H26.6501C27.4068 94.6601 28.0201 94.0467 28.0201 93.2901V91.7201C28.0201 90.9635 27.4068 90.3501 26.6501 90.3501Z" stroke="#A09C9D" stroke-width="3" stroke-linecap="round" stroke-linejoin="round"></path>
    <path d="M21.6901 73.2001L21.0201 68.4001C20.7701 66.5701 18.1301 66.5701 17.8701 68.4001L17.2001 73.2001C16.9601 74.9201 16.5801 76.6301 16.0701 78.2901L12.8701 88.5701C12.6001 89.4301 13.2501 90.3101 14.1501 90.3101H24.7301C25.6301 90.3101 26.2801 89.4401 26.0101 88.5701L22.8101 78.2901C22.2901 76.6301 21.9101 74.9301 21.6801 73.2001H21.6901Z" stroke="#A09C9D" stroke-width="3" stroke-linecap="round" stroke-linejoin="round"></path>
    <path d="M72.6101 76.6301L83.2901 71.1301L93.9701 76.5001L83.2901 82.0001L72.6101 76.6301Z" fill="white" stroke="#A09C9D" stroke-width="3" stroke-linecap="round" stroke-linejoin="round"></path>
    <path d="M83.29 82L93.97 76.5L94.03 88.74L83.36 94.66L83.29 82Z" fill="white" stroke="#A09C9D" stroke-width="3" stroke-linecap="round" stroke-linejoin="round"></path>
    <path d="M83.3601 82L72.6801 76.5L72.6101 88.74L83.2901 94.66L83.3601 82Z" fill="white" stroke="#A09C9D" stroke-width="3" stroke-linecap="round" stroke-linejoin="round"></path>
    <path d="M77.0295 83.907C77.4111 83.653 77.3631 82.9104 76.9225 82.2484C76.4818 81.5863 75.8152 81.2556 75.4336 81.5096C75.052 81.7636 75.0999 82.5062 75.5406 83.1682C75.9813 83.8302 76.6479 84.161 77.0295 83.907Z" fill="#A09C9D"></path>
    <path d="M80.3634 89.4868C80.745 89.2328 80.6971 88.4902 80.2564 87.8282C79.8158 87.1662 79.1492 86.8354 78.7676 87.0894C78.386 87.3434 78.4339 88.086 78.8746 88.748C79.3153 89.4101 79.9819 89.7408 80.3634 89.4868Z" fill="#A09C9D"></path>
    <path d="M91.5421 82.269C91.9828 81.607 92.0307 80.8643 91.6491 80.6103C91.2675 80.3563 90.6009 80.6871 90.1602 81.3491C89.7195 82.0112 89.6716 82.7538 90.0532 83.0078C90.4348 83.2618 91.1014 82.931 91.5421 82.269Z" fill="#A09C9D"></path>
    <path d="M87.2435 89.4333C87.6842 88.7713 87.7321 88.0287 87.3505 87.7747C86.9689 87.5207 86.3023 87.8514 85.8616 88.5135C85.421 89.1755 85.3731 89.9181 85.7547 90.1721C86.1362 90.4261 86.8028 90.0953 87.2435 89.4333Z" fill="#A09C9D"></path>
    <path d="M89.3568 86.0412C89.7975 85.3792 89.8454 84.6366 89.4638 84.3826C89.0822 84.1286 88.4156 84.4593 87.9749 85.1214C87.5342 85.7834 87.4863 86.526 87.8679 86.78C88.2495 87.034 88.9161 86.7032 89.3568 86.0412Z" fill="#A09C9D"></path>
    <path d="M83.29 77.4201C84.2731 77.4201 85.07 77.0082 85.07 76.5001C85.07 75.992 84.2731 75.5801 83.29 75.5801C82.3069 75.5801 81.51 75.992 81.51 76.5001C81.51 77.0082 82.3069 77.4201 83.29 77.4201Z" fill="#A09C9D"></path>
  </symbol>
</svg>