<!-- SVG Sprite -->
<svg width="0" height="0" class="hidden">
  <symbol fill="none" xmlns="http://www.w3.org/2000/svg" viewBox="0 0 100 100" id="Icon-1-Active">
    <path d="M73.9692 26.0425L48.106 35.7944L49.9309 46.9234L81.0004 35.1898L73.9692 26.0425Z" stroke="#4D494A" stroke-width="3" stroke-linecap="round" stroke-linejoin="round"></path>
    <path d="M51.6883 17.4551L25.8251 27.2182L19.0962 35.1898L50.1656 23.4674L51.6883 17.4551Z" stroke="#4D494A" stroke-width="3" stroke-linecap="round" stroke-linejoin="round"></path>
    <path d="M38.757 2.1499L30.5054 4.08684L61.586 15.8092L69.8264 13.8835L38.757 2.1499Z" stroke="#4D494A" stroke-width="3" stroke-linecap="round" stroke-linejoin="round"></path>
    <path d="M18.8501 85.3375V35.2122L49.8859 46.9234V97.0599L18.8501 85.3375Z" fill="white" stroke="#4D494A" stroke-width="3" stroke-linecap="round" stroke-linejoin="round"></path>
    <path d="M80.9216 85.3375V35.2122L49.8857 46.9234V97.0599L80.9216 85.3375Z" fill="white" stroke="#4D494A" stroke-width="3" stroke-linecap="round" stroke-linejoin="round"></path>
    <path d="M81 35.1898L69.8262 13.8835L38.7568 2.1499" stroke="#4D494A" stroke-width="3" stroke-linecap="round" stroke-linejoin="round"></path>
    <path d="M65.3591 29.2893L49.9307 23.4673L18.8501 35.1897L49.9307 46.9233L81.0001 35.1897" stroke="#4D494A" stroke-width="3" stroke-linecap="round" stroke-linejoin="round"></path>
    <path d="M49.9307 23.4673L65.4038 29.3005" stroke="#4D494A" stroke-width="3" stroke-linecap="round" stroke-linejoin="round"></path>
    <path d="M42.0483 8.44214L47.5905 19.0002" stroke="#4D494A" stroke-width="3" stroke-linecap="round" stroke-linejoin="round"></path>
  </symbol>
  <symbol fill="none" xmlns="http://www.w3.org/2000/svg" viewBox="0 0 100 100" id="Icon-1-Hover">
    <path d="M73.9692 26.0425L48.106 35.7944L49.9309 46.9234L81.0004 35.1898L73.9692 26.0425Z" stroke="#767373" stroke-width="3" stroke-linecap="round" stroke-linejoin="round"></path>
    <path d="M73.9692 26.0425L48.106 35.7944L49.9309 46.9234L81.0004 35.1898L73.9692 26.0425Z" stroke="black" stroke-opacity="0.2" stroke-width="3" stroke-linecap="round" stroke-linejoin="round"></path>
    <path d="M73.9692 26.0425L48.106 35.7944L49.9309 46.9234L81.0004 35.1898L73.9692 26.0425Z" stroke="black" stroke-opacity="0.2" stroke-width="3" stroke-linecap="round" stroke-linejoin="round"></path>
    <path d="M51.6883 17.4551L25.8251 27.2182L19.0962 35.1898L50.1656 23.4674L51.6883 17.4551Z" stroke="#767373" stroke-width="3" stroke-linecap="round" stroke-linejoin="round"></path>
    <path d="M51.6883 17.4551L25.8251 27.2182L19.0962 35.1898L50.1656 23.4674L51.6883 17.4551Z" stroke="black" stroke-opacity="0.2" stroke-width="3" stroke-linecap="round" stroke-linejoin="round"></path>
    <path d="M51.6883 17.4551L25.8251 27.2182L19.0962 35.1898L50.1656 23.4674L51.6883 17.4551Z" stroke="black" stroke-opacity="0.2" stroke-width="3" stroke-linecap="round" stroke-linejoin="round"></path>
    <path d="M38.757 2.1499L30.5054 4.08684L61.586 15.8092L69.8264 13.8835L38.757 2.1499Z" stroke="#767373" stroke-width="3" stroke-linecap="round" stroke-linejoin="round"></path>
    <path d="M38.757 2.1499L30.5054 4.08684L61.586 15.8092L69.8264 13.8835L38.757 2.1499Z" stroke="black" stroke-opacity="0.2" stroke-width="3" stroke-linecap="round" stroke-linejoin="round"></path>
    <path d="M38.757 2.1499L30.5054 4.08684L61.586 15.8092L69.8264 13.8835L38.757 2.1499Z" stroke="black" stroke-opacity="0.2" stroke-width="3" stroke-linecap="round" stroke-linejoin="round"></path>
    <path d="M18.8501 85.3375V35.2122L49.8859 46.9234V97.0599L18.8501 85.3375Z" fill="white"></path>
    <path d="M18.8501 85.3375V35.2122L49.8859 46.9234V97.0599L18.8501 85.3375Z" stroke="#767373" stroke-width="3" stroke-linecap="round" stroke-linejoin="round"></path>
    <path d="M18.8501 85.3375V35.2122L49.8859 46.9234V97.0599L18.8501 85.3375Z" stroke="black" stroke-opacity="0.2" stroke-width="3" stroke-linecap="round" stroke-linejoin="round"></path>
    <path d="M18.8501 85.3375V35.2122L49.8859 46.9234V97.0599L18.8501 85.3375Z" stroke="black" stroke-opacity="0.2" stroke-width="3" stroke-linecap="round" stroke-linejoin="round"></path>
    <path d="M80.9216 85.3375V35.2122L49.8857 46.9234V97.0599L80.9216 85.3375Z" fill="white"></path>
    <path d="M80.9216 85.3375V35.2122L49.8857 46.9234V97.0599L80.9216 85.3375Z" stroke="#767373" stroke-width="3" stroke-linecap="round" stroke-linejoin="round"></path>
    <path d="M80.9216 85.3375V35.2122L49.8857 46.9234V97.0599L80.9216 85.3375Z" stroke="black" stroke-opacity="0.2" stroke-width="3" stroke-linecap="round" stroke-linejoin="round"></path>
    <path d="M80.9216 85.3375V35.2122L49.8857 46.9234V97.0599L80.9216 85.3375Z" stroke="black" stroke-opacity="0.2" stroke-width="3" stroke-linecap="round" stroke-linejoin="round"></path>
    <path d="M81 35.1898L69.8262 13.8835L38.7568 2.1499" stroke="#767373" stroke-width="3" stroke-linecap="round" stroke-linejoin="round"></path>
    <path d="M81 35.1898L69.8262 13.8835L38.7568 2.1499" stroke="black" stroke-opacity="0.2" stroke-width="3" stroke-linecap="round" stroke-linejoin="round"></path>
    <path d="M81 35.1898L69.8262 13.8835L38.7568 2.1499" stroke="black" stroke-opacity="0.2" stroke-width="3" stroke-linecap="round" stroke-linejoin="round"></path>
    <path d="M65.3591 29.2893L49.9307 23.4673L18.8501 35.1897L49.9307 46.9233L81.0001 35.1897" stroke="#767373" stroke-width="3" stroke-linecap="round" stroke-linejoin="round"></path>
    <path d="M65.3591 29.2893L49.9307 23.4673L18.8501 35.1897L49.9307 46.9233L81.0001 35.1897" stroke="black" stroke-opacity="0.2" stroke-width="3" stroke-linecap="round" stroke-linejoin="round"></path>
    <path d="M65.3591 29.2893L49.9307 23.4673L18.8501 35.1897L49.9307 46.9233L81.0001 35.1897" stroke="black" stroke-opacity="0.2" stroke-width="3" stroke-linecap="round" stroke-linejoin="round"></path>
    <path d="M49.9307 23.4673L65.4038 29.3005" stroke="#767373" stroke-width="3" stroke-linecap="round" stroke-linejoin="round"></path>
    <path d="M49.9307 23.4673L65.4038 29.3005" stroke="black" stroke-opacity="0.2" stroke-width="3" stroke-linecap="round" stroke-linejoin="round"></path>
    <path d="M49.9307 23.4673L65.4038 29.3005" stroke="black" stroke-opacity="0.2" stroke-width="3" stroke-linecap="round" stroke-linejoin="round"></path>
    <path d="M42.0483 8.44214L47.5905 19.0002" stroke="#767373" stroke-width="3" stroke-linecap="round" stroke-linejoin="round"></path>
    <path d="M42.0483 8.44214L47.5905 19.0002" stroke="black" stroke-opacity="0.2" stroke-width="3" stroke-linecap="round" stroke-linejoin="round"></path>
    <path d="M42.0483 8.44214L47.5905 19.0002" stroke="black" stroke-opacity="0.2" stroke-width="3" stroke-linecap="round" stroke-linejoin="round"></path>
  </symbol>
  <symbol fill="none" xmlns="http://www.w3.org/2000/svg" viewBox="0 0 100 100" id="Icon-1-Unselected">
    <path d="M73.9692 26.0425L48.106 35.7944L49.9309 46.9234L81.0004 35.1898L73.9692 26.0425Z" stroke="#A09C9D" stroke-width="3" stroke-linecap="round" stroke-linejoin="round"></path>
    <path d="M51.6883 17.4551L25.8251 27.2182L19.0962 35.1898L50.1656 23.4674L51.6883 17.4551Z" stroke="#A09C9D" stroke-width="3" stroke-linecap="round" stroke-linejoin="round"></path>
    <path d="M38.757 2.1499L30.5054 4.08684L61.586 15.8092L69.8264 13.8835L38.757 2.1499Z" stroke="#A09C9D" stroke-width="3" stroke-linecap="round" stroke-linejoin="round"></path>
    <path d="M18.8501 85.3375V35.2122L49.8859 46.9234V97.0599L18.8501 85.3375Z" fill="white" stroke="#A09C9D" stroke-width="3" stroke-linecap="round" stroke-linejoin="round"></path>
    <path d="M80.9216 85.3375V35.2122L49.8857 46.9234V97.0599L80.9216 85.3375Z" fill="white" stroke="#A09C9D" stroke-width="3" stroke-linecap="round" stroke-linejoin="round"></path>
    <path d="M81 35.1898L69.8262 13.8835L38.7568 2.1499" stroke="#A09C9D" stroke-width="3" stroke-linecap="round" stroke-linejoin="round"></path>
    <path d="M65.3591 29.2893L49.9307 23.4673L18.8501 35.1897L49.9307 46.9233L81.0001 35.1897" stroke="#A09C9D" stroke-width="3" stroke-linecap="round" stroke-linejoin="round"></path>
    <path d="M49.9307 23.4673L65.4038 29.3005" stroke="#A09C9D" stroke-width="3" stroke-linecap="round" stroke-linejoin="round"></path>
    <path d="M42.0483 8.44214L47.5905 19.0002" stroke="#A09C9D" stroke-width="3" stroke-linecap="round" stroke-linejoin="round"></path>
  </symbol>
  <symbol fill="none" xmlns="http://www.w3.org/2000/svg" viewBox="0 0 100 100" id="Icon-2-Active">
    <path d="M2.66162 57.4855L68.1859 17C68.1859 17 69.4944 28.9095 97.3386 37.8028L30.273 82.99" fill="white"></path>
    <path d="M2.66162 57.4855L68.1859 17C68.1859 17 69.4944 28.9095 97.3386 37.8028L30.273 82.99C25.623 83.6503 13.5908 79.474 2.66162 57.4855Z" stroke="#4D494A" stroke-width="3" stroke-linecap="round" stroke-linejoin="round"></path>
    <path d="M2.66162 57.4856C2.66162 57.4856 14.1275 82.99 30.273 82.99" stroke="#4D494A" stroke-width="3" stroke-linecap="round" stroke-linejoin="round"></path>
    <path d="M2.66162 57.4857C2.66162 57.4857 27.9332 46.4855 30.273 82.9901" stroke="#4D494A" stroke-width="3" stroke-linecap="round" stroke-linejoin="round"></path>
  </symbol>
  <symbol fill="none" xmlns="http://www.w3.org/2000/svg" viewBox="0 0 100 100" id="Icon-2-Hover">
    <path d="M2.66162 57.4855L68.1859 17C68.1859 17 69.4944 28.9095 97.3386 37.8028L30.273 82.99" fill="white"></path>
    <path d="M2.66162 57.4855L68.1859 17C68.1859 17 69.4944 28.9095 97.3386 37.8028L30.273 82.99C25.623 83.6503 13.5908 79.474 2.66162 57.4855Z" stroke="#767373" stroke-width="3" stroke-linecap="round" stroke-linejoin="round"></path>
    <path d="M2.66162 57.4855L68.1859 17C68.1859 17 69.4944 28.9095 97.3386 37.8028L30.273 82.99C25.623 83.6503 13.5908 79.474 2.66162 57.4855Z" stroke="black" stroke-opacity="0.2" stroke-width="3" stroke-linecap="round" stroke-linejoin="round"></path>
    <path d="M2.66162 57.4855L68.1859 17C68.1859 17 69.4944 28.9095 97.3386 37.8028L30.273 82.99C25.623 83.6503 13.5908 79.474 2.66162 57.4855Z" stroke="black" stroke-opacity="0.2" stroke-width="3" stroke-linecap="round" stroke-linejoin="round"></path>
    <path d="M2.66162 57.4856C2.66162 57.4856 14.1275 82.99 30.273 82.99" stroke="#767373" stroke-width="3" stroke-linecap="round" stroke-linejoin="round"></path>
    <path d="M2.66162 57.4856C2.66162 57.4856 14.1275 82.99 30.273 82.99" stroke="black" stroke-opacity="0.2" stroke-width="3" stroke-linecap="round" stroke-linejoin="round"></path>
    <path d="M2.66162 57.4856C2.66162 57.4856 14.1275 82.99 30.273 82.99" stroke="black" stroke-opacity="0.2" stroke-width="3" stroke-linecap="round" stroke-linejoin="round"></path>
    <path d="M2.66162 57.4857C2.66162 57.4857 27.9332 46.4855 30.273 82.9901" stroke="#767373" stroke-width="3" stroke-linecap="round" stroke-linejoin="round"></path>
    <path d="M2.66162 57.4857C2.66162 57.4857 27.9332 46.4855 30.273 82.9901" stroke="black" stroke-opacity="0.2" stroke-width="3" stroke-linecap="round" stroke-linejoin="round"></path>
    <path d="M2.66162 57.4857C2.66162 57.4857 27.9332 46.4855 30.273 82.9901" stroke="black" stroke-opacity="0.2" stroke-width="3" stroke-linecap="round" stroke-linejoin="round"></path>
  </symbol>
  <symbol fill="none" xmlns="http://www.w3.org/2000/svg" viewBox="0 0 100 100" id="Icon-2-Unselected">
    <path d="M2.66162 57.4855L68.1859 17C68.1859 17 69.4944 28.9095 97.3386 37.8028L30.273 82.99" fill="white"></path>
    <path d="M2.66162 57.4855L68.1859 17C68.1859 17 69.4944 28.9095 97.3386 37.8028L30.273 82.99C25.623 83.6503 13.5908 79.474 2.66162 57.4855Z" stroke="#A09C9D" stroke-width="3" stroke-linecap="round" stroke-linejoin="round"></path>
    <path d="M2.66162 57.4856C2.66162 57.4856 14.1275 82.99 30.273 82.99" stroke="#A09C9D" stroke-width="3" stroke-linecap="round" stroke-linejoin="round"></path>
    <path d="M2.66162 57.4857C2.66162 57.4857 27.9332 46.4855 30.273 82.9901" stroke="#A09C9D" stroke-width="3" stroke-linecap="round" stroke-linejoin="round"></path>
  </symbol>
  <symbol fill="none" xmlns="http://www.w3.org/2000/svg" viewBox="0 0 100 100" id="Icon-3-Active">
    <path d="M49.8901 7L7.73096 22.9084L49.8901 38.8286L92.0491 22.9084L49.8901 7Z" stroke="#4D494A" stroke-width="3" stroke-linecap="round" stroke-linejoin="round"></path>
    <path d="M7.73096 37.0598V22.9084L49.8901 38.8287V52.98L7.73096 37.0598Z" stroke="#4D494A" stroke-width="3" stroke-linecap="round" stroke-linejoin="round"></path>
    <path d="M92.0492 37.0598V22.9084L49.8901 38.8287V52.98L92.0492 37.0598Z" stroke="#4D494A" stroke-width="3" stroke-linecap="round" stroke-linejoin="round"></path>
    <path d="M10.8677 77.9923V37.9441L49.8899 52.6732V92.7214L10.8677 77.9923Z" fill="white" stroke="#4D494A" stroke-width="3" stroke-linecap="round" stroke-linejoin="round"></path>
    <path d="M88.9241 77.9923V37.9441L49.8901 52.6732V92.7214L88.9241 77.9923Z" fill="white" stroke="#4D494A" stroke-width="3" stroke-linecap="round" stroke-linejoin="round"></path>
  </symbol>
  <symbol fill="none" xmlns="http://www.w3.org/2000/svg" viewBox="0 0 100 100" id="Icon-3-Hover">
    <path d="M49.8901 7L7.73096 22.9084L49.8901 38.8286L92.0491 22.9084L49.8901 7Z" stroke="#767373" stroke-width="3" stroke-linecap="round" stroke-linejoin="round"></path>
    <path d="M49.8901 7L7.73096 22.9084L49.8901 38.8286L92.0491 22.9084L49.8901 7Z" stroke="black" stroke-opacity="0.2" stroke-width="3" stroke-linecap="round" stroke-linejoin="round"></path>
    <path d="M49.8901 7L7.73096 22.9084L49.8901 38.8286L92.0491 22.9084L49.8901 7Z" stroke="black" stroke-opacity="0.2" stroke-width="3" stroke-linecap="round" stroke-linejoin="round"></path>
    <path d="M7.73096 37.0598V22.9084L49.8901 38.8287V52.98L7.73096 37.0598Z" stroke="#767373" stroke-width="3" stroke-linecap="round" stroke-linejoin="round"></path>
    <path d="M7.73096 37.0598V22.9084L49.8901 38.8287V52.98L7.73096 37.0598Z" stroke="black" stroke-opacity="0.2" stroke-width="3" stroke-linecap="round" stroke-linejoin="round"></path>
    <path d="M7.73096 37.0598V22.9084L49.8901 38.8287V52.98L7.73096 37.0598Z" stroke="black" stroke-opacity="0.2" stroke-width="3" stroke-linecap="round" stroke-linejoin="round"></path>
    <path d="M92.0492 37.0598V22.9084L49.8901 38.8287V52.98L92.0492 37.0598Z" stroke="#767373" stroke-width="3" stroke-linecap="round" stroke-linejoin="round"></path>
    <path d="M92.0492 37.0598V22.9084L49.8901 38.8287V52.98L92.0492 37.0598Z" stroke="black" stroke-opacity="0.2" stroke-width="3" stroke-linecap="round" stroke-linejoin="round"></path>
    <path d="M92.0492 37.0598V22.9084L49.8901 38.8287V52.98L92.0492 37.0598Z" stroke="black" stroke-opacity="0.2" stroke-width="3" stroke-linecap="round" stroke-linejoin="round"></path>
    <path d="M10.8677 77.9923V37.9441L49.8899 52.6732V92.7214L10.8677 77.9923Z" fill="white"></path>
    <path d="M10.8677 77.9923V37.9441L49.8899 52.6732V92.7214L10.8677 77.9923Z" stroke="#767373" stroke-width="3" stroke-linecap="round" stroke-linejoin="round"></path>
    <path d="M10.8677 77.9923V37.9441L49.8899 52.6732V92.7214L10.8677 77.9923Z" stroke="black" stroke-opacity="0.2" stroke-width="3" stroke-linecap="round" stroke-linejoin="round"></path>
    <path d="M10.8677 77.9923V37.9441L49.8899 52.6732V92.7214L10.8677 77.9923Z" stroke="black" stroke-opacity="0.2" stroke-width="3" stroke-linecap="round" stroke-linejoin="round"></path>
    <path d="M88.9241 77.9923V37.9441L49.8901 52.6732V92.7214L88.9241 77.9923Z" fill="white"></path>
    <path d="M88.9241 77.9923V37.9441L49.8901 52.6732V92.7214L88.9241 77.9923Z" stroke="#767373" stroke-width="3" stroke-linecap="round" stroke-linejoin="round"></path>
    <path d="M88.9241 77.9923V37.9441L49.8901 52.6732V92.7214L88.9241 77.9923Z" stroke="black" stroke-opacity="0.2" stroke-width="3" stroke-linecap="round" stroke-linejoin="round"></path>
    <path d="M88.9241 77.9923V37.9441L49.8901 52.6732V92.7214L88.9241 77.9923Z" stroke="black" stroke-opacity="0.2" stroke-width="3" stroke-linecap="round" stroke-linejoin="round"></path>
  </symbol>
  <symbol fill="none" xmlns="http://www.w3.org/2000/svg" viewBox="0 0 100 100" id="Icon-3-Unselected">
    <path d="M49.8901 7L7.73096 22.9084L49.8901 38.8286L92.0491 22.9084L49.8901 7Z" stroke="#A09C9D" stroke-width="3" stroke-linecap="round" stroke-linejoin="round"></path>
    <path d="M7.73096 37.0598V22.9084L49.8901 38.8287V52.98L7.73096 37.0598Z" stroke="#A09C9D" stroke-width="3" stroke-linecap="round" stroke-linejoin="round"></path>
    <path d="M92.0492 37.0598V22.9084L49.8901 38.8287V52.98L92.0492 37.0598Z" stroke="#A09C9D" stroke-width="3" stroke-linecap="round" stroke-linejoin="round"></path>
    <path d="M10.8677 77.9923V37.9441L49.8899 52.6732V92.7214L10.8677 77.9923Z" fill="white" stroke="#A09C9D" stroke-width="3" stroke-linecap="round" stroke-linejoin="round"></path>
    <path d="M88.9241 77.9923V37.9441L49.8901 52.6732V92.7214L88.9241 77.9923Z" fill="white" stroke="#A09C9D" stroke-width="3" stroke-linecap="round" stroke-linejoin="round"></path>
  </symbol>
  <symbol fill="none" xmlns="http://www.w3.org/2000/svg" viewBox="0 0 100 100" id="Icon-4-Hover">
    <path d="M2.68018 57.7199L21.3402 36.6199L20.3302 35.2999L47.0502 5.61987L96.9702 35.2999L97.4702 47.1699L70.2402 76.1899H69.2302L52.0902 94.6599L2.68018 66.2899V57.7199Z" fill="white"></path>
    <path d="M2.68018 57.7199L21.3402 36.6199L20.3302 35.2999L47.0502 5.61987L96.9702 35.2999L97.4702 47.1699L70.2402 76.1899H69.2302L52.0902 94.6599L2.68018 66.2899V57.7199Z" stroke="#767373" stroke-width="3" stroke-linecap="round" stroke-linejoin="round"></path>
    <path d="M2.68018 57.7199L21.3402 36.6199L20.3302 35.2999L47.0502 5.61987L96.9702 35.2999L97.4702 47.1699L70.2402 76.1899H69.2302L52.0902 94.6599L2.68018 66.2899V57.7199Z" stroke="black" stroke-opacity="0.2" stroke-width="3" stroke-linecap="round" stroke-linejoin="round"></path>
    <path d="M2.68018 57.7199L21.3402 36.6199L20.3302 35.2999L47.0502 5.61987L96.9702 35.2999L97.4702 47.1699L70.2402 76.1899H69.2302L52.0902 94.6599L2.68018 66.2899V57.7199Z" stroke="black" stroke-opacity="0.2" stroke-width="3" stroke-linecap="round" stroke-linejoin="round"></path>
    <path d="M52.1799 94.8498L2.43994 65.9298V57.8298L52.1799 86.7498V94.8498Z" stroke="#767373" stroke-width="3" stroke-linecap="round" stroke-linejoin="round"></path>
    <path d="M52.1799 94.8498L2.43994 65.9298V57.8298L52.1799 86.7498V94.8498Z" stroke="black" stroke-opacity="0.2" stroke-width="3" stroke-linecap="round" stroke-linejoin="round"></path>
    <path d="M52.1799 94.8498L2.43994 65.9298V57.8298L52.1799 86.7498V94.8498Z" stroke="black" stroke-opacity="0.2" stroke-width="3" stroke-linecap="round" stroke-linejoin="round"></path>
    <path d="M97.4798 47.03L70.0098 77.4001V64.92L97.4798 34.55V47.03Z" fill="white"></path>
    <path d="M97.4798 47.03L70.0098 77.4001V64.92L97.4798 34.55V47.03Z" stroke="#767373" stroke-width="3" stroke-linecap="round" stroke-linejoin="round"></path>
    <path d="M97.4798 47.03L70.0098 77.4001V64.92L97.4798 34.55V47.03Z" stroke="black" stroke-opacity="0.2" stroke-width="3" stroke-linecap="round" stroke-linejoin="round"></path>
    <path d="M97.4798 47.03L70.0098 77.4001V64.92L97.4798 34.55V47.03Z" stroke="black" stroke-opacity="0.2" stroke-width="3" stroke-linecap="round" stroke-linejoin="round"></path>
    <path d="M2.43994 57.83L21.5199 36.74" stroke="#767373" stroke-width="3" stroke-linecap="round" stroke-linejoin="round"></path>
    <path d="M2.43994 57.83L21.5199 36.74" stroke="black" stroke-opacity="0.2" stroke-width="3" stroke-linecap="round" stroke-linejoin="round"></path>
    <path d="M2.43994 57.83L21.5199 36.74" stroke="black" stroke-opacity="0.2" stroke-width="3" stroke-linecap="round" stroke-linejoin="round"></path>
    <path d="M26.3297 39.5L7.23975 60.61" stroke="#767373" stroke-width="3" stroke-linecap="round" stroke-linejoin="round"></path>
    <path d="M26.3297 39.5L7.23975 60.61" stroke="black" stroke-opacity="0.2" stroke-width="3" stroke-linecap="round" stroke-linejoin="round"></path>
    <path d="M26.3297 39.5L7.23975 60.61" stroke="black" stroke-opacity="0.2" stroke-width="3" stroke-linecap="round" stroke-linejoin="round"></path>
    <path d="M70.0002 75.15L52.1802 94.85V86.75L70.0002 67.05" stroke="#767373" stroke-width="3" stroke-linecap="round" stroke-linejoin="round"></path>
    <path d="M70.0002 75.15L52.1802 94.85V86.75L70.0002 67.05" stroke="black" stroke-opacity="0.2" stroke-width="3" stroke-linecap="round" stroke-linejoin="round"></path>
    <path d="M70.0002 75.15L52.1802 94.85V86.75L70.0002 67.05" stroke="black" stroke-opacity="0.2" stroke-width="3" stroke-linecap="round" stroke-linejoin="round"></path>
    <path d="M47.0198 5.22995L19.5498 35.5999L70.0098 64.9L97.4798 34.5299L47.0298 5.19995V5.22995H47.0198Z" fill="white"></path>
    <path d="M47.0198 5.22995L19.5498 35.5999L70.0098 64.9L97.4798 34.5299L47.0298 5.19995V5.22995H47.0198Z" stroke="#767373" stroke-width="3" stroke-linecap="round" stroke-linejoin="round"></path>
    <path d="M47.0198 5.22995L19.5498 35.5999L70.0098 64.9L97.4798 34.5299L47.0298 5.19995V5.22995H47.0198Z" stroke="black" stroke-opacity="0.2" stroke-width="3" stroke-linecap="round" stroke-linejoin="round"></path>
    <path d="M47.0198 5.22995L19.5498 35.5999L70.0098 64.9L97.4798 34.5299L47.0298 5.19995V5.22995H47.0198Z" stroke="black" stroke-opacity="0.2" stroke-width="3" stroke-linecap="round" stroke-linejoin="round"></path>
  </symbol>
  <symbol fill="none" xmlns="http://www.w3.org/2000/svg" viewBox="0 0 100 100" id="Icon-4-Active">
    <path d="M2.68018 57.7199L21.3402 36.6199L20.3302 35.2999L47.0502 5.61987L96.9702 35.2999L97.4702 47.1699L70.2402 76.1899H69.2302L52.0902 94.6599L2.68018 66.2899V57.7199Z" fill="white" stroke="#4D494A" stroke-width="3" stroke-linecap="round" stroke-linejoin="round"></path>
    <path d="M52.1799 94.8498L2.43994 65.9298V57.8298L52.1799 86.7498V94.8498Z" stroke="#4D494A" stroke-width="3" stroke-linecap="round" stroke-linejoin="round"></path>
    <path d="M97.4798 47.03L70.0098 77.4001V64.92L97.4798 34.55V47.03Z" fill="white" stroke="#4D494A" stroke-width="3" stroke-linecap="round" stroke-linejoin="round"></path>
    <path d="M2.43994 57.83L21.5199 36.74" stroke="#4D494A" stroke-width="3" stroke-linecap="round" stroke-linejoin="round"></path>
    <path d="M26.3297 39.5L7.23975 60.61" stroke="#4D494A" stroke-width="3" stroke-linecap="round" stroke-linejoin="round"></path>
    <path d="M70.0002 75.15L52.1802 94.85V86.75L70.0002 67.05" stroke="#4D494A" stroke-width="3" stroke-linecap="round" stroke-linejoin="round"></path>
    <path d="M47.0198 5.22995L19.5498 35.5999L70.0098 64.9L97.4798 34.5299L47.0298 5.19995V5.22995H47.0198Z" fill="white" stroke="#4D494A" stroke-width="3" stroke-linecap="round" stroke-linejoin="round"></path>
  </symbol>
  <symbol fill="none" xmlns="http://www.w3.org/2000/svg" viewBox="0 0 100 100" id="Icon-4-Unselected">
    <path d="M2.68018 57.7199L21.3402 36.6199L20.3302 35.2999L47.0502 5.61987L96.9702 35.2999L97.4702 47.1699L70.2402 76.1899H69.2302L52.0902 94.6599L2.68018 66.2899V57.7199Z" fill="white" stroke="#A09C9D" stroke-width="3" stroke-linecap="round" stroke-linejoin="round"></path>
    <path d="M52.1799 94.8498L2.43994 65.9298V57.8298L52.1799 86.7498V94.8498Z" stroke="#A09C9D" stroke-width="3" stroke-linecap="round" stroke-linejoin="round"></path>
    <path d="M97.4798 47.03L70.0098 77.4001V64.92L97.4798 34.55V47.03Z" fill="white" stroke="#A09C9D" stroke-width="3" stroke-linecap="round" stroke-linejoin="round"></path>
    <path d="M2.43994 57.83L21.5199 36.74" stroke="#A09C9D" stroke-width="3" stroke-linecap="round" stroke-linejoin="round"></path>
    <path d="M26.3297 39.5L7.23975 60.61" stroke="#A09C9D" stroke-width="3" stroke-linecap="round" stroke-linejoin="round"></path>
    <path d="M70.0002 75.15L52.1802 94.85V86.75L70.0002 67.05" stroke="#A09C9D" stroke-width="3" stroke-linecap="round" stroke-linejoin="round"></path>
    <path d="M47.0198 5.22995L19.5498 35.5999L70.0098 64.9L97.4798 34.5299L47.0298 5.19995V5.22995H47.0198Z" fill="white" stroke="#A09C9D" stroke-width="3" stroke-linecap="round" stroke-linejoin="round"></path>
  </symbol>
  <symbol fill="none" xmlns="http://www.w3.org/2000/svg" viewBox="0 0 100 100" id="Icon-5-Active">
    <path d="M97.5 64.5V72L42 93.5L2 79V72L58 50.5L97.5 64.5Z" fill="white"></path>
    <path d="M97.79 71.9496L42.02 93.4596V86.0696L97.79 64.5596V71.9496Z" stroke="#4D494A" stroke-width="3" stroke-linecap="round" stroke-linejoin="round"></path>
    <path d="M2.20996 71.6198V27.9997L57.98 6.48975V50.1097" fill="white"></path>
    <path d="M2.20996 71.6198V27.9997L57.98 6.48975V50.1097" stroke="#4D494A" stroke-width="3" stroke-linecap="round" stroke-linejoin="round"></path>
    <path d="M42.02 86.0696V80.4896L83.76 64.3896L97.79 64.5596" stroke="#4D494A" stroke-width="3" stroke-linecap="round" stroke-linejoin="round"></path>
    <path d="M2.20996 79.0096L42.02 93.4596V86.0696L2.20996 71.6196V79.0096Z" stroke="#4D494A" stroke-width="3" stroke-linecap="round" stroke-linejoin="round"></path>
    <path d="M57.98 55.0195V62.4095L73.89 68.1995" stroke="#4D494A" stroke-width="3" stroke-linecap="round" stroke-linejoin="round"></path>
    <path d="M57.98 55.0199L15.37 71.4499L2.20996 71.6199L57.98 50.1099V55.0199Z" stroke="#4D494A" stroke-width="3" stroke-linecap="round" stroke-linejoin="round"></path>
    <path d="M97.79 64.5599L57.98 50.1099V55.0299L83.84 64.4199" stroke="#4D494A" stroke-width="3" stroke-linecap="round" stroke-linejoin="round"></path>
    <path d="M15.3701 71.4497L42.0201 80.4897" stroke="#4D494A" stroke-width="3" stroke-linecap="round" stroke-linejoin="round"></path>
    <path d="M57.9802 62.4097L26.9102 75.2297" stroke="#4D494A" stroke-width="3" stroke-linecap="round" stroke-linejoin="round"></path>
    <path d="M14.2002 23.2897V17.3997L21.7402 14.4897V20.3797L14.2002 23.2897Z" fill="white" stroke="#4D494A" stroke-width="3" stroke-linecap="round" stroke-linejoin="round"></path>
    <path d="M39.0898 13.7697V7.87973L46.6298 4.96973V10.8597L39.0898 13.7697Z" fill="white" stroke="#4D494A" stroke-width="3" stroke-linecap="round" stroke-linejoin="round"></path>
  </symbol>
  <symbol fill="none" xmlns="http://www.w3.org/2000/svg" viewBox="0 0 100 100" id="Icon-5-Hover">
    <path d="M97.5 64.5V72L42 93.5L2 79V72L58 50.5L97.5 64.5Z" fill="white"></path>
    <path d="M97.5801 72.9798L41.8101 94.4898V87.0998L97.5801 65.5898V72.9798Z" stroke="#767373" stroke-width="3" stroke-linecap="round" stroke-linejoin="round"></path>
    <path d="M97.5801 72.9798L41.8101 94.4898V87.0998L97.5801 65.5898V72.9798Z" stroke="black" stroke-opacity="0.2" stroke-width="3" stroke-linecap="round" stroke-linejoin="round"></path>
    <path d="M97.5801 72.9798L41.8101 94.4898V87.0998L97.5801 65.5898V72.9798Z" stroke="black" stroke-opacity="0.2" stroke-width="3" stroke-linecap="round" stroke-linejoin="round"></path>
    <path d="M2 72.65V29.03L57.77 7.52002V51.14" fill="white"></path>
    <path d="M2 72.65V29.03L57.77 7.52002V51.14" stroke="#767373" stroke-width="3" stroke-linecap="round" stroke-linejoin="round"></path>
    <path d="M2 72.65V29.03L57.77 7.52002V51.14" stroke="black" stroke-opacity="0.2" stroke-width="3" stroke-linecap="round" stroke-linejoin="round"></path>
    <path d="M2 72.65V29.03L57.77 7.52002V51.14" stroke="black" stroke-opacity="0.2" stroke-width="3" stroke-linecap="round" stroke-linejoin="round"></path>
    <path d="M41.8101 87.0999V81.5199L83.5501 65.4199L97.5801 65.5899" stroke="#767373" stroke-width="3" stroke-linecap="round" stroke-linejoin="round"></path>
    <path d="M41.8101 87.0999V81.5199L83.5501 65.4199L97.5801 65.5899" stroke="black" stroke-opacity="0.2" stroke-width="3" stroke-linecap="round" stroke-linejoin="round"></path>
    <path d="M41.8101 87.0999V81.5199L83.5501 65.4199L97.5801 65.5899" stroke="black" stroke-opacity="0.2" stroke-width="3" stroke-linecap="round" stroke-linejoin="round"></path>
    <path d="M2 80.0399L41.81 94.4899V87.0999L2 72.6499V80.0399Z" stroke="#767373" stroke-width="3" stroke-linecap="round" stroke-linejoin="round"></path>
    <path d="M2 80.0399L41.81 94.4899V87.0999L2 72.6499V80.0399Z" stroke="black" stroke-opacity="0.2" stroke-width="3" stroke-linecap="round" stroke-linejoin="round"></path>
    <path d="M2 80.0399L41.81 94.4899V87.0999L2 72.6499V80.0399Z" stroke="black" stroke-opacity="0.2" stroke-width="3" stroke-linecap="round" stroke-linejoin="round"></path>
    <path d="M57.77 56.0498V63.4398L73.68 69.2298" stroke="#767373" stroke-width="3" stroke-linecap="round" stroke-linejoin="round"></path>
    <path d="M57.77 56.0498V63.4398L73.68 69.2298" stroke="black" stroke-opacity="0.2" stroke-width="3" stroke-linecap="round" stroke-linejoin="round"></path>
    <path d="M57.77 56.0498V63.4398L73.68 69.2298" stroke="black" stroke-opacity="0.2" stroke-width="3" stroke-linecap="round" stroke-linejoin="round"></path>
    <path d="M57.77 56.0501L15.16 72.4801L2 72.6501L57.77 51.1401V56.0501Z" stroke="#767373" stroke-width="3" stroke-linecap="round" stroke-linejoin="round"></path>
    <path d="M57.77 56.0501L15.16 72.4801L2 72.6501L57.77 51.1401V56.0501Z" stroke="black" stroke-opacity="0.2" stroke-width="3" stroke-linecap="round" stroke-linejoin="round"></path>
    <path d="M57.77 56.0501L15.16 72.4801L2 72.6501L57.77 51.1401V56.0501Z" stroke="black" stroke-opacity="0.2" stroke-width="3" stroke-linecap="round" stroke-linejoin="round"></path>
    <path d="M97.58 65.5901L57.77 51.1401V56.0601L83.63 65.4501" stroke="#767373" stroke-width="3" stroke-linecap="round" stroke-linejoin="round"></path>
    <path d="M97.58 65.5901L57.77 51.1401V56.0601L83.63 65.4501" stroke="black" stroke-opacity="0.2" stroke-width="3" stroke-linecap="round" stroke-linejoin="round"></path>
    <path d="M97.58 65.5901L57.77 51.1401V56.0601L83.63 65.4501" stroke="black" stroke-opacity="0.2" stroke-width="3" stroke-linecap="round" stroke-linejoin="round"></path>
    <path d="M15.1602 72.48L41.8102 81.52" stroke="#767373" stroke-width="3" stroke-linecap="round" stroke-linejoin="round"></path>
    <path d="M15.1602 72.48L41.8102 81.52" stroke="black" stroke-opacity="0.2" stroke-width="3" stroke-linecap="round" stroke-linejoin="round"></path>
    <path d="M15.1602 72.48L41.8102 81.52" stroke="black" stroke-opacity="0.2" stroke-width="3" stroke-linecap="round" stroke-linejoin="round"></path>
    <path d="M57.7702 63.4399L26.7002 76.2599" stroke="#767373" stroke-width="3" stroke-linecap="round" stroke-linejoin="round"></path>
    <path d="M57.7702 63.4399L26.7002 76.2599" stroke="black" stroke-opacity="0.2" stroke-width="3" stroke-linecap="round" stroke-linejoin="round"></path>
    <path d="M57.7702 63.4399L26.7002 76.2599" stroke="black" stroke-opacity="0.2" stroke-width="3" stroke-linecap="round" stroke-linejoin="round"></path>
    <path d="M13.9902 24.32V18.43L21.5302 15.52V21.41L13.9902 24.32Z" fill="white"></path>
    <path d="M13.9902 24.32V18.43L21.5302 15.52V21.41L13.9902 24.32Z" stroke="#767373" stroke-width="3" stroke-linecap="round" stroke-linejoin="round"></path>
    <path d="M13.9902 24.32V18.43L21.5302 15.52V21.41L13.9902 24.32Z" stroke="black" stroke-opacity="0.2" stroke-width="3" stroke-linecap="round" stroke-linejoin="round"></path>
    <path d="M13.9902 24.32V18.43L21.5302 15.52V21.41L13.9902 24.32Z" stroke="black" stroke-opacity="0.2" stroke-width="3" stroke-linecap="round" stroke-linejoin="round"></path>
    <path d="M38.8799 14.8V8.91L46.4199 6V11.89L38.8799 14.8Z" fill="white"></path>
    <path d="M38.8799 14.8V8.91L46.4199 6V11.89L38.8799 14.8Z" stroke="#767373" stroke-width="3" stroke-linecap="round" stroke-linejoin="round"></path>
    <path d="M38.8799 14.8V8.91L46.4199 6V11.89L38.8799 14.8Z" stroke="black" stroke-opacity="0.2" stroke-width="3" stroke-linecap="round" stroke-linejoin="round"></path>
    <path d="M38.8799 14.8V8.91L46.4199 6V11.89L38.8799 14.8Z" stroke="black" stroke-opacity="0.2" stroke-width="3" stroke-linecap="round" stroke-linejoin="round"></path>
  </symbol>
  <symbol fill="none" xmlns="http://www.w3.org/2000/svg" viewBox="0 0 100 100" id="Icon-5-Unselected">
    <path d="M97.5 64.5V72L42 93.5L2 79V72L58 50.5L97.5 64.5Z" fill="white"></path>
    <path d="M97.79 71.9496L42.02 93.4596V86.0696L97.79 64.5596V71.9496Z" stroke="#A09C9D" stroke-width="3" stroke-linecap="round" stroke-linejoin="round"></path>
    <path d="M2.20996 71.6198V27.9997L57.98 6.48975V50.1097" fill="white"></path>
    <path d="M2.20996 71.6198V27.9997L57.98 6.48975V50.1097" stroke="#A09C9D" stroke-width="3" stroke-linecap="round" stroke-linejoin="round"></path>
    <path d="M42.02 86.0696V80.4896L83.76 64.3896L97.79 64.5596" stroke="#A09C9D" stroke-width="3" stroke-linecap="round" stroke-linejoin="round"></path>
    <path d="M2.20996 79.0096L42.02 93.4596V86.0696L2.20996 71.6196V79.0096Z" stroke="#A09C9D" stroke-width="3" stroke-linecap="round" stroke-linejoin="round"></path>
    <path d="M57.98 55.0195V62.4095L73.89 68.1995" stroke="#A09C9D" stroke-width="3" stroke-linecap="round" stroke-linejoin="round"></path>
    <path d="M57.98 55.0199L15.37 71.4499L2.20996 71.6199L57.98 50.1099V55.0199Z" stroke="#A09C9D" stroke-width="3" stroke-linecap="round" stroke-linejoin="round"></path>
    <path d="M97.79 64.5599L57.98 50.1099V55.0299L83.84 64.4199" stroke="#A09C9D" stroke-width="3" stroke-linecap="round" stroke-linejoin="round"></path>
    <path d="M15.3701 71.4497L42.0201 80.4897" stroke="#A09C9D" stroke-width="3" stroke-linecap="round" stroke-linejoin="round"></path>
    <path d="M57.9802 62.4097L26.9102 75.2297" stroke="#A09C9D" stroke-width="3" stroke-linecap="round" stroke-linejoin="round"></path>
    <path d="M14.2002 23.2897V17.3997L21.7402 14.4897V20.3797L14.2002 23.2897Z" fill="white" stroke="#A09C9D" stroke-width="3" stroke-linecap="round" stroke-linejoin="round"></path>
    <path d="M39.0898 13.7697V7.87973L46.6298 4.96973V10.8597L39.0898 13.7697Z" fill="white" stroke="#A09C9D" stroke-width="3" stroke-linecap="round" stroke-linejoin="round"></path>
  </symbol>
</svg>