<svg width="0" height="0" class="hidden">
  <symbol fill="none" xmlns="http://www.w3.org/2000/svg" viewBox="0 0 100 100" id="Icon-1-Active">
    <path d="M49.89 7L7.73092 22.9084L49.89 38.8286L92.0491 22.9084L49.89 7Z" stroke="#4D494A" stroke-width="3" stroke-linecap="round" stroke-linejoin="round"></path>
    <path d="M7.73092 37.0598V22.9084L49.89 38.8287V52.98L7.73092 37.0598Z" stroke="#4D494A" stroke-width="3" stroke-linecap="round" stroke-linejoin="round"></path>
    <path d="M92.0491 37.0598V22.9084L49.89 38.8287V52.98L92.0491 37.0598Z" stroke="#4D494A" stroke-width="3" stroke-linecap="round" stroke-linejoin="round"></path>
    <path d="M10.8678 77.9923V37.9441L49.89 52.6732V92.7214L10.8678 77.9923Z" fill="white" stroke="#4D494A" stroke-width="3" stroke-linecap="round" stroke-linejoin="round"></path>
    <path d="M88.924 77.9923V37.9441L49.89 52.6732V92.7214L88.924 77.9923Z" fill="white" stroke="#4D494A" stroke-width="3" stroke-linecap="round" stroke-linejoin="round"></path>
  </symbol>
  <symbol fill="none" xmlns="http://www.w3.org/2000/svg" viewBox="0 0 100 100" id="Icon-1-Hover">
    <path d="M49.89 7L7.73091 22.9084L49.89 38.8286L92.0491 22.9084L49.89 7Z" stroke="#767373" stroke-width="3" stroke-linecap="round" stroke-linejoin="round"></path>
    <path d="M49.89 7L7.73091 22.9084L49.89 38.8286L92.0491 22.9084L49.89 7Z" stroke="black" stroke-opacity="0.2" stroke-width="3" stroke-linecap="round" stroke-linejoin="round"></path>
    <path d="M49.89 7L7.73091 22.9084L49.89 38.8286L92.0491 22.9084L49.89 7Z" stroke="black" stroke-opacity="0.2" stroke-width="3" stroke-linecap="round" stroke-linejoin="round"></path>
    <path d="M7.73091 37.0598V22.9084L49.89 38.8287V52.98L7.73091 37.0598Z" stroke="#767373" stroke-width="3" stroke-linecap="round" stroke-linejoin="round"></path>
    <path d="M7.73091 37.0598V22.9084L49.89 38.8287V52.98L7.73091 37.0598Z" stroke="black" stroke-opacity="0.2" stroke-width="3" stroke-linecap="round" stroke-linejoin="round"></path>
    <path d="M7.73091 37.0598V22.9084L49.89 38.8287V52.98L7.73091 37.0598Z" stroke="black" stroke-opacity="0.2" stroke-width="3" stroke-linecap="round" stroke-linejoin="round"></path>
    <path d="M92.0491 37.0598V22.9084L49.89 38.8287V52.98L92.0491 37.0598Z" stroke="#767373" stroke-width="3" stroke-linecap="round" stroke-linejoin="round"></path>
    <path d="M92.0491 37.0598V22.9084L49.89 38.8287V52.98L92.0491 37.0598Z" stroke="black" stroke-opacity="0.2" stroke-width="3" stroke-linecap="round" stroke-linejoin="round"></path>
    <path d="M92.0491 37.0598V22.9084L49.89 38.8287V52.98L92.0491 37.0598Z" stroke="black" stroke-opacity="0.2" stroke-width="3" stroke-linecap="round" stroke-linejoin="round"></path>
    <path d="M10.8678 77.9923V37.9441L49.89 52.6732V92.7214L10.8678 77.9923Z" fill="white"></path>
    <path d="M10.8678 77.9923V37.9441L49.89 52.6732V92.7214L10.8678 77.9923Z" stroke="#767373" stroke-width="3" stroke-linecap="round" stroke-linejoin="round"></path>
    <path d="M10.8678 77.9923V37.9441L49.89 52.6732V92.7214L10.8678 77.9923Z" stroke="black" stroke-opacity="0.2" stroke-width="3" stroke-linecap="round" stroke-linejoin="round"></path>
    <path d="M10.8678 77.9923V37.9441L49.89 52.6732V92.7214L10.8678 77.9923Z" stroke="black" stroke-opacity="0.2" stroke-width="3" stroke-linecap="round" stroke-linejoin="round"></path>
    <path d="M88.924 77.9923V37.9441L49.89 52.6732V92.7214L88.924 77.9923Z" fill="white"></path>
    <path d="M88.924 77.9923V37.9441L49.89 52.6732V92.7214L88.924 77.9923Z" stroke="#767373" stroke-width="3" stroke-linecap="round" stroke-linejoin="round"></path>
    <path d="M88.924 77.9923V37.9441L49.89 52.6732V92.7214L88.924 77.9923Z" stroke="black" stroke-opacity="0.2" stroke-width="3" stroke-linecap="round" stroke-linejoin="round"></path>
    <path d="M88.924 77.9923V37.9441L49.89 52.6732V92.7214L88.924 77.9923Z" stroke="black" stroke-opacity="0.2" stroke-width="3" stroke-linecap="round" stroke-linejoin="round"></path>
  </symbol>
  <symbol fill="none" xmlns="http://www.w3.org/2000/svg" viewBox="0 0 100 100" id="Icon-1-Unselected">
    <path d="M49.89 7L7.73093 22.9084L49.89 38.8286L92.0491 22.9084L49.89 7Z" stroke="#A09C9D" stroke-width="3" stroke-linecap="round" stroke-linejoin="round"></path>
    <path d="M7.73093 37.0598V22.9084L49.89 38.8287V52.98L7.73093 37.0598Z" stroke="#A09C9D" stroke-width="3" stroke-linecap="round" stroke-linejoin="round"></path>
    <path d="M92.0491 37.0598V22.9084L49.89 38.8287V52.98L92.0491 37.0598Z" stroke="#A09C9D" stroke-width="3" stroke-linecap="round" stroke-linejoin="round"></path>
    <path d="M10.8678 77.9923V37.9441L49.89 52.6732V92.7214L10.8678 77.9923Z" fill="white" stroke="#A09C9D" stroke-width="3" stroke-linecap="round" stroke-linejoin="round"></path>
    <path d="M88.924 77.9923V37.9441L49.89 52.6732V92.7214L88.924 77.9923Z" fill="white" stroke="#A09C9D" stroke-width="3" stroke-linecap="round" stroke-linejoin="round"></path>
  </symbol>
  <symbol fill="none" xmlns="http://www.w3.org/2000/svg" viewBox="0 0 100 100" id="Icon-2-Active">
    <path d="M49.89 6.6001L7.21 22.7101L49.89 38.8201L92.58 22.7101L49.89 6.6001Z" stroke="#4D494A" stroke-width="3" stroke-linecap="round" stroke-linejoin="round"></path>
    <path d="M92.58 37.0402V22.7102L49.89 38.8202V53.1502L92.58 37.0402Z" stroke="#4D494A" stroke-width="3" stroke-linecap="round" stroke-linejoin="round"></path>
    <path d="M10.38 38.24V78.49L49.89 93.4V53.15" fill="white"></path>
    <path d="M10.38 38.24V78.49L49.89 93.4V53.15" stroke="#4D494A" stroke-width="3" stroke-linecap="round" stroke-linejoin="round"></path>
    <path d="M89.41 78.49V38.24L49.89 53.15V93.4L89.41 78.49Z" fill="white" stroke="#4D494A" stroke-width="3" stroke-linecap="round" stroke-linejoin="round"></path>
    <path d="M49.89 38.8202L7.2 22.7102V37.0402L20.46 42.0502L20.56 41.4702C20.8 40.5802 21.27 39.7902 21.98 39.2102C24.26 37.3302 28.14 38.2402 30.63 41.2602C32.01 42.9402 32.68 44.9102 32.6 46.6502L49.88 53.1402V38.8102L49.89 38.8202Z" stroke="#4D494A" stroke-width="3" stroke-linecap="round" stroke-linejoin="round"></path>
  </symbol>
  <symbol fill="none" xmlns="http://www.w3.org/2000/svg" viewBox="0 0 100 100" id="Icon-2-Hover">
    <path d="M49.89 6.6001L7.20999 22.7101L49.89 38.8201L92.58 22.7101L49.89 6.6001Z" stroke="#767373" stroke-width="3" stroke-linecap="round" stroke-linejoin="round"></path>
    <path d="M49.89 6.6001L7.20999 22.7101L49.89 38.8201L92.58 22.7101L49.89 6.6001Z" stroke="black" stroke-opacity="0.2" stroke-width="3" stroke-linecap="round" stroke-linejoin="round"></path>
    <path d="M49.89 6.6001L7.20999 22.7101L49.89 38.8201L92.58 22.7101L49.89 6.6001Z" stroke="black" stroke-opacity="0.2" stroke-width="3" stroke-linecap="round" stroke-linejoin="round"></path>
    <path d="M92.58 37.0402V22.7102L49.89 38.8202V53.1502L92.58 37.0402Z" stroke="#767373" stroke-width="3" stroke-linecap="round" stroke-linejoin="round"></path>
    <path d="M92.58 37.0402V22.7102L49.89 38.8202V53.1502L92.58 37.0402Z" stroke="black" stroke-opacity="0.2" stroke-width="3" stroke-linecap="round" stroke-linejoin="round"></path>
    <path d="M92.58 37.0402V22.7102L49.89 38.8202V53.1502L92.58 37.0402Z" stroke="black" stroke-opacity="0.2" stroke-width="3" stroke-linecap="round" stroke-linejoin="round"></path>
    <path d="M10.38 38.24V78.49L49.89 93.4V53.15" fill="white"></path>
    <path d="M10.38 38.24V78.49L49.89 93.4V53.15" stroke="#767373" stroke-width="3" stroke-linecap="round" stroke-linejoin="round"></path>
    <path d="M10.38 38.24V78.49L49.89 93.4V53.15" stroke="black" stroke-opacity="0.2" stroke-width="3" stroke-linecap="round" stroke-linejoin="round"></path>
    <path d="M10.38 38.24V78.49L49.89 93.4V53.15" stroke="black" stroke-opacity="0.2" stroke-width="3" stroke-linecap="round" stroke-linejoin="round"></path>
    <path d="M89.41 78.49V38.24L49.89 53.15V93.4L89.41 78.49Z" fill="white"></path>
    <path d="M89.41 78.49V38.24L49.89 53.15V93.4L89.41 78.49Z" stroke="#767373" stroke-width="3" stroke-linecap="round" stroke-linejoin="round"></path>
    <path d="M89.41 78.49V38.24L49.89 53.15V93.4L89.41 78.49Z" stroke="black" stroke-opacity="0.2" stroke-width="3" stroke-linecap="round" stroke-linejoin="round"></path>
    <path d="M89.41 78.49V38.24L49.89 53.15V93.4L89.41 78.49Z" stroke="black" stroke-opacity="0.2" stroke-width="3" stroke-linecap="round" stroke-linejoin="round"></path>
    <path d="M49.89 38.8202L7.2 22.7102V37.0402L20.46 42.0502L20.56 41.4702C20.8 40.5802 21.27 39.7902 21.98 39.2102C24.26 37.3302 28.14 38.2402 30.63 41.2602C32.01 42.9402 32.68 44.9102 32.6 46.6502L49.88 53.1402V38.8102L49.89 38.8202Z" stroke="#767373" stroke-width="3" stroke-linecap="round" stroke-linejoin="round"></path>
    <path d="M49.89 38.8202L7.2 22.7102V37.0402L20.46 42.0502L20.56 41.4702C20.8 40.5802 21.27 39.7902 21.98 39.2102C24.26 37.3302 28.14 38.2402 30.63 41.2602C32.01 42.9402 32.68 44.9102 32.6 46.6502L49.88 53.1402V38.8102L49.89 38.8202Z" stroke="black" stroke-opacity="0.2" stroke-width="3" stroke-linecap="round" stroke-linejoin="round"></path>
    <path d="M49.89 38.8202L7.2 22.7102V37.0402L20.46 42.0502L20.56 41.4702C20.8 40.5802 21.27 39.7902 21.98 39.2102C24.26 37.3302 28.14 38.2402 30.63 41.2602C32.01 42.9402 32.68 44.9102 32.6 46.6502L49.88 53.1402V38.8102L49.89 38.8202Z" stroke="black" stroke-opacity="0.2" stroke-width="3" stroke-linecap="round" stroke-linejoin="round"></path>
  </symbol>
  <symbol fill="none" xmlns="http://www.w3.org/2000/svg" viewBox="0 0 100 100" id="Icon-2-Unselected">
    <path d="M49.89 6.6001L7.21002 22.7101L49.89 38.8201L92.58 22.7101L49.89 6.6001Z" stroke="#A09C9D" stroke-width="3" stroke-linecap="round" stroke-linejoin="round"></path>
    <path d="M92.58 37.0402V22.7102L49.89 38.8202V53.1502L92.58 37.0402Z" stroke="#A09C9D" stroke-width="3" stroke-linecap="round" stroke-linejoin="round"></path>
    <path d="M10.38 38.24V78.49L49.89 93.4V53.15" fill="white"></path>
    <path d="M10.38 38.24V78.49L49.89 93.4V53.15" stroke="#A09C9D" stroke-width="3" stroke-linecap="round" stroke-linejoin="round"></path>
    <path d="M89.41 78.49V38.24L49.89 53.15V93.4L89.41 78.49Z" fill="white" stroke="#A09C9D" stroke-width="3" stroke-linecap="round" stroke-linejoin="round"></path>
    <path d="M49.89 38.8202L7.20001 22.7102V37.0402L20.46 42.0502L20.56 41.4702C20.8 40.5802 21.27 39.7902 21.98 39.2102C24.26 37.3302 28.14 38.2402 30.63 41.2602C32.01 42.9402 32.68 44.9102 32.6 46.6502L49.88 53.1402V38.8102L49.89 38.8202Z" stroke="#A09C9D" stroke-width="3" stroke-linecap="round" stroke-linejoin="round"></path>
  </symbol>
  <symbol fill="none" xmlns="http://www.w3.org/2000/svg" viewBox="0 0 100 100" id="Icon-3-Active">
    <path d="M38.4 3.62012L2.02 14.5501L29.15 22.0001L65.53 11.0601L38.4 3.62012Z" stroke="#4D494A" stroke-width="3" stroke-linecap="round" stroke-linejoin="round"></path>
    <path d="M65.53 50.6301V11.0701L29.15 22.0101V63.8401L65.53 50.6301Z" fill="white" stroke="#4D494A" stroke-width="3" stroke-linecap="round" stroke-linejoin="round"></path>
    <path d="M2.02 54.2401V14.55L29.15 22.0001V63.83L2.02 54.2401Z" fill="white" stroke="#4D494A" stroke-width="3" stroke-linecap="round" stroke-linejoin="round"></path>
    <path d="M61.57 60.6402L95.31 47.9102L70.82 38.6602L37.08 51.3902L61.57 60.6402Z" fill="white" stroke="#4D494A" stroke-width="3" stroke-linecap="round" stroke-linejoin="round"></path>
    <path d="M37.08 84.9001V51.3901L61.57 60.6401V96.3801L37.08 84.9101V84.9001Z" fill="white" stroke="#4D494A" stroke-width="3" stroke-linecap="round" stroke-linejoin="round"></path>
    <path d="M95.32 80.3001V47.9001L61.57 60.6302V96.3701L95.32 80.3001Z" fill="white" stroke="#4D494A" stroke-width="3" stroke-linecap="round" stroke-linejoin="round"></path>
    <path d="M97.96 79.31V64.04L61.58 79.4V96.38L97.96 79.31Z" fill="white" stroke="#4D494A" stroke-width="3" stroke-linecap="round" stroke-linejoin="round"></path>
    <path d="M34.44 83.9101V68.6401L61.58 79.4001V96.3801L34.44 83.9101Z" fill="white" stroke="#4D494A" stroke-width="3" stroke-linecap="round" stroke-linejoin="round"></path>
    <path d="M70.82 38.6602L95.31 47.9102L70.82 38.6602Z" fill="white"></path>
    <path d="M70.82 38.6602L95.31 47.9102" stroke="#4D494A" stroke-width="3" stroke-linecap="round" stroke-linejoin="round"></path>
    <path d="M37.07 51.3902L70.82 38.6602L37.07 51.3902Z" fill="white"></path>
    <path d="M37.07 51.3902L70.82 38.6602" stroke="#4D494A" stroke-width="3" stroke-linecap="round" stroke-linejoin="round"></path>
    <path d="M70.81 57.1502V40.4502V57.1502Z" fill="white"></path>
    <path d="M70.81 57.1502V40.4502" stroke="#4D494A" stroke-width="3" stroke-linecap="round" stroke-linejoin="round"></path>
  </symbol>
  <symbol fill="none" xmlns="http://www.w3.org/2000/svg" viewBox="0 0 100 100" id="Icon-3-Hover">
    <path d="M38.4 3.62012L2.02 14.5501L29.15 22.0001L65.53 11.0601L38.4 3.62012Z" stroke="#767373" stroke-width="3" stroke-linecap="round" stroke-linejoin="round"></path>
    <path d="M38.4 3.62012L2.02 14.5501L29.15 22.0001L65.53 11.0601L38.4 3.62012Z" stroke="black" stroke-opacity="0.2" stroke-width="3" stroke-linecap="round" stroke-linejoin="round"></path>
    <path d="M38.4 3.62012L2.02 14.5501L29.15 22.0001L65.53 11.0601L38.4 3.62012Z" stroke="black" stroke-opacity="0.2" stroke-width="3" stroke-linecap="round" stroke-linejoin="round"></path>
    <path d="M65.53 50.6301V11.0701L29.15 22.0101V63.8401L65.53 50.6301Z" fill="white"></path>
    <path d="M65.53 50.6301V11.0701L29.15 22.0101V63.8401L65.53 50.6301Z" stroke="#767373" stroke-width="3" stroke-linecap="round" stroke-linejoin="round"></path>
    <path d="M65.53 50.6301V11.0701L29.15 22.0101V63.8401L65.53 50.6301Z" stroke="black" stroke-opacity="0.2" stroke-width="3" stroke-linecap="round" stroke-linejoin="round"></path>
    <path d="M65.53 50.6301V11.0701L29.15 22.0101V63.8401L65.53 50.6301Z" stroke="black" stroke-opacity="0.2" stroke-width="3" stroke-linecap="round" stroke-linejoin="round"></path>
    <path d="M2.02 54.2401V14.55L29.15 22.0001V63.83L2.02 54.2401Z" fill="white"></path>
    <path d="M2.02 54.2401V14.55L29.15 22.0001V63.83L2.02 54.2401Z" stroke="#767373" stroke-width="3" stroke-linecap="round" stroke-linejoin="round"></path>
    <path d="M2.02 54.2401V14.55L29.15 22.0001V63.83L2.02 54.2401Z" stroke="black" stroke-opacity="0.2" stroke-width="3" stroke-linecap="round" stroke-linejoin="round"></path>
    <path d="M2.02 54.2401V14.55L29.15 22.0001V63.83L2.02 54.2401Z" stroke="black" stroke-opacity="0.2" stroke-width="3" stroke-linecap="round" stroke-linejoin="round"></path>
    <path d="M61.57 60.6402L95.31 47.9102L70.82 38.6602L37.08 51.3902L61.57 60.6402Z" fill="white"></path>
    <path d="M61.57 60.6402L95.31 47.9102L70.82 38.6602L37.08 51.3902L61.57 60.6402Z" stroke="#767373" stroke-width="3" stroke-linecap="round" stroke-linejoin="round"></path>
    <path d="M61.57 60.6402L95.31 47.9102L70.82 38.6602L37.08 51.3902L61.57 60.6402Z" stroke="black" stroke-opacity="0.2" stroke-width="3" stroke-linecap="round" stroke-linejoin="round"></path>
    <path d="M61.57 60.6402L95.31 47.9102L70.82 38.6602L37.08 51.3902L61.57 60.6402Z" stroke="black" stroke-opacity="0.2" stroke-width="3" stroke-linecap="round" stroke-linejoin="round"></path>
    <path d="M37.08 84.9001V51.3901L61.57 60.6401V96.3801L37.08 84.9101V84.9001Z" fill="white"></path>
    <path d="M37.08 84.9001V51.3901L61.57 60.6401V96.3801L37.08 84.9101V84.9001Z" stroke="#767373" stroke-width="3" stroke-linecap="round" stroke-linejoin="round"></path>
    <path d="M37.08 84.9001V51.3901L61.57 60.6401V96.3801L37.08 84.9101V84.9001Z" stroke="black" stroke-opacity="0.2" stroke-width="3" stroke-linecap="round" stroke-linejoin="round"></path>
    <path d="M37.08 84.9001V51.3901L61.57 60.6401V96.3801L37.08 84.9101V84.9001Z" stroke="black" stroke-opacity="0.2" stroke-width="3" stroke-linecap="round" stroke-linejoin="round"></path>
    <path d="M95.32 80.3001V47.9001L61.57 60.6302V96.3701L95.32 80.3001Z" fill="white"></path>
    <path d="M95.32 80.3001V47.9001L61.57 60.6302V96.3701L95.32 80.3001Z" stroke="#767373" stroke-width="3" stroke-linecap="round" stroke-linejoin="round"></path>
    <path d="M95.32 80.3001V47.9001L61.57 60.6302V96.3701L95.32 80.3001Z" stroke="black" stroke-opacity="0.2" stroke-width="3" stroke-linecap="round" stroke-linejoin="round"></path>
    <path d="M95.32 80.3001V47.9001L61.57 60.6302V96.3701L95.32 80.3001Z" stroke="black" stroke-opacity="0.2" stroke-width="3" stroke-linecap="round" stroke-linejoin="round"></path>
    <path d="M97.96 79.31V64.04L61.58 79.4V96.38L97.96 79.31Z" fill="white"></path>
    <path d="M97.96 79.31V64.04L61.58 79.4V96.38L97.96 79.31Z" stroke="#767373" stroke-width="3" stroke-linecap="round" stroke-linejoin="round"></path>
    <path d="M97.96 79.31V64.04L61.58 79.4V96.38L97.96 79.31Z" stroke="black" stroke-opacity="0.2" stroke-width="3" stroke-linecap="round" stroke-linejoin="round"></path>
    <path d="M97.96 79.31V64.04L61.58 79.4V96.38L97.96 79.31Z" stroke="black" stroke-opacity="0.2" stroke-width="3" stroke-linecap="round" stroke-linejoin="round"></path>
    <path d="M34.44 83.9101V68.6401L61.58 79.4001V96.3801L34.44 83.9101Z" fill="white"></path>
    <path d="M34.44 83.9101V68.6401L61.58 79.4001V96.3801L34.44 83.9101Z" stroke="#767373" stroke-width="3" stroke-linecap="round" stroke-linejoin="round"></path>
    <path d="M34.44 83.9101V68.6401L61.58 79.4001V96.3801L34.44 83.9101Z" stroke="black" stroke-opacity="0.2" stroke-width="3" stroke-linecap="round" stroke-linejoin="round"></path>
    <path d="M34.44 83.9101V68.6401L61.58 79.4001V96.3801L34.44 83.9101Z" stroke="black" stroke-opacity="0.2" stroke-width="3" stroke-linecap="round" stroke-linejoin="round"></path>
    <path d="M70.82 38.6602L95.31 47.9102L70.82 38.6602Z" fill="white"></path>
    <path d="M70.82 38.6602L95.31 47.9102" stroke="#767373" stroke-width="3" stroke-linecap="round" stroke-linejoin="round"></path>
    <path d="M70.82 38.6602L95.31 47.9102" stroke="black" stroke-opacity="0.2" stroke-width="3" stroke-linecap="round" stroke-linejoin="round"></path>
    <path d="M70.82 38.6602L95.31 47.9102" stroke="black" stroke-opacity="0.2" stroke-width="3" stroke-linecap="round" stroke-linejoin="round"></path>
    <path d="M37.07 51.3902L70.82 38.6602L37.07 51.3902Z" fill="white"></path>
    <path d="M37.07 51.3902L70.82 38.6602" stroke="#767373" stroke-width="3" stroke-linecap="round" stroke-linejoin="round"></path>
    <path d="M37.07 51.3902L70.82 38.6602" stroke="black" stroke-opacity="0.2" stroke-width="3" stroke-linecap="round" stroke-linejoin="round"></path>
    <path d="M37.07 51.3902L70.82 38.6602" stroke="black" stroke-opacity="0.2" stroke-width="3" stroke-linecap="round" stroke-linejoin="round"></path>
    <path d="M70.81 57.1502V40.4502V57.1502Z" fill="white"></path>
    <path d="M70.81 57.1502V40.4502" stroke="#767373" stroke-width="3" stroke-linecap="round" stroke-linejoin="round"></path>
    <path d="M70.81 57.1502V40.4502" stroke="black" stroke-opacity="0.2" stroke-width="3" stroke-linecap="round" stroke-linejoin="round"></path>
    <path d="M70.81 57.1502V40.4502" stroke="black" stroke-opacity="0.2" stroke-width="3" stroke-linecap="round" stroke-linejoin="round"></path>
  </symbol>
  <symbol fill="none" xmlns="http://www.w3.org/2000/svg" viewBox="0 0 100 100" id="Icon-3-Unselected">
    <path d="M38.4 3.62012L2.01999 14.5501L29.15 22.0001L65.53 11.0601L38.4 3.62012Z" stroke="#A09C9D" stroke-width="3" stroke-linecap="round" stroke-linejoin="round"></path>
    <path d="M65.53 50.6301V11.0701L29.15 22.0101V63.8401L65.53 50.6301Z" fill="white" stroke="#A09C9D" stroke-width="3" stroke-linecap="round" stroke-linejoin="round"></path>
    <path d="M2.01999 54.2401V14.55L29.15 22.0001V63.83L2.01999 54.2401Z" fill="white" stroke="#A09C9D" stroke-width="3" stroke-linecap="round" stroke-linejoin="round"></path>
    <path d="M61.57 60.6402L95.31 47.9102L70.82 38.6602L37.08 51.3902L61.57 60.6402Z" fill="white" stroke="#A09C9D" stroke-width="3" stroke-linecap="round" stroke-linejoin="round"></path>
    <path d="M37.08 84.9001V51.3901L61.57 60.6401V96.3801L37.08 84.9101V84.9001Z" fill="white" stroke="#A09C9D" stroke-width="3" stroke-linecap="round" stroke-linejoin="round"></path>
    <path d="M95.32 80.3001V47.9001L61.57 60.6302V96.3701L95.32 80.3001Z" fill="white" stroke="#A09C9D" stroke-width="3" stroke-linecap="round" stroke-linejoin="round"></path>
    <path d="M97.96 79.31V64.04L61.58 79.4V96.38L97.96 79.31Z" fill="white" stroke="#A09C9D" stroke-width="3" stroke-linecap="round" stroke-linejoin="round"></path>
    <path d="M34.44 83.9101V68.6401L61.58 79.4001V96.3801L34.44 83.9101Z" fill="white" stroke="#A09C9D" stroke-width="3" stroke-linecap="round" stroke-linejoin="round"></path>
    <path d="M70.82 38.6602L95.31 47.9102L70.82 38.6602Z" fill="white"></path>
    <path d="M70.82 38.6602L95.31 47.9102" stroke="#A09C9D" stroke-width="3" stroke-linecap="round" stroke-linejoin="round"></path>
    <path d="M37.07 51.3902L70.82 38.6602L37.07 51.3902Z" fill="white"></path>
    <path d="M37.07 51.3902L70.82 38.6602" stroke="#A09C9D" stroke-width="3" stroke-linecap="round" stroke-linejoin="round"></path>
    <path d="M70.81 57.1502V40.4502V57.1502Z" fill="white"></path>
    <path d="M70.81 57.1502V40.4502" stroke="#A09C9D" stroke-width="3" stroke-linecap="round" stroke-linejoin="round"></path>
  </symbol>
  <symbol fill="none" xmlns="http://www.w3.org/2000/svg" viewBox="0 0 100 100" id="Icon-4-Active">
    <path d="M13.09 83.7201V34.9001L50 86.1301V97.6501L13.09 83.7201Z" fill="white" stroke="#4D494A" stroke-width="3" stroke-linecap="round" stroke-linejoin="round"></path>
    <path d="M86.92 83.72V72.8101L50 86.1301V97.6501L86.92 83.72Z" fill="white" stroke="#4D494A" stroke-width="3" stroke-linecap="round" stroke-linejoin="round"></path>
    <path d="M50 2.3501L10.12 17.4001L50 32.4601L89.88 17.4001L50 2.3501Z" stroke="#4D494A" stroke-width="3" stroke-linecap="round" stroke-linejoin="round"></path>
    <path d="M10.12 30.7802V17.3901L50 32.4501V86.1201L10.12 30.7802Z" fill="white" stroke="#4D494A" stroke-width="3" stroke-linecap="round" stroke-linejoin="round"></path>
    <path d="M89.88 71.7501V17.4001L50 32.4601V86.1301L89.88 71.7501Z" fill="white" stroke="#4D494A" stroke-width="3" stroke-linecap="round" stroke-linejoin="round"></path>
  </symbol>
  <symbol fill="none" xmlns="http://www.w3.org/2000/svg" viewBox="0 0 100 100" id="Icon-4-Hover">
    <path d="M13.09 83.7201V34.9001L50 86.1301V97.6501L13.09 83.7201Z" fill="white"></path>
    <path d="M13.09 83.7201V34.9001L50 86.1301V97.6501L13.09 83.7201Z" stroke="#767373" stroke-width="3" stroke-linecap="round" stroke-linejoin="round"></path>
    <path d="M13.09 83.7201V34.9001L50 86.1301V97.6501L13.09 83.7201Z" stroke="black" stroke-opacity="0.2" stroke-width="3" stroke-linecap="round" stroke-linejoin="round"></path>
    <path d="M13.09 83.7201V34.9001L50 86.1301V97.6501L13.09 83.7201Z" stroke="black" stroke-opacity="0.2" stroke-width="3" stroke-linecap="round" stroke-linejoin="round"></path>
    <path d="M86.92 83.72V72.8101L50 86.1301V97.6501L86.92 83.72Z" fill="white"></path>
    <path d="M86.92 83.72V72.8101L50 86.1301V97.6501L86.92 83.72Z" stroke="#767373" stroke-width="3" stroke-linecap="round" stroke-linejoin="round"></path>
    <path d="M86.92 83.72V72.8101L50 86.1301V97.6501L86.92 83.72Z" stroke="black" stroke-opacity="0.2" stroke-width="3" stroke-linecap="round" stroke-linejoin="round"></path>
    <path d="M86.92 83.72V72.8101L50 86.1301V97.6501L86.92 83.72Z" stroke="black" stroke-opacity="0.2" stroke-width="3" stroke-linecap="round" stroke-linejoin="round"></path>
    <path d="M50 2.3501L10.12 17.4001L50 32.4601L89.88 17.4001L50 2.3501Z" stroke="#767373" stroke-width="3" stroke-linecap="round" stroke-linejoin="round"></path>
    <path d="M50 2.3501L10.12 17.4001L50 32.4601L89.88 17.4001L50 2.3501Z" stroke="black" stroke-opacity="0.2" stroke-width="3" stroke-linecap="round" stroke-linejoin="round"></path>
    <path d="M50 2.3501L10.12 17.4001L50 32.4601L89.88 17.4001L50 2.3501Z" stroke="black" stroke-opacity="0.2" stroke-width="3" stroke-linecap="round" stroke-linejoin="round"></path>
    <path d="M10.12 30.7802V17.3901L50 32.4501V86.1201L10.12 30.7802Z" fill="white"></path>
    <path d="M10.12 30.7802V17.3901L50 32.4501V86.1201L10.12 30.7802Z" stroke="#767373" stroke-width="3" stroke-linecap="round" stroke-linejoin="round"></path>
    <path d="M10.12 30.7802V17.3901L50 32.4501V86.1201L10.12 30.7802Z" stroke="black" stroke-opacity="0.2" stroke-width="3" stroke-linecap="round" stroke-linejoin="round"></path>
    <path d="M10.12 30.7802V17.3901L50 32.4501V86.1201L10.12 30.7802Z" stroke="black" stroke-opacity="0.2" stroke-width="3" stroke-linecap="round" stroke-linejoin="round"></path>
    <path d="M89.88 71.7501V17.4001L50 32.4601V86.1301L89.88 71.7501Z" fill="white"></path>
    <path d="M89.88 71.7501V17.4001L50 32.4601V86.1301L89.88 71.7501Z" stroke="#767373" stroke-width="3" stroke-linecap="round" stroke-linejoin="round"></path>
    <path d="M89.88 71.7501V17.4001L50 32.4601V86.1301L89.88 71.7501Z" stroke="black" stroke-opacity="0.2" stroke-width="3" stroke-linecap="round" stroke-linejoin="round"></path>
    <path d="M89.88 71.7501V17.4001L50 32.4601V86.1301L89.88 71.7501Z" stroke="black" stroke-opacity="0.2" stroke-width="3" stroke-linecap="round" stroke-linejoin="round"></path>
  </symbol>
  <symbol fill="none" xmlns="http://www.w3.org/2000/svg" viewBox="0 0 100 100" id="Icon-4-Unselected">
    <path d="M13.09 83.7201V34.9001L50 86.1301V97.6501L13.09 83.7201Z" fill="white" stroke="#A09C9D" stroke-width="3" stroke-linecap="round" stroke-linejoin="round"></path>
    <path d="M86.92 83.72V72.8101L50 86.1301V97.6501L86.92 83.72Z" fill="white" stroke="#A09C9D" stroke-width="3" stroke-linecap="round" stroke-linejoin="round"></path>
    <path d="M50 2.3501L10.12 17.4001L50 32.4601L89.88 17.4001L50 2.3501Z" stroke="#A09C9D" stroke-width="3" stroke-linecap="round" stroke-linejoin="round"></path>
    <path d="M10.12 30.7802V17.3901L50 32.4501V86.1201L10.12 30.7802Z" fill="white" stroke="#A09C9D" stroke-width="3" stroke-linecap="round" stroke-linejoin="round"></path>
    <path d="M89.88 71.7501V17.4001L50 32.4601V86.1301L89.88 71.7501Z" fill="white" stroke="#A09C9D" stroke-width="3" stroke-linecap="round" stroke-linejoin="round"></path>
  </symbol>
  <symbol fill="none" xmlns="http://www.w3.org/2000/svg" viewBox="0 0 100 100" id="Icon-5-Active">
    <path d="M50 58.1799L2.2 76.2199L50 94.27L97.8 76.2199L50 58.1799Z" fill="white" stroke="#4D494A" stroke-width="3" stroke-linecap="round" stroke-linejoin="round"></path>
    <path d="M10.57 35.9101V27.6401L50 42.5302V50.8001L10.57 35.9101Z" stroke="#4D494A" stroke-width="3" stroke-linecap="round" stroke-linejoin="round"></path>
    <path d="M89.43 35.9101V27.6401L50 42.5302V50.8001L89.43 35.9101Z" stroke="#4D494A" stroke-width="3" stroke-linecap="round" stroke-linejoin="round"></path>
    <path d="M13.51 74.1902V36.7402L50 50.5103V87.9603L13.51 74.1902Z" fill="white" stroke="#4D494A" stroke-width="3" stroke-linecap="round" stroke-linejoin="round"></path>
    <path d="M86.51 74.1902V36.7402L50.01 50.5103V87.9603L86.51 74.1902Z" fill="white" stroke="#4D494A" stroke-width="3" stroke-linecap="round" stroke-linejoin="round"></path>
    <path d="M50 5.73999L2.2 23.78L50 41.83L97.8 23.78L50 5.73999Z" stroke="#4D494A" stroke-width="3" stroke-linecap="round" stroke-linejoin="round"></path>
  </symbol>
  <symbol fill="none" xmlns="http://www.w3.org/2000/svg" viewBox="0 0 100 100" id="Icon-5-Hover">
    <path d="M50 58.1799L2.2 76.2199L50 94.27L97.8 76.2199L50 58.1799Z" fill="white"></path>
    <path d="M50 58.1799L2.2 76.2199L50 94.27L97.8 76.2199L50 58.1799Z" stroke="#767373" stroke-width="3" stroke-linecap="round" stroke-linejoin="round"></path>
    <path d="M50 58.1799L2.2 76.2199L50 94.27L97.8 76.2199L50 58.1799Z" stroke="black" stroke-opacity="0.2" stroke-width="3" stroke-linecap="round" stroke-linejoin="round"></path>
    <path d="M50 58.1799L2.2 76.2199L50 94.27L97.8 76.2199L50 58.1799Z" stroke="black" stroke-opacity="0.2" stroke-width="3" stroke-linecap="round" stroke-linejoin="round"></path>
    <path d="M10.57 35.9101V27.6401L50 42.5302V50.8001L10.57 35.9101Z" stroke="#767373" stroke-width="3" stroke-linecap="round" stroke-linejoin="round"></path>
    <path d="M10.57 35.9101V27.6401L50 42.5302V50.8001L10.57 35.9101Z" stroke="black" stroke-opacity="0.2" stroke-width="3" stroke-linecap="round" stroke-linejoin="round"></path>
    <path d="M10.57 35.9101V27.6401L50 42.5302V50.8001L10.57 35.9101Z" stroke="black" stroke-opacity="0.2" stroke-width="3" stroke-linecap="round" stroke-linejoin="round"></path>
    <path d="M89.43 35.9101V27.6401L50 42.5302V50.8001L89.43 35.9101Z" stroke="#767373" stroke-width="3" stroke-linecap="round" stroke-linejoin="round"></path>
    <path d="M89.43 35.9101V27.6401L50 42.5302V50.8001L89.43 35.9101Z" stroke="black" stroke-opacity="0.2" stroke-width="3" stroke-linecap="round" stroke-linejoin="round"></path>
    <path d="M89.43 35.9101V27.6401L50 42.5302V50.8001L89.43 35.9101Z" stroke="black" stroke-opacity="0.2" stroke-width="3" stroke-linecap="round" stroke-linejoin="round"></path>
    <path d="M13.51 74.1902V36.7402L50 50.5103V87.9603L13.51 74.1902Z" fill="white"></path>
    <path d="M13.51 74.1902V36.7402L50 50.5103V87.9603L13.51 74.1902Z" stroke="#767373" stroke-width="3" stroke-linecap="round" stroke-linejoin="round"></path>
    <path d="M13.51 74.1902V36.7402L50 50.5103V87.9603L13.51 74.1902Z" stroke="black" stroke-opacity="0.2" stroke-width="3" stroke-linecap="round" stroke-linejoin="round"></path>
    <path d="M13.51 74.1902V36.7402L50 50.5103V87.9603L13.51 74.1902Z" stroke="black" stroke-opacity="0.2" stroke-width="3" stroke-linecap="round" stroke-linejoin="round"></path>
    <path d="M86.51 74.1902V36.7402L50.01 50.5103V87.9603L86.51 74.1902Z" fill="white"></path>
    <path d="M86.51 74.1902V36.7402L50.01 50.5103V87.9603L86.51 74.1902Z" stroke="#767373" stroke-width="3" stroke-linecap="round" stroke-linejoin="round"></path>
    <path d="M86.51 74.1902V36.7402L50.01 50.5103V87.9603L86.51 74.1902Z" stroke="black" stroke-opacity="0.2" stroke-width="3" stroke-linecap="round" stroke-linejoin="round"></path>
    <path d="M86.51 74.1902V36.7402L50.01 50.5103V87.9603L86.51 74.1902Z" stroke="black" stroke-opacity="0.2" stroke-width="3" stroke-linecap="round" stroke-linejoin="round"></path>
    <path d="M50 5.73999L2.2 23.78L50 41.83L97.8 23.78L50 5.73999Z" stroke="#767373" stroke-width="3" stroke-linecap="round" stroke-linejoin="round"></path>
    <path d="M50 5.73999L2.2 23.78L50 41.83L97.8 23.78L50 5.73999Z" stroke="black" stroke-opacity="0.2" stroke-width="3" stroke-linecap="round" stroke-linejoin="round"></path>
    <path d="M50 5.73999L2.2 23.78L50 41.83L97.8 23.78L50 5.73999Z" stroke="black" stroke-opacity="0.2" stroke-width="3" stroke-linecap="round" stroke-linejoin="round"></path>
  </symbol>
  <symbol fill="none" xmlns="http://www.w3.org/2000/svg" viewBox="0 0 100 100" id="Icon-5-Unselected">
    <path d="M50 58.1799L2.20001 76.2199L50 94.27L97.8 76.2199L50 58.1799Z" fill="white" stroke="#A09C9D" stroke-width="3" stroke-linecap="round" stroke-linejoin="round"></path>
    <path d="M10.57 35.9101V27.6401L50 42.5302V50.8001L10.57 35.9101Z" stroke="#A09C9D" stroke-width="3" stroke-linecap="round" stroke-linejoin="round"></path>
    <path d="M89.43 35.9101V27.6401L50 42.5302V50.8001L89.43 35.9101Z" stroke="#A09C9D" stroke-width="3" stroke-linecap="round" stroke-linejoin="round"></path>
    <path d="M13.51 74.1902V36.7402L50 50.5103V87.9603L13.51 74.1902Z" fill="white" stroke="#A09C9D" stroke-width="3" stroke-linecap="round" stroke-linejoin="round"></path>
    <path d="M86.51 74.1902V36.7402L50.01 50.5103V87.9603L86.51 74.1902Z" fill="white" stroke="#A09C9D" stroke-width="3" stroke-linecap="round" stroke-linejoin="round"></path>
    <path d="M50 5.73999L2.20001 23.78L50 41.83L97.8 23.78L50 5.73999Z" stroke="#A09C9D" stroke-width="3" stroke-linecap="round" stroke-linejoin="round"></path>
  </symbol>
  <symbol fill="none" xmlns="http://www.w3.org/2000/svg" viewBox="0 0 100 100" id="Icon-6-Active">
    <path d="M38.44 3.79004L2.2 14.6801L29.24 22.1L65.48 11.2001L38.44 3.79004Z" stroke="#4D494A" stroke-width="3" stroke-linecap="round" stroke-linejoin="round"></path>
    <path d="M65.48 50.6202V11.2002L29.24 22.1002V63.7702L65.48 50.6102V50.6202Z" fill="white" stroke="#4D494A" stroke-width="3" stroke-linecap="round" stroke-linejoin="round"></path>
    <path d="M2.2 54.2299V14.6899L29.24 22.1099V63.78L2.2 54.2199V54.2299Z" fill="white" stroke="#4D494A" stroke-width="3" stroke-linecap="round" stroke-linejoin="round"></path>
    <path d="M61.53 60.6L95.15 47.91L70.74 38.7L37.13 51.39L61.53 60.6Z" fill="white" stroke="#4D494A" stroke-width="3" stroke-linecap="round" stroke-linejoin="round"></path>
    <path d="M37.13 84.7802V51.3901L61.53 60.6001V96.2001L37.13 84.7701V84.7802Z" fill="white" stroke="#4D494A" stroke-width="3" stroke-linecap="round" stroke-linejoin="round"></path>
    <path d="M95.15 80.1901V47.9102L61.53 60.6001V96.2001L95.15 80.1901Z" fill="white" stroke="#4D494A" stroke-width="3" stroke-linecap="round" stroke-linejoin="round"></path>
    <path d="M97.79 79.2V63.99L61.54 79.29V96.21L97.79 79.2Z" fill="white" stroke="#4D494A" stroke-width="3" stroke-linecap="round" stroke-linejoin="round"></path>
    <path d="M34.49 83.7802V68.5701L61.53 79.2902V96.2101L34.49 83.7902V83.7802Z" fill="white" stroke="#4D494A" stroke-width="3" stroke-linecap="round" stroke-linejoin="round"></path>
    <path d="M70.74 38.7L95.14 47.91L70.74 38.7Z" fill="white"></path>
    <path d="M70.74 38.7L95.14 47.91" stroke="#4D494A" stroke-width="3" stroke-linecap="round" stroke-linejoin="round"></path>
    <path d="M37.12 51.39L70.74 38.7L37.12 51.39Z" fill="white"></path>
    <path d="M37.12 51.39L70.74 38.7" stroke="#4D494A" stroke-width="3" stroke-linecap="round" stroke-linejoin="round"></path>
    <path d="M70.74 52.38V43.4399V52.38Z" fill="white"></path>
    <path d="M70.74 52.38V43.4399" stroke="#4D494A" stroke-width="3" stroke-linecap="round" stroke-linejoin="round"></path>
    <path d="M49.69 51.39L70.74 43.4399L82.58 47.91L61.53 55.86L49.69 51.39Z" stroke="#4D494A" stroke-width="3" stroke-linecap="round" stroke-linejoin="round"></path>
  </symbol>
  <symbol fill="none" xmlns="http://www.w3.org/2000/svg" viewBox="0 0 100 100" id="Icon-6-Hover">
    <path d="M38.44 3.79004L2.2 14.6801L29.24 22.1L65.48 11.2001L38.44 3.79004Z" stroke="#767373" stroke-width="3" stroke-linecap="round" stroke-linejoin="round"></path>
    <path d="M38.44 3.79004L2.2 14.6801L29.24 22.1L65.48 11.2001L38.44 3.79004Z" stroke="black" stroke-opacity="0.2" stroke-width="3" stroke-linecap="round" stroke-linejoin="round"></path>
    <path d="M38.44 3.79004L2.2 14.6801L29.24 22.1L65.48 11.2001L38.44 3.79004Z" stroke="black" stroke-opacity="0.2" stroke-width="3" stroke-linecap="round" stroke-linejoin="round"></path>
    <path d="M65.48 50.6202V11.2002L29.24 22.1002V63.7702L65.48 50.6102V50.6202Z" fill="white"></path>
    <path d="M65.48 50.6202V11.2002L29.24 22.1002V63.7702L65.48 50.6102V50.6202Z" stroke="#767373" stroke-width="3" stroke-linecap="round" stroke-linejoin="round"></path>
    <path d="M65.48 50.6202V11.2002L29.24 22.1002V63.7702L65.48 50.6102V50.6202Z" stroke="black" stroke-opacity="0.2" stroke-width="3" stroke-linecap="round" stroke-linejoin="round"></path>
    <path d="M65.48 50.6202V11.2002L29.24 22.1002V63.7702L65.48 50.6102V50.6202Z" stroke="black" stroke-opacity="0.2" stroke-width="3" stroke-linecap="round" stroke-linejoin="round"></path>
    <path d="M2.2 54.2299V14.6899L29.24 22.1099V63.78L2.2 54.2199V54.2299Z" fill="white"></path>
    <path d="M2.2 54.2299V14.6899L29.24 22.1099V63.78L2.2 54.2199V54.2299Z" stroke="#767373" stroke-width="3" stroke-linecap="round" stroke-linejoin="round"></path>
    <path d="M2.2 54.2299V14.6899L29.24 22.1099V63.78L2.2 54.2199V54.2299Z" stroke="black" stroke-opacity="0.2" stroke-width="3" stroke-linecap="round" stroke-linejoin="round"></path>
    <path d="M2.2 54.2299V14.6899L29.24 22.1099V63.78L2.2 54.2199V54.2299Z" stroke="black" stroke-opacity="0.2" stroke-width="3" stroke-linecap="round" stroke-linejoin="round"></path>
    <path d="M61.53 60.6L95.15 47.91L70.74 38.7L37.13 51.39L61.53 60.6Z" fill="white"></path>
    <path d="M61.53 60.6L95.15 47.91L70.74 38.7L37.13 51.39L61.53 60.6Z" stroke="#767373" stroke-width="3" stroke-linecap="round" stroke-linejoin="round"></path>
    <path d="M61.53 60.6L95.15 47.91L70.74 38.7L37.13 51.39L61.53 60.6Z" stroke="black" stroke-opacity="0.2" stroke-width="3" stroke-linecap="round" stroke-linejoin="round"></path>
    <path d="M61.53 60.6L95.15 47.91L70.74 38.7L37.13 51.39L61.53 60.6Z" stroke="black" stroke-opacity="0.2" stroke-width="3" stroke-linecap="round" stroke-linejoin="round"></path>
    <path d="M37.13 84.7802V51.3901L61.53 60.6001V96.2001L37.13 84.7701V84.7802Z" fill="white"></path>
    <path d="M37.13 84.7802V51.3901L61.53 60.6001V96.2001L37.13 84.7701V84.7802Z" stroke="#767373" stroke-width="3" stroke-linecap="round" stroke-linejoin="round"></path>
    <path d="M37.13 84.7802V51.3901L61.53 60.6001V96.2001L37.13 84.7701V84.7802Z" stroke="black" stroke-opacity="0.2" stroke-width="3" stroke-linecap="round" stroke-linejoin="round"></path>
    <path d="M37.13 84.7802V51.3901L61.53 60.6001V96.2001L37.13 84.7701V84.7802Z" stroke="black" stroke-opacity="0.2" stroke-width="3" stroke-linecap="round" stroke-linejoin="round"></path>
    <path d="M95.15 80.1901V47.9102L61.53 60.6001V96.2001L95.15 80.1901Z" fill="white"></path>
    <path d="M95.15 80.1901V47.9102L61.53 60.6001V96.2001L95.15 80.1901Z" stroke="#767373" stroke-width="3" stroke-linecap="round" stroke-linejoin="round"></path>
    <path d="M95.15 80.1901V47.9102L61.53 60.6001V96.2001L95.15 80.1901Z" stroke="black" stroke-opacity="0.2" stroke-width="3" stroke-linecap="round" stroke-linejoin="round"></path>
    <path d="M95.15 80.1901V47.9102L61.53 60.6001V96.2001L95.15 80.1901Z" stroke="black" stroke-opacity="0.2" stroke-width="3" stroke-linecap="round" stroke-linejoin="round"></path>
    <path d="M97.79 79.2V63.99L61.54 79.29V96.21L97.79 79.2Z" fill="white"></path>
    <path d="M97.79 79.2V63.99L61.54 79.29V96.21L97.79 79.2Z" stroke="#767373" stroke-width="3" stroke-linecap="round" stroke-linejoin="round"></path>
    <path d="M97.79 79.2V63.99L61.54 79.29V96.21L97.79 79.2Z" stroke="black" stroke-opacity="0.2" stroke-width="3" stroke-linecap="round" stroke-linejoin="round"></path>
    <path d="M97.79 79.2V63.99L61.54 79.29V96.21L97.79 79.2Z" stroke="black" stroke-opacity="0.2" stroke-width="3" stroke-linecap="round" stroke-linejoin="round"></path>
    <path d="M34.49 83.7802V68.5701L61.53 79.2902V96.2101L34.49 83.7902V83.7802Z" fill="white"></path>
    <path d="M34.49 83.7802V68.5701L61.53 79.2902V96.2101L34.49 83.7902V83.7802Z" stroke="#767373" stroke-width="3" stroke-linecap="round" stroke-linejoin="round"></path>
    <path d="M34.49 83.7802V68.5701L61.53 79.2902V96.2101L34.49 83.7902V83.7802Z" stroke="black" stroke-opacity="0.2" stroke-width="3" stroke-linecap="round" stroke-linejoin="round"></path>
    <path d="M34.49 83.7802V68.5701L61.53 79.2902V96.2101L34.49 83.7902V83.7802Z" stroke="black" stroke-opacity="0.2" stroke-width="3" stroke-linecap="round" stroke-linejoin="round"></path>
    <path d="M70.74 38.7L95.14 47.91L70.74 38.7Z" fill="white"></path>
    <path d="M70.74 38.7L95.14 47.91" stroke="#767373" stroke-width="3" stroke-linecap="round" stroke-linejoin="round"></path>
    <path d="M70.74 38.7L95.14 47.91" stroke="black" stroke-opacity="0.2" stroke-width="3" stroke-linecap="round" stroke-linejoin="round"></path>
    <path d="M70.74 38.7L95.14 47.91" stroke="black" stroke-opacity="0.2" stroke-width="3" stroke-linecap="round" stroke-linejoin="round"></path>
    <path d="M37.12 51.39L70.74 38.7L37.12 51.39Z" fill="white"></path>
    <path d="M37.12 51.39L70.74 38.7" stroke="#767373" stroke-width="3" stroke-linecap="round" stroke-linejoin="round"></path>
    <path d="M37.12 51.39L70.74 38.7" stroke="black" stroke-opacity="0.2" stroke-width="3" stroke-linecap="round" stroke-linejoin="round"></path>
    <path d="M37.12 51.39L70.74 38.7" stroke="black" stroke-opacity="0.2" stroke-width="3" stroke-linecap="round" stroke-linejoin="round"></path>
    <path d="M70.74 52.38V43.4399V52.38Z" fill="white"></path>
    <path d="M70.74 52.38V43.4399" stroke="#767373" stroke-width="3" stroke-linecap="round" stroke-linejoin="round"></path>
    <path d="M70.74 52.38V43.4399" stroke="black" stroke-opacity="0.2" stroke-width="3" stroke-linecap="round" stroke-linejoin="round"></path>
    <path d="M70.74 52.38V43.4399" stroke="black" stroke-opacity="0.2" stroke-width="3" stroke-linecap="round" stroke-linejoin="round"></path>
    <path d="M49.69 51.39L70.74 43.4399L82.58 47.91L61.53 55.86L49.69 51.39Z" stroke="#767373" stroke-width="3" stroke-linecap="round" stroke-linejoin="round"></path>
    <path d="M49.69 51.39L70.74 43.4399L82.58 47.91L61.53 55.86L49.69 51.39Z" stroke="black" stroke-opacity="0.2" stroke-width="3" stroke-linecap="round" stroke-linejoin="round"></path>
    <path d="M49.69 51.39L70.74 43.4399L82.58 47.91L61.53 55.86L49.69 51.39Z" stroke="black" stroke-opacity="0.2" stroke-width="3" stroke-linecap="round" stroke-linejoin="round"></path>
  </symbol>
  <symbol fill="none" xmlns="http://www.w3.org/2000/svg" viewBox="0 0 100 100" id="Icon-6-Unselected">
    <path d="M38.44 3.79004L2.20001 14.6801L29.24 22.1L65.48 11.2001L38.44 3.79004Z" stroke="#A09C9D" stroke-width="3" stroke-linecap="round" stroke-linejoin="round"></path>
    <path d="M65.48 50.6202V11.2002L29.24 22.1002V63.7702L65.48 50.6102V50.6202Z" fill="white" stroke="#A09C9D" stroke-width="3" stroke-linecap="round" stroke-linejoin="round"></path>
    <path d="M2.20001 54.2299V14.6899L29.24 22.1099V63.78L2.20001 54.2199V54.2299Z" fill="white" stroke="#A09C9D" stroke-width="3" stroke-linecap="round" stroke-linejoin="round"></path>
    <path d="M61.53 60.6L95.15 47.91L70.74 38.7L37.13 51.39L61.53 60.6Z" fill="white" stroke="#A09C9D" stroke-width="3" stroke-linecap="round" stroke-linejoin="round"></path>
    <path d="M37.13 84.7802V51.3901L61.53 60.6001V96.2001L37.13 84.7701V84.7802Z" fill="white" stroke="#A09C9D" stroke-width="3" stroke-linecap="round" stroke-linejoin="round"></path>
    <path d="M95.15 80.1901V47.9102L61.53 60.6001V96.2001L95.15 80.1901Z" fill="white" stroke="#A09C9D" stroke-width="3" stroke-linecap="round" stroke-linejoin="round"></path>
    <path d="M97.79 79.2V63.99L61.54 79.29V96.21L97.79 79.2Z" fill="white" stroke="#A09C9D" stroke-width="3" stroke-linecap="round" stroke-linejoin="round"></path>
    <path d="M34.49 83.7802V68.5701L61.53 79.2902V96.2101L34.49 83.7902V83.7802Z" fill="white" stroke="#A09C9D" stroke-width="3" stroke-linecap="round" stroke-linejoin="round"></path>
    <path d="M70.74 38.7L95.14 47.91L70.74 38.7Z" fill="white"></path>
    <path d="M70.74 38.7L95.14 47.91" stroke="#A09C9D" stroke-width="3" stroke-linecap="round" stroke-linejoin="round"></path>
    <path d="M37.12 51.39L70.74 38.7L37.12 51.39Z" fill="white"></path>
    <path d="M37.12 51.39L70.74 38.7" stroke="#A09C9D" stroke-width="3" stroke-linecap="round" stroke-linejoin="round"></path>
    <path d="M70.74 52.38V43.4399V52.38Z" fill="white"></path>
    <path d="M70.74 52.38V43.4399" stroke="#A09C9D" stroke-width="3" stroke-linecap="round" stroke-linejoin="round"></path>
    <path d="M49.69 51.39L70.74 43.4399L82.58 47.91L61.53 55.86L49.69 51.39Z" stroke="#A09C9D" stroke-width="3" stroke-linecap="round" stroke-linejoin="round"></path>
  </symbol>
</svg>