<svg width="0" height="0" class="hidden">
  <symbol fill="none" xmlns="http://www.w3.org/2000/svg" viewBox="0 0 100 100" id="Icon-2-Hover">
    <path d="M29.13 70.6001L44.66 64.6101L70.32 74.6701L54.79 80.6601L29.13 70.6001Z" fill="white"></path>
    <path d="M29.13 70.6001L44.66 64.6101L70.32 74.6701L54.79 80.6601L29.13 70.6001Z" stroke="#767373" stroke-width="3" stroke-linecap="round" stroke-linejoin="round"></path>
    <path d="M29.13 70.6001L44.66 64.6101L70.32 74.6701L54.79 80.6601L29.13 70.6001Z" stroke="black" stroke-opacity="0.2" stroke-width="3" stroke-linecap="round" stroke-linejoin="round"></path>
    <path d="M29.13 70.6001L44.66 64.6101L70.32 74.6701L54.79 80.6601L29.13 70.6001Z" stroke="black" stroke-opacity="0.2" stroke-width="3" stroke-linecap="round" stroke-linejoin="round"></path>
    <path d="M54.78 97.9601L6.88 79.1801V61.8701L54.78 80.6601V97.9601Z" fill="white"></path>
    <path d="M54.78 97.9601L6.88 79.1801V61.8701L54.78 80.6601V97.9601Z" stroke="#767373" stroke-width="3" stroke-linecap="round" stroke-linejoin="round"></path>
    <path d="M54.78 97.9601L6.88 79.1801V61.8701L54.78 80.6601V97.9601Z" stroke="black" stroke-opacity="0.2" stroke-width="3" stroke-linecap="round" stroke-linejoin="round"></path>
    <path d="M54.78 97.9601L6.88 79.1801V61.8701L54.78 80.6601V97.9601Z" stroke="black" stroke-opacity="0.2" stroke-width="3" stroke-linecap="round" stroke-linejoin="round"></path>
    <path d="M77.83 20.8201L29.92 2.04004L44.65 16.23L92.56 35.01L77.83 20.8201Z" stroke="#767373" stroke-width="3" stroke-linecap="round" stroke-linejoin="round"></path>
    <path d="M77.83 20.8201L29.92 2.04004L44.65 16.23L92.56 35.01L77.83 20.8201Z" stroke="black" stroke-opacity="0.2" stroke-width="3" stroke-linecap="round" stroke-linejoin="round"></path>
    <path d="M77.83 20.8201L29.92 2.04004L44.65 16.23L92.56 35.01L77.83 20.8201Z" stroke="black" stroke-opacity="0.2" stroke-width="3" stroke-linecap="round" stroke-linejoin="round"></path>
    <path d="M92.56 83.3901L54.78 97.9601V80.6601L92.56 66.0801V83.3901Z" fill="white"></path>
    <path d="M92.56 83.3901L54.78 97.9601V80.6601L92.56 66.0801V83.3901Z" stroke="#767373" stroke-width="3" stroke-linecap="round" stroke-linejoin="round"></path>
    <path d="M92.56 83.3901L54.78 97.9601V80.6601L92.56 66.0801V83.3901Z" stroke="black" stroke-opacity="0.2" stroke-width="3" stroke-linecap="round" stroke-linejoin="round"></path>
    <path d="M92.56 83.3901L54.78 97.9601V80.6601L92.56 66.0801V83.3901Z" stroke="black" stroke-opacity="0.2" stroke-width="3" stroke-linecap="round" stroke-linejoin="round"></path>
    <path d="M70.31 74.6701L44.65 64.61V47.3L92.56 66.08L70.31 74.6701Z" fill="white"></path>
    <path d="M70.31 74.6701L44.65 64.61V47.3L92.56 66.08L70.31 74.6701Z" stroke="#767373" stroke-width="3" stroke-linecap="round" stroke-linejoin="round"></path>
    <path d="M70.31 74.6701L44.65 64.61V47.3L92.56 66.08L70.31 74.6701Z" stroke="black" stroke-opacity="0.2" stroke-width="3" stroke-linecap="round" stroke-linejoin="round"></path>
    <path d="M70.31 74.6701L44.65 64.61V47.3L92.56 66.08L70.31 74.6701Z" stroke="black" stroke-opacity="0.2" stroke-width="3" stroke-linecap="round" stroke-linejoin="round"></path>
    <path d="M44.65 64.61L29.13 70.6001L6.88 61.87L44.65 47.3V64.61Z" fill="white"></path>
    <path d="M44.65 64.61L29.13 70.6001L6.88 61.87L44.65 47.3V64.61Z" stroke="#767373" stroke-width="3" stroke-linecap="round" stroke-linejoin="round"></path>
    <path d="M44.65 64.61L29.13 70.6001L6.88 61.87L44.65 47.3V64.61Z" stroke="black" stroke-opacity="0.2" stroke-width="3" stroke-linecap="round" stroke-linejoin="round"></path>
    <path d="M44.65 64.61L29.13 70.6001L6.88 61.87L44.65 47.3V64.61Z" stroke="black" stroke-opacity="0.2" stroke-width="3" stroke-linecap="round" stroke-linejoin="round"></path>
    <path d="M44.65 16.23L92.56 35.01V66.08L44.65 47.3V16.23Z" stroke="#767373" stroke-width="3" stroke-linecap="round" stroke-linejoin="round"></path>
    <path d="M44.65 16.23L92.56 35.01V66.08L44.65 47.3V16.23Z" stroke="black" stroke-opacity="0.2" stroke-width="3" stroke-linecap="round" stroke-linejoin="round"></path>
    <path d="M44.65 16.23L92.56 35.01V66.08L44.65 47.3V16.23Z" stroke="black" stroke-opacity="0.2" stroke-width="3" stroke-linecap="round" stroke-linejoin="round"></path>
    <path d="M59.56 44.5499L77.65 51.6499V37.7599L59.56 30.6699V44.5499Z" stroke="#767373" stroke-width="3" stroke-linecap="round" stroke-linejoin="round"></path>
    <path d="M59.56 44.5499L77.65 51.6499V37.7599L59.56 30.6699V44.5499Z" stroke="black" stroke-opacity="0.2" stroke-width="3" stroke-linecap="round" stroke-linejoin="round"></path>
    <path d="M59.56 44.5499L77.65 51.6499V37.7599L59.56 30.6699V44.5499Z" stroke="black" stroke-opacity="0.2" stroke-width="3" stroke-linecap="round" stroke-linejoin="round"></path>
  </symbol>
  <symbol fill="none" xmlns="http://www.w3.org/2000/svg" viewBox="0 0 100 100" id="Icon-2-Unselected">
    <path d="M29.13 70.6001L44.66 64.6101L70.32 74.6701L54.79 80.6601L29.13 70.6001Z" fill="white" stroke="#A09C9D" stroke-width="3" stroke-linecap="round" stroke-linejoin="round"></path>
    <path d="M54.78 97.9601L6.88 79.1801V61.8701L54.78 80.6601V97.9601Z" fill="white" stroke="#A09C9D" stroke-width="3" stroke-linecap="round" stroke-linejoin="round"></path>
    <path d="M77.83 20.8201L29.92 2.04004L44.65 16.23L92.56 35.01L77.83 20.8201Z" stroke="#A09C9D" stroke-width="3" stroke-linecap="round" stroke-linejoin="round"></path>
    <path d="M92.56 83.3901L54.78 97.9601V80.6601L92.56 66.0801V83.3901Z" fill="white" stroke="#A09C9D" stroke-width="3" stroke-linecap="round" stroke-linejoin="round"></path>
    <path d="M70.31 74.6701L44.65 64.61V47.3L92.56 66.08L70.31 74.6701Z" fill="white" stroke="#A09C9D" stroke-width="3" stroke-linecap="round" stroke-linejoin="round"></path>
    <path d="M44.65 64.61L29.13 70.6001L6.88 61.87L44.65 47.3V64.61Z" fill="white" stroke="#A09C9D" stroke-width="3" stroke-linecap="round" stroke-linejoin="round"></path>
    <path d="M44.65 16.23L92.56 35.01V66.08L44.65 47.3V16.23Z" stroke="#A09C9D" stroke-width="3" stroke-linecap="round" stroke-linejoin="round"></path>
    <path d="M59.56 44.5499L77.65 51.6499V37.7599L59.56 30.6699V44.5499Z" stroke="#A09C9D" stroke-width="3" stroke-linecap="round" stroke-linejoin="round"></path>
  </symbol>
  <symbol fill="none" xmlns="http://www.w3.org/2000/svg" viewBox="0 0 100 100" id="Icon-3-Active">
    <path d="M54.78 90.84L6.88 72.05V54.75L54.78 73.53V90.84Z" fill="white" stroke="#4D494A" stroke-width="3" stroke-linecap="round" stroke-linejoin="round"></path>
    <path d="M92.56 76.26L54.78 90.84V73.53L92.56 58.96V76.26Z" fill="white" stroke="#4D494A" stroke-width="3" stroke-linecap="round" stroke-linejoin="round"></path>
    <path d="M29.13 63.47L44.66 57.48L70.32 67.54L54.79 73.53L29.13 63.47Z" fill="white" stroke="#4D494A" stroke-width="3" stroke-linecap="round" stroke-linejoin="round"></path>
    <path d="M70.31 67.5399L44.65 57.4799V40.1799L92.56 58.9599L70.31 67.5399Z" fill="white" stroke="#4D494A" stroke-width="3" stroke-linecap="round" stroke-linejoin="round"></path>
    <path d="M44.65 57.4799L29.13 63.4699L6.88 54.7499L44.65 40.1799V57.4799Z" fill="white" stroke="#4D494A" stroke-width="3" stroke-linecap="round" stroke-linejoin="round"></path>
    <path d="M44.65 9.10986L55.16 18.2199C57.21 19.9999 60.05 20.5499 62.62 19.6699C66.7 18.2699 71.12 20.5299 72.38 24.6599L73.91 29.6899C75.5 34.9099 81.9 36.8199 86.09 33.3099L92.56 27.8899V58.9599L44.65 40.1799V9.10986Z" stroke="#4D494A" stroke-width="3" stroke-linecap="round" stroke-linejoin="round"></path>
  </symbol>
  <symbol fill="none" xmlns="http://www.w3.org/2000/svg" viewBox="0 0 100 100" id="Icon-3-Hover">
    <path d="M54.78 90.84L6.88 72.05V54.75L54.78 73.53V90.84Z" fill="white"></path>
    <path d="M54.78 90.84L6.88 72.05V54.75L54.78 73.53V90.84Z" stroke="#767373" stroke-width="3" stroke-linecap="round" stroke-linejoin="round"></path>
    <path d="M54.78 90.84L6.88 72.05V54.75L54.78 73.53V90.84Z" stroke="black" stroke-opacity="0.2" stroke-width="3" stroke-linecap="round" stroke-linejoin="round"></path>
    <path d="M54.78 90.84L6.88 72.05V54.75L54.78 73.53V90.84Z" stroke="black" stroke-opacity="0.2" stroke-width="3" stroke-linecap="round" stroke-linejoin="round"></path>
    <path d="M92.56 76.26L54.78 90.84V73.53L92.56 58.96V76.26Z" fill="white"></path>
    <path d="M92.56 76.26L54.78 90.84V73.53L92.56 58.96V76.26Z" stroke="#767373" stroke-width="3" stroke-linecap="round" stroke-linejoin="round"></path>
    <path d="M92.56 76.26L54.78 90.84V73.53L92.56 58.96V76.26Z" stroke="black" stroke-opacity="0.2" stroke-width="3" stroke-linecap="round" stroke-linejoin="round"></path>
    <path d="M92.56 76.26L54.78 90.84V73.53L92.56 58.96V76.26Z" stroke="black" stroke-opacity="0.2" stroke-width="3" stroke-linecap="round" stroke-linejoin="round"></path>
    <path d="M29.13 63.47L44.66 57.48L70.32 67.54L54.79 73.53L29.13 63.47Z" fill="white"></path>
    <path d="M29.13 63.47L44.66 57.48L70.32 67.54L54.79 73.53L29.13 63.47Z" stroke="#767373" stroke-width="3" stroke-linecap="round" stroke-linejoin="round"></path>
    <path d="M29.13 63.47L44.66 57.48L70.32 67.54L54.79 73.53L29.13 63.47Z" stroke="black" stroke-opacity="0.2" stroke-width="3" stroke-linecap="round" stroke-linejoin="round"></path>
    <path d="M29.13 63.47L44.66 57.48L70.32 67.54L54.79 73.53L29.13 63.47Z" stroke="black" stroke-opacity="0.2" stroke-width="3" stroke-linecap="round" stroke-linejoin="round"></path>
    <path d="M70.31 67.5399L44.65 57.4799V40.1799L92.56 58.9599L70.31 67.5399Z" fill="white"></path>
    <path d="M70.31 67.5399L44.65 57.4799V40.1799L92.56 58.9599L70.31 67.5399Z" stroke="#767373" stroke-width="3" stroke-linecap="round" stroke-linejoin="round"></path>
    <path d="M70.31 67.5399L44.65 57.4799V40.1799L92.56 58.9599L70.31 67.5399Z" stroke="black" stroke-opacity="0.2" stroke-width="3" stroke-linecap="round" stroke-linejoin="round"></path>
    <path d="M70.31 67.5399L44.65 57.4799V40.1799L92.56 58.9599L70.31 67.5399Z" stroke="black" stroke-opacity="0.2" stroke-width="3" stroke-linecap="round" stroke-linejoin="round"></path>
    <path d="M44.65 57.4799L29.13 63.4699L6.88 54.7499L44.65 40.1799V57.4799Z" fill="white"></path>
    <path d="M44.65 57.4799L29.13 63.4699L6.88 54.7499L44.65 40.1799V57.4799Z" stroke="#767373" stroke-width="3" stroke-linecap="round" stroke-linejoin="round"></path>
    <path d="M44.65 57.4799L29.13 63.4699L6.88 54.7499L44.65 40.1799V57.4799Z" stroke="black" stroke-opacity="0.2" stroke-width="3" stroke-linecap="round" stroke-linejoin="round"></path>
    <path d="M44.65 57.4799L29.13 63.4699L6.88 54.7499L44.65 40.1799V57.4799Z" stroke="black" stroke-opacity="0.2" stroke-width="3" stroke-linecap="round" stroke-linejoin="round"></path>
    <path d="M44.65 9.10986L55.16 18.2199C57.21 19.9999 60.05 20.5499 62.62 19.6699C66.7 18.2699 71.12 20.5299 72.38 24.6599L73.91 29.6899C75.5 34.9099 81.9 36.8199 86.09 33.3099L92.56 27.8899V58.9599L44.65 40.1799V9.10986Z" stroke="#767373" stroke-width="3" stroke-linecap="round" stroke-linejoin="round"></path>
    <path d="M44.65 9.10986L55.16 18.2199C57.21 19.9999 60.05 20.5499 62.62 19.6699C66.7 18.2699 71.12 20.5299 72.38 24.6599L73.91 29.6899C75.5 34.9099 81.9 36.8199 86.09 33.3099L92.56 27.8899V58.9599L44.65 40.1799V9.10986Z" stroke="black" stroke-opacity="0.2" stroke-width="3" stroke-linecap="round" stroke-linejoin="round"></path>
    <path d="M44.65 9.10986L55.16 18.2199C57.21 19.9999 60.05 20.5499 62.62 19.6699C66.7 18.2699 71.12 20.5299 72.38 24.6599L73.91 29.6899C75.5 34.9099 81.9 36.8199 86.09 33.3099L92.56 27.8899V58.9599L44.65 40.1799V9.10986Z" stroke="black" stroke-opacity="0.2" stroke-width="3" stroke-linecap="round" stroke-linejoin="round"></path>
  </symbol>
  <symbol fill="none" xmlns="http://www.w3.org/2000/svg" viewBox="0 0 100 100" id="Icon-3-Unselected">
    <path d="M54.78 90.84L6.88 72.05V54.75L54.78 73.53V90.84Z" fill="white" stroke="#A09C9D" stroke-width="3" stroke-linecap="round" stroke-linejoin="round"></path>
    <path d="M92.56 76.26L54.78 90.84V73.53L92.56 58.96V76.26Z" fill="white" stroke="#A09C9D" stroke-width="3" stroke-linecap="round" stroke-linejoin="round"></path>
    <path d="M29.13 63.47L44.66 57.48L70.32 67.54L54.79 73.53L29.13 63.47Z" fill="white" stroke="#A09C9D" stroke-width="3" stroke-linecap="round" stroke-linejoin="round"></path>
    <path d="M70.31 67.5399L44.65 57.4799V40.1799L92.56 58.9599L70.31 67.5399Z" fill="white" stroke="#A09C9D" stroke-width="3" stroke-linecap="round" stroke-linejoin="round"></path>
    <path d="M44.65 57.4799L29.13 63.4699L6.88 54.7499L44.65 40.1799V57.4799Z" fill="white" stroke="#A09C9D" stroke-width="3" stroke-linecap="round" stroke-linejoin="round"></path>
    <path d="M44.65 9.10986L55.16 18.2199C57.21 19.9999 60.05 20.5499 62.62 19.6699C66.7 18.2699 71.12 20.5299 72.38 24.6599L73.91 29.6899C75.5 34.9099 81.9 36.8199 86.09 33.3099L92.56 27.8899V58.9599L44.65 40.1799V9.10986Z" stroke="#A09C9D" stroke-width="3" stroke-linecap="round" stroke-linejoin="round"></path>
  </symbol>
  <symbol fill="none" xmlns="http://www.w3.org/2000/svg" viewBox="0 0 100 100" id="Icon-4-Active">
    <path d="M55.63 77.22L2.28998 56.3V37.04L55.63 57.9501V77.22Z" fill="white" stroke="#4D494A" stroke-width="3" stroke-linecap="round" stroke-linejoin="round"></path>
    <path d="M97.7 52.02L55.63 77.22V57.95L97.7 32.76V52.02Z" fill="white" stroke="#4D494A" stroke-width="3" stroke-linecap="round" stroke-linejoin="round"></path>
    <path d="M45.92 15.0601L2.29999 37.0301L55.64 57.9401L97.71 32.7501L45.93 15.05L45.92 15.0601Z" fill="white" stroke="#4D494A" stroke-width="3" stroke-linecap="round" stroke-linejoin="round"></path>
    <path d="M3.41998 77.22C16.86 75.3 26.43 54.5401 28.59 55.6301C28.59 55.6301 35.33 77.2201 16.42 87.8301" stroke="#4D494A" stroke-width="3" stroke-linecap="round" stroke-linejoin="round"></path>
  </symbol>
  <symbol fill="none" xmlns="http://www.w3.org/2000/svg" viewBox="0 0 100 100" id="Icon-4-Hover">
    <path d="M55.63 77.22L2.28998 56.3V37.04L55.63 57.9501V77.22Z" fill="white"></path>
    <path d="M55.63 77.22L2.28998 56.3V37.04L55.63 57.9501V77.22Z" stroke="#767373" stroke-width="3" stroke-linecap="round" stroke-linejoin="round"></path>
    <path d="M55.63 77.22L2.28998 56.3V37.04L55.63 57.9501V77.22Z" stroke="black" stroke-opacity="0.2" stroke-width="3" stroke-linecap="round" stroke-linejoin="round"></path>
    <path d="M55.63 77.22L2.28998 56.3V37.04L55.63 57.9501V77.22Z" stroke="black" stroke-opacity="0.2" stroke-width="3" stroke-linecap="round" stroke-linejoin="round"></path>
    <path d="M97.7 52.02L55.63 77.22V57.95L97.7 32.76V52.02Z" fill="white"></path>
    <path d="M97.7 52.02L55.63 77.22V57.95L97.7 32.76V52.02Z" stroke="#767373" stroke-width="3" stroke-linecap="round" stroke-linejoin="round"></path>
    <path d="M97.7 52.02L55.63 77.22V57.95L97.7 32.76V52.02Z" stroke="black" stroke-opacity="0.2" stroke-width="3" stroke-linecap="round" stroke-linejoin="round"></path>
    <path d="M97.7 52.02L55.63 77.22V57.95L97.7 32.76V52.02Z" stroke="black" stroke-opacity="0.2" stroke-width="3" stroke-linecap="round" stroke-linejoin="round"></path>
    <path d="M45.92 15.0601L2.29999 37.0301L55.64 57.9401L97.71 32.7501L45.93 15.05L45.92 15.0601Z" fill="white"></path>
    <path d="M45.92 15.0601L2.29999 37.0301L55.64 57.9401L97.71 32.7501L45.93 15.05L45.92 15.0601Z" stroke="#767373" stroke-width="3" stroke-linecap="round" stroke-linejoin="round"></path>
    <path d="M45.92 15.0601L2.29999 37.0301L55.64 57.9401L97.71 32.7501L45.93 15.05L45.92 15.0601Z" stroke="black" stroke-opacity="0.2" stroke-width="3" stroke-linecap="round" stroke-linejoin="round"></path>
    <path d="M45.92 15.0601L2.29999 37.0301L55.64 57.9401L97.71 32.7501L45.93 15.05L45.92 15.0601Z" stroke="black" stroke-opacity="0.2" stroke-width="3" stroke-linecap="round" stroke-linejoin="round"></path>
    <path d="M3.41998 77.22C16.86 75.3 26.43 54.5401 28.59 55.6301C28.59 55.6301 35.33 77.2201 16.42 87.8301" stroke="#767373" stroke-width="3" stroke-linecap="round" stroke-linejoin="round"></path>
    <path d="M3.41998 77.22C16.86 75.3 26.43 54.5401 28.59 55.6301C28.59 55.6301 35.33 77.2201 16.42 87.8301" stroke="black" stroke-opacity="0.2" stroke-width="3" stroke-linecap="round" stroke-linejoin="round"></path>
    <path d="M3.41998 77.22C16.86 75.3 26.43 54.5401 28.59 55.6301C28.59 55.6301 35.33 77.2201 16.42 87.8301" stroke="black" stroke-opacity="0.2" stroke-width="3" stroke-linecap="round" stroke-linejoin="round"></path>
  </symbol>
  <symbol fill="none" xmlns="http://www.w3.org/2000/svg" viewBox="0 0 100 100" id="Icon-4-Unselected">
    <path d="M55.63 77.22L2.28998 56.3V37.04L55.63 57.9501V77.22Z" fill="white" stroke="#A09C9D" stroke-width="3" stroke-linecap="round" stroke-linejoin="round"></path>
    <path d="M97.7 52.02L55.63 77.22V57.95L97.7 32.76V52.02Z" fill="white" stroke="#A09C9D" stroke-width="3" stroke-linecap="round" stroke-linejoin="round"></path>
    <path d="M45.92 15.0601L2.29999 37.0301L55.64 57.9401L97.71 32.7501L45.93 15.05L45.92 15.0601Z" fill="white" stroke="#A09C9D" stroke-width="3" stroke-linecap="round" stroke-linejoin="round"></path>
    <path d="M3.41998 77.22C16.86 75.3 26.43 54.5401 28.59 55.6301C28.59 55.6301 35.33 77.2201 16.42 87.8301" stroke="#A09C9D" stroke-width="3" stroke-linecap="round" stroke-linejoin="round"></path>
  </symbol>
  <symbol fill="none" xmlns="http://www.w3.org/2000/svg" viewBox="0 0 100 100" id="Icon-1-Active">
    <path d="M29.13 63.4702L44.66 57.4802L70.32 67.5402L54.79 73.5302L29.13 63.4702Z" fill="white" stroke="#4D494A" stroke-width="3" stroke-linecap="round" stroke-linejoin="round"></path>
    <path d="M54.78 90.84L6.88 72.05V54.75L54.78 73.53V90.84Z" fill="white" stroke="#4D494A" stroke-width="3" stroke-linecap="round" stroke-linejoin="round"></path>
    <path d="M77.83 33.7001L29.92 14.9101L44.65 9.11011L92.56 27.8901L77.83 33.7001Z" stroke="#4D494A" stroke-width="3" stroke-linecap="round" stroke-linejoin="round"></path>
    <path d="M92.56 76.2602L54.78 90.8402V73.5302L92.56 58.9602V76.2602Z" fill="white" stroke="#4D494A" stroke-width="3" stroke-linecap="round" stroke-linejoin="round"></path>
    <path d="M70.31 67.5402L44.65 57.4802V40.1802L92.56 58.9602L70.31 67.5402Z" fill="white" stroke="#4D494A" stroke-width="3" stroke-linecap="round" stroke-linejoin="round"></path>
    <path d="M44.65 57.4802L29.13 63.4702L6.88 54.7502L44.65 40.1802V57.4802Z" fill="white" stroke="#4D494A" stroke-width="3" stroke-linecap="round" stroke-linejoin="round"></path>
    <path d="M44.65 9.11011L92.56 27.8901V58.9601L44.65 40.1801V20.6901" stroke="#4D494A" stroke-width="3" stroke-linecap="round" stroke-linejoin="round"></path>
  </symbol>
  <symbol fill="none" xmlns="http://www.w3.org/2000/svg" viewBox="0 0 100 100" id="Icon-1-Hover">
    <path d="M29.13 63.4702L44.66 57.4802L70.32 67.5402L54.79 73.5302L29.13 63.4702Z" fill="white"></path>
    <path d="M29.13 63.4702L44.66 57.4802L70.32 67.5402L54.79 73.5302L29.13 63.4702Z" stroke="#767373" stroke-width="3" stroke-linecap="round" stroke-linejoin="round"></path>
    <path d="M29.13 63.4702L44.66 57.4802L70.32 67.5402L54.79 73.5302L29.13 63.4702Z" stroke="black" stroke-opacity="0.2" stroke-width="3" stroke-linecap="round" stroke-linejoin="round"></path>
    <path d="M29.13 63.4702L44.66 57.4802L70.32 67.5402L54.79 73.5302L29.13 63.4702Z" stroke="black" stroke-opacity="0.2" stroke-width="3" stroke-linecap="round" stroke-linejoin="round"></path>
    <path d="M54.78 90.84L6.88 72.05V54.75L54.78 73.53V90.84Z" fill="white"></path>
    <path d="M54.78 90.84L6.88 72.05V54.75L54.78 73.53V90.84Z" stroke="#767373" stroke-width="3" stroke-linecap="round" stroke-linejoin="round"></path>
    <path d="M54.78 90.84L6.88 72.05V54.75L54.78 73.53V90.84Z" stroke="black" stroke-opacity="0.2" stroke-width="3" stroke-linecap="round" stroke-linejoin="round"></path>
    <path d="M54.78 90.84L6.88 72.05V54.75L54.78 73.53V90.84Z" stroke="black" stroke-opacity="0.2" stroke-width="3" stroke-linecap="round" stroke-linejoin="round"></path>
    <path d="M77.83 33.7001L29.92 14.9101L44.65 9.11011L92.56 27.8901L77.83 33.7001Z" stroke="#767373" stroke-width="3" stroke-linecap="round" stroke-linejoin="round"></path>
    <path d="M77.83 33.7001L29.92 14.9101L44.65 9.11011L92.56 27.8901L77.83 33.7001Z" stroke="black" stroke-opacity="0.2" stroke-width="3" stroke-linecap="round" stroke-linejoin="round"></path>
    <path d="M77.83 33.7001L29.92 14.9101L44.65 9.11011L92.56 27.8901L77.83 33.7001Z" stroke="black" stroke-opacity="0.2" stroke-width="3" stroke-linecap="round" stroke-linejoin="round"></path>
    <path d="M92.56 76.2602L54.78 90.8402V73.5302L92.56 58.9602V76.2602Z" fill="white"></path>
    <path d="M92.56 76.2602L54.78 90.8402V73.5302L92.56 58.9602V76.2602Z" stroke="#767373" stroke-width="3" stroke-linecap="round" stroke-linejoin="round"></path>
    <path d="M92.56 76.2602L54.78 90.8402V73.5302L92.56 58.9602V76.2602Z" stroke="black" stroke-opacity="0.2" stroke-width="3" stroke-linecap="round" stroke-linejoin="round"></path>
    <path d="M92.56 76.2602L54.78 90.8402V73.5302L92.56 58.9602V76.2602Z" stroke="black" stroke-opacity="0.2" stroke-width="3" stroke-linecap="round" stroke-linejoin="round"></path>
    <path d="M70.31 67.5402L44.65 57.4802V40.1802L92.56 58.9602L70.31 67.5402Z" fill="white"></path>
    <path d="M70.31 67.5402L44.65 57.4802V40.1802L92.56 58.9602L70.31 67.5402Z" stroke="#767373" stroke-width="3" stroke-linecap="round" stroke-linejoin="round"></path>
    <path d="M70.31 67.5402L44.65 57.4802V40.1802L92.56 58.9602L70.31 67.5402Z" stroke="black" stroke-opacity="0.2" stroke-width="3" stroke-linecap="round" stroke-linejoin="round"></path>
    <path d="M70.31 67.5402L44.65 57.4802V40.1802L92.56 58.9602L70.31 67.5402Z" stroke="black" stroke-opacity="0.2" stroke-width="3" stroke-linecap="round" stroke-linejoin="round"></path>
    <path d="M44.65 57.4802L29.13 63.4702L6.88 54.7502L44.65 40.1802V57.4802Z" fill="white"></path>
    <path d="M44.65 57.4802L29.13 63.4702L6.88 54.7502L44.65 40.1802V57.4802Z" stroke="#767373" stroke-width="3" stroke-linecap="round" stroke-linejoin="round"></path>
    <path d="M44.65 57.4802L29.13 63.4702L6.88 54.7502L44.65 40.1802V57.4802Z" stroke="black" stroke-opacity="0.2" stroke-width="3" stroke-linecap="round" stroke-linejoin="round"></path>
    <path d="M44.65 57.4802L29.13 63.4702L6.88 54.7502L44.65 40.1802V57.4802Z" stroke="black" stroke-opacity="0.2" stroke-width="3" stroke-linecap="round" stroke-linejoin="round"></path>
    <path d="M44.65 9.11011L92.56 27.8901V58.9601L44.65 40.1801V20.6901" stroke="#767373" stroke-width="3" stroke-linecap="round" stroke-linejoin="round"></path>
    <path d="M44.65 9.11011L92.56 27.8901V58.9601L44.65 40.1801V20.6901" stroke="black" stroke-opacity="0.2" stroke-width="3" stroke-linecap="round" stroke-linejoin="round"></path>
    <path d="M44.65 9.11011L92.56 27.8901V58.9601L44.65 40.1801V20.6901" stroke="black" stroke-opacity="0.2" stroke-width="3" stroke-linecap="round" stroke-linejoin="round"></path>
  </symbol>
  <symbol fill="none" xmlns="http://www.w3.org/2000/svg" viewBox="0 0 100 100" id="Icon-1-Unselected">
    <path d="M29.13 63.4702L44.66 57.4802L70.32 67.5402L54.79 73.5302L29.13 63.4702Z" fill="white" stroke="#A09C9D" stroke-width="3" stroke-linecap="round" stroke-linejoin="round"></path>
    <path d="M54.78 90.84L6.88 72.05V54.75L54.78 73.53V90.84Z" fill="white" stroke="#A09C9D" stroke-width="3" stroke-linecap="round" stroke-linejoin="round"></path>
    <path d="M77.83 33.7001L29.92 14.9101L44.65 9.11011L92.56 27.8901L77.83 33.7001Z" stroke="#A09C9D" stroke-width="3" stroke-linecap="round" stroke-linejoin="round"></path>
    <path d="M92.56 76.2602L54.78 90.8402V73.5302L92.56 58.9602V76.2602Z" fill="white" stroke="#A09C9D" stroke-width="3" stroke-linecap="round" stroke-linejoin="round"></path>
    <path d="M70.31 67.5402L44.65 57.4802V40.1802L92.56 58.9602L70.31 67.5402Z" fill="white" stroke="#A09C9D" stroke-width="3" stroke-linecap="round" stroke-linejoin="round"></path>
    <path d="M44.65 57.4802L29.13 63.4702L6.88 54.7502L44.65 40.1802V57.4802Z" fill="white" stroke="#A09C9D" stroke-width="3" stroke-linecap="round" stroke-linejoin="round"></path>
    <path d="M44.65 9.11011L92.56 27.8901V58.9601L44.65 40.1801V20.6901" stroke="#A09C9D" stroke-width="3" stroke-linecap="round" stroke-linejoin="round"></path>
  </symbol>
  <symbol fill="none" xmlns="http://www.w3.org/2000/svg" viewBox="0 0 100 100" id="Icon-2-Active">
    <path d="M29.13 70.6001L44.66 64.6101L70.32 74.6701L54.79 80.6601L29.13 70.6001Z" fill="white" stroke="#4D494A" stroke-width="3" stroke-linecap="round" stroke-linejoin="round"></path>
    <path d="M54.78 97.9601L6.88 79.1801V61.8701L54.78 80.6601V97.9601Z" fill="white" stroke="#4D494A" stroke-width="3" stroke-linecap="round" stroke-linejoin="round"></path>
    <path d="M77.83 20.8201L29.92 2.04004L44.65 16.23L92.56 35.01L77.83 20.8201Z" stroke="#4D494A" stroke-width="3" stroke-linecap="round" stroke-linejoin="round"></path>
    <path d="M92.56 83.3901L54.78 97.9601V80.6601L92.56 66.0801V83.3901Z" fill="white" stroke="#4D494A" stroke-width="3" stroke-linecap="round" stroke-linejoin="round"></path>
    <path d="M70.31 74.6701L44.65 64.61V47.3L92.56 66.08L70.31 74.6701Z" fill="white" stroke="#4D494A" stroke-width="3" stroke-linecap="round" stroke-linejoin="round"></path>
    <path d="M44.65 64.61L29.13 70.6001L6.88 61.87L44.65 47.3V64.61Z" fill="white" stroke="#4D494A" stroke-width="3" stroke-linecap="round" stroke-linejoin="round"></path>
    <path d="M44.65 16.23L92.56 35.01V66.08L44.65 47.3V16.23Z" stroke="#4D494A" stroke-width="3" stroke-linecap="round" stroke-linejoin="round"></path>
    <path d="M59.56 44.5499L77.65 51.6499V37.7599L59.56 30.6699V44.5499Z" stroke="#4D494A" stroke-width="3" stroke-linecap="round" stroke-linejoin="round"></path>
  </symbol>
</svg>