<!-- SVG Sprite -->
<svg width="0" height="0" class="hidden">
  <symbol fill="none" xmlns="http://www.w3.org/2000/svg" viewBox="0 0 100 100" id="Icon-1-Active">
    <path d="M51.0601 26.1499V9.75987C51.3801 3.93987 56.4801 0.199866 61.1001 2.39987C63.9401 3.74987 65.7501 7.02987 65.6401 10.6099V31.8799" stroke="#4D494A" stroke-width="3" stroke-linecap="round" stroke-linejoin="round"></path>
    <path d="M18.3198 16.2299L37.4898 11.1499L81.6898 29.1599L62.5198 34.2399L18.3198 16.2299Z" fill="white" stroke="#4D494A" stroke-width="3" stroke-linecap="round" stroke-linejoin="round"></path>
    <path d="M65.6397 38.17C66.8713 38.17 67.8697 36.7238 67.8697 34.94C67.8697 33.1561 66.8713 31.71 65.6397 31.71C64.4081 31.71 63.4097 33.1561 63.4097 34.94C63.4097 36.7238 64.4081 38.17 65.6397 38.17Z" stroke="#4D494A" stroke-width="3" stroke-linecap="round" stroke-linejoin="round"></path>
    <path d="M51.19 32.2298C52.4216 32.2298 53.42 30.7837 53.42 28.9998C53.42 27.2159 52.4216 25.7698 51.19 25.7698C49.9584 25.7698 48.96 27.2159 48.96 28.9998C48.96 30.7837 49.9584 32.2298 51.19 32.2298Z" stroke="#4D494A" stroke-width="3" stroke-linecap="round" stroke-linejoin="round"></path>
    <path d="M18.3198 16.23L62.5098 34.24V98.33L18.3198 80.32V16.23Z" fill="white" stroke="#4D494A" stroke-width="3" stroke-linecap="round" stroke-linejoin="round"></path>
    <path d="M81.6798 91.0799V29.1499L62.5098 34.2299V98.3199L81.6798 91.0699V91.0799Z" fill="white" stroke="#4D494A" stroke-width="3" stroke-linecap="round" stroke-linejoin="round"></path>
    <path d="M72.54 84.0999L81.68 91.0798" stroke="#4D494A" stroke-width="3" stroke-linecap="round" stroke-linejoin="round"></path>
    <path d="M72.4697 83.9998V32.7798V83.9998Z" fill="white"></path>
    <path d="M72.4697 83.9998V32.7798" stroke="#4D494A" stroke-width="3" stroke-linecap="round" stroke-linejoin="round"></path>
    <path d="M72.5398 84.0999L62.5098 98.3298" stroke="#4D494A" stroke-width="3" stroke-linecap="round" stroke-linejoin="round"></path>
    <path d="M46.3696 43.0699C47.6012 43.0699 48.5996 41.6237 48.5996 39.8399C48.5996 38.056 47.6012 36.6099 46.3696 36.6099C45.1381 36.6099 44.1396 38.056 44.1396 39.8399C44.1396 41.6237 45.1381 43.0699 46.3696 43.0699Z" stroke="#4D494A" stroke-width="3" stroke-linecap="round" stroke-linejoin="round"></path>
    <path d="M31.9199 37.1399C33.1515 37.1399 34.1499 35.6938 34.1499 33.9099C34.1499 32.1261 33.1515 30.6799 31.9199 30.6799C30.6883 30.6799 29.6899 32.1261 29.6899 33.9099C29.6899 35.6938 30.6883 37.1399 31.9199 37.1399Z" stroke="#4D494A" stroke-width="3" stroke-linecap="round" stroke-linejoin="round"></path>
    <path d="M31.7798 31.8898V13.1698C32.0998 7.34978 37.1998 3.60978 41.8198 5.80978C44.6598 7.15978 46.4698 10.4398 46.3598 14.0198V37.6198" stroke="#4D494A" stroke-width="3" stroke-linecap="round" stroke-linejoin="round"></path>
    <path d="M51.0601 26.1499V9.75987C51.3801 3.93987 56.4801 0.199866 61.1001 2.39987C63.9401 3.74987 65.7501 7.02987 65.6401 10.6099V31.8799" stroke="#4D494A" stroke-width="3" stroke-linecap="round" stroke-linejoin="round"></path>
    <path d="M18.3198 16.2299L37.4898 11.1499L81.6898 29.1599L62.5198 34.2399L18.3198 16.2299Z" fill="white" stroke="#4D494A" stroke-width="3" stroke-linecap="round" stroke-linejoin="round"></path>
    <path d="M65.6397 38.17C66.8713 38.17 67.8697 36.7238 67.8697 34.94C67.8697 33.1561 66.8713 31.71 65.6397 31.71C64.4081 31.71 63.4097 33.1561 63.4097 34.94C63.4097 36.7238 64.4081 38.17 65.6397 38.17Z" stroke="#4D494A" stroke-width="3" stroke-linecap="round" stroke-linejoin="round"></path>
    <path d="M51.19 32.2298C52.4216 32.2298 53.42 30.7837 53.42 28.9998C53.42 27.2159 52.4216 25.7698 51.19 25.7698C49.9584 25.7698 48.96 27.2159 48.96 28.9998C48.96 30.7837 49.9584 32.2298 51.19 32.2298Z" stroke="#4D494A" stroke-width="3" stroke-linecap="round" stroke-linejoin="round"></path>
    <path d="M18.3198 16.23L62.5098 34.24V98.33L18.3198 80.32V16.23Z" fill="white" stroke="#4D494A" stroke-width="3" stroke-linecap="round" stroke-linejoin="round"></path>
    <path d="M81.6798 91.0799V29.1499L62.5098 34.2299V98.3199L81.6798 91.0699V91.0799Z" fill="white" stroke="#4D494A" stroke-width="3" stroke-linecap="round" stroke-linejoin="round"></path>
    <path d="M72.54 84.0999L81.68 91.0798" stroke="#4D494A" stroke-width="3" stroke-linecap="round" stroke-linejoin="round"></path>
    <path d="M72.4697 83.9998V32.7798V83.9998Z" fill="white"></path>
    <path d="M72.4697 83.9998V32.7798" stroke="#4D494A" stroke-width="3" stroke-linecap="round" stroke-linejoin="round"></path>
    <path d="M72.5398 84.0999L62.5098 98.3298" stroke="#4D494A" stroke-width="3" stroke-linecap="round" stroke-linejoin="round"></path>
    <path d="M46.3696 43.0699C47.6012 43.0699 48.5996 41.6237 48.5996 39.8399C48.5996 38.056 47.6012 36.6099 46.3696 36.6099C45.1381 36.6099 44.1396 38.056 44.1396 39.8399C44.1396 41.6237 45.1381 43.0699 46.3696 43.0699Z" stroke="#4D494A" stroke-width="3" stroke-linecap="round" stroke-linejoin="round"></path>
    <path d="M31.9199 37.1399C33.1515 37.1399 34.1499 35.6938 34.1499 33.9099C34.1499 32.1261 33.1515 30.6799 31.9199 30.6799C30.6883 30.6799 29.6899 32.1261 29.6899 33.9099C29.6899 35.6938 30.6883 37.1399 31.9199 37.1399Z" stroke="#4D494A" stroke-width="3" stroke-linecap="round" stroke-linejoin="round"></path>
    <path d="M31.7798 31.8898V13.1698C32.0998 7.34978 37.1998 3.60978 41.8198 5.80978C44.6598 7.15978 46.4698 10.4398 46.3598 14.0198V37.6198" stroke="#4D494A" stroke-width="3" stroke-linecap="round" stroke-linejoin="round"></path>
  </symbol>
  <symbol fill="none" xmlns="http://www.w3.org/2000/svg" viewBox="0 0 100 100" id="Icon-1-Hover">
    <path d="M51.0601 26.1499V9.75987C51.3801 3.93987 56.4801 0.199866 61.1001 2.39987C63.9401 3.74987 65.7501 7.02987 65.6401 10.6099V31.8799" stroke="#767373" stroke-width="3" stroke-linecap="round" stroke-linejoin="round"></path>
    <path d="M51.0601 26.1499V9.75987C51.3801 3.93987 56.4801 0.199866 61.1001 2.39987C63.9401 3.74987 65.7501 7.02987 65.6401 10.6099V31.8799" stroke="black" stroke-opacity="0.2" stroke-width="3" stroke-linecap="round" stroke-linejoin="round"></path>
    <path d="M51.0601 26.1499V9.75987C51.3801 3.93987 56.4801 0.199866 61.1001 2.39987C63.9401 3.74987 65.7501 7.02987 65.6401 10.6099V31.8799" stroke="black" stroke-opacity="0.2" stroke-width="3" stroke-linecap="round" stroke-linejoin="round"></path>
    <path d="M18.3198 16.2299L37.4898 11.1499L81.6898 29.1599L62.5198 34.2399L18.3198 16.2299Z" fill="white"></path>
    <path d="M18.3198 16.2299L37.4898 11.1499L81.6898 29.1599L62.5198 34.2399L18.3198 16.2299Z" stroke="#767373" stroke-width="3" stroke-linecap="round" stroke-linejoin="round"></path>
    <path d="M18.3198 16.2299L37.4898 11.1499L81.6898 29.1599L62.5198 34.2399L18.3198 16.2299Z" stroke="black" stroke-opacity="0.2" stroke-width="3" stroke-linecap="round" stroke-linejoin="round"></path>
    <path d="M18.3198 16.2299L37.4898 11.1499L81.6898 29.1599L62.5198 34.2399L18.3198 16.2299Z" stroke="black" stroke-opacity="0.2" stroke-width="3" stroke-linecap="round" stroke-linejoin="round"></path>
    <path d="M65.6397 38.17C66.8713 38.17 67.8697 36.7238 67.8697 34.94C67.8697 33.1561 66.8713 31.71 65.6397 31.71C64.4081 31.71 63.4097 33.1561 63.4097 34.94C63.4097 36.7238 64.4081 38.17 65.6397 38.17Z" stroke="#767373" stroke-width="3" stroke-linecap="round" stroke-linejoin="round"></path>
    <path d="M65.6397 38.17C66.8713 38.17 67.8697 36.7238 67.8697 34.94C67.8697 33.1561 66.8713 31.71 65.6397 31.71C64.4081 31.71 63.4097 33.1561 63.4097 34.94C63.4097 36.7238 64.4081 38.17 65.6397 38.17Z" stroke="black" stroke-opacity="0.2" stroke-width="3" stroke-linecap="round" stroke-linejoin="round"></path>
    <path d="M65.6397 38.17C66.8713 38.17 67.8697 36.7238 67.8697 34.94C67.8697 33.1561 66.8713 31.71 65.6397 31.71C64.4081 31.71 63.4097 33.1561 63.4097 34.94C63.4097 36.7238 64.4081 38.17 65.6397 38.17Z" stroke="black" stroke-opacity="0.2" stroke-width="3" stroke-linecap="round" stroke-linejoin="round"></path>
    <path d="M51.19 32.2298C52.4216 32.2298 53.42 30.7837 53.42 28.9998C53.42 27.2159 52.4216 25.7698 51.19 25.7698C49.9584 25.7698 48.96 27.2159 48.96 28.9998C48.96 30.7837 49.9584 32.2298 51.19 32.2298Z" stroke="#767373" stroke-width="3" stroke-linecap="round" stroke-linejoin="round"></path>
    <path d="M51.19 32.2298C52.4216 32.2298 53.42 30.7837 53.42 28.9998C53.42 27.2159 52.4216 25.7698 51.19 25.7698C49.9584 25.7698 48.96 27.2159 48.96 28.9998C48.96 30.7837 49.9584 32.2298 51.19 32.2298Z" stroke="black" stroke-opacity="0.2" stroke-width="3" stroke-linecap="round" stroke-linejoin="round"></path>
    <path d="M51.19 32.2298C52.4216 32.2298 53.42 30.7837 53.42 28.9998C53.42 27.2159 52.4216 25.7698 51.19 25.7698C49.9584 25.7698 48.96 27.2159 48.96 28.9998C48.96 30.7837 49.9584 32.2298 51.19 32.2298Z" stroke="black" stroke-opacity="0.2" stroke-width="3" stroke-linecap="round" stroke-linejoin="round"></path>
    <path d="M18.3198 16.23L62.5098 34.24V98.33L18.3198 80.32V16.23Z" fill="white"></path>
    <path d="M18.3198 16.23L62.5098 34.24V98.33L18.3198 80.32V16.23Z" stroke="#767373" stroke-width="3" stroke-linecap="round" stroke-linejoin="round"></path>
    <path d="M18.3198 16.23L62.5098 34.24V98.33L18.3198 80.32V16.23Z" stroke="black" stroke-opacity="0.2" stroke-width="3" stroke-linecap="round" stroke-linejoin="round"></path>
    <path d="M18.3198 16.23L62.5098 34.24V98.33L18.3198 80.32V16.23Z" stroke="black" stroke-opacity="0.2" stroke-width="3" stroke-linecap="round" stroke-linejoin="round"></path>
    <path d="M81.6798 91.0799V29.1499L62.5098 34.2299V98.3199L81.6798 91.0699V91.0799Z" fill="white"></path>
    <path d="M81.6798 91.0799V29.1499L62.5098 34.2299V98.3199L81.6798 91.0699V91.0799Z" stroke="#767373" stroke-width="3" stroke-linecap="round" stroke-linejoin="round"></path>
    <path d="M81.6798 91.0799V29.1499L62.5098 34.2299V98.3199L81.6798 91.0699V91.0799Z" stroke="black" stroke-opacity="0.2" stroke-width="3" stroke-linecap="round" stroke-linejoin="round"></path>
    <path d="M81.6798 91.0799V29.1499L62.5098 34.2299V98.3199L81.6798 91.0699V91.0799Z" stroke="black" stroke-opacity="0.2" stroke-width="3" stroke-linecap="round" stroke-linejoin="round"></path>
    <path d="M72.54 84.0999L81.68 91.0798" stroke="#767373" stroke-width="3" stroke-linecap="round" stroke-linejoin="round"></path>
    <path d="M72.54 84.0999L81.68 91.0798" stroke="black" stroke-opacity="0.2" stroke-width="3" stroke-linecap="round" stroke-linejoin="round"></path>
    <path d="M72.54 84.0999L81.68 91.0798" stroke="black" stroke-opacity="0.2" stroke-width="3" stroke-linecap="round" stroke-linejoin="round"></path>
    <path d="M72.4697 83.9998V32.7798V83.9998Z" fill="white"></path>
    <path d="M72.4697 83.9998V32.7798" stroke="#767373" stroke-width="3" stroke-linecap="round" stroke-linejoin="round"></path>
    <path d="M72.4697 83.9998V32.7798" stroke="black" stroke-opacity="0.2" stroke-width="3" stroke-linecap="round" stroke-linejoin="round"></path>
    <path d="M72.4697 83.9998V32.7798" stroke="black" stroke-opacity="0.2" stroke-width="3" stroke-linecap="round" stroke-linejoin="round"></path>
    <path d="M72.5398 84.0999L62.5098 98.3298" stroke="#767373" stroke-width="3" stroke-linecap="round" stroke-linejoin="round"></path>
    <path d="M72.5398 84.0999L62.5098 98.3298" stroke="black" stroke-opacity="0.2" stroke-width="3" stroke-linecap="round" stroke-linejoin="round"></path>
    <path d="M72.5398 84.0999L62.5098 98.3298" stroke="black" stroke-opacity="0.2" stroke-width="3" stroke-linecap="round" stroke-linejoin="round"></path>
    <path d="M46.3696 43.0699C47.6012 43.0699 48.5996 41.6237 48.5996 39.8399C48.5996 38.056 47.6012 36.6099 46.3696 36.6099C45.1381 36.6099 44.1396 38.056 44.1396 39.8399C44.1396 41.6237 45.1381 43.0699 46.3696 43.0699Z" stroke="#767373" stroke-width="3" stroke-linecap="round" stroke-linejoin="round"></path>
    <path d="M46.3696 43.0699C47.6012 43.0699 48.5996 41.6237 48.5996 39.8399C48.5996 38.056 47.6012 36.6099 46.3696 36.6099C45.1381 36.6099 44.1396 38.056 44.1396 39.8399C44.1396 41.6237 45.1381 43.0699 46.3696 43.0699Z" stroke="black" stroke-opacity="0.2" stroke-width="3" stroke-linecap="round" stroke-linejoin="round"></path>
    <path d="M46.3696 43.0699C47.6012 43.0699 48.5996 41.6237 48.5996 39.8399C48.5996 38.056 47.6012 36.6099 46.3696 36.6099C45.1381 36.6099 44.1396 38.056 44.1396 39.8399C44.1396 41.6237 45.1381 43.0699 46.3696 43.0699Z" stroke="black" stroke-opacity="0.2" stroke-width="3" stroke-linecap="round" stroke-linejoin="round"></path>
    <path d="M31.9199 37.1399C33.1515 37.1399 34.1499 35.6938 34.1499 33.9099C34.1499 32.1261 33.1515 30.6799 31.9199 30.6799C30.6883 30.6799 29.6899 32.1261 29.6899 33.9099C29.6899 35.6938 30.6883 37.1399 31.9199 37.1399Z" stroke="#767373" stroke-width="3" stroke-linecap="round" stroke-linejoin="round"></path>
    <path d="M31.9199 37.1399C33.1515 37.1399 34.1499 35.6938 34.1499 33.9099C34.1499 32.1261 33.1515 30.6799 31.9199 30.6799C30.6883 30.6799 29.6899 32.1261 29.6899 33.9099C29.6899 35.6938 30.6883 37.1399 31.9199 37.1399Z" stroke="black" stroke-opacity="0.2" stroke-width="3" stroke-linecap="round" stroke-linejoin="round"></path>
    <path d="M31.9199 37.1399C33.1515 37.1399 34.1499 35.6938 34.1499 33.9099C34.1499 32.1261 33.1515 30.6799 31.9199 30.6799C30.6883 30.6799 29.6899 32.1261 29.6899 33.9099C29.6899 35.6938 30.6883 37.1399 31.9199 37.1399Z" stroke="black" stroke-opacity="0.2" stroke-width="3" stroke-linecap="round" stroke-linejoin="round"></path>
    <path d="M31.7798 31.8898V13.1698C32.0998 7.34978 37.1998 3.60978 41.8198 5.80978C44.6598 7.15978 46.4698 10.4398 46.3598 14.0198V37.6198" stroke="#767373" stroke-width="3" stroke-linecap="round" stroke-linejoin="round"></path>
    <path d="M31.7798 31.8898V13.1698C32.0998 7.34978 37.1998 3.60978 41.8198 5.80978C44.6598 7.15978 46.4698 10.4398 46.3598 14.0198V37.6198" stroke="black" stroke-opacity="0.2" stroke-width="3" stroke-linecap="round" stroke-linejoin="round"></path>
    <path d="M31.7798 31.8898V13.1698C32.0998 7.34978 37.1998 3.60978 41.8198 5.80978C44.6598 7.15978 46.4698 10.4398 46.3598 14.0198V37.6198" stroke="black" stroke-opacity="0.2" stroke-width="3" stroke-linecap="round" stroke-linejoin="round"></path>
    <path d="M51.0601 26.1499V9.75987C51.3801 3.93987 56.4801 0.199866 61.1001 2.39987C63.9401 3.74987 65.7501 7.02987 65.6401 10.6099V31.8799" stroke="#767373" stroke-width="3" stroke-linecap="round" stroke-linejoin="round"></path>
    <path d="M51.0601 26.1499V9.75987C51.3801 3.93987 56.4801 0.199866 61.1001 2.39987C63.9401 3.74987 65.7501 7.02987 65.6401 10.6099V31.8799" stroke="black" stroke-opacity="0.2" stroke-width="3" stroke-linecap="round" stroke-linejoin="round"></path>
    <path d="M51.0601 26.1499V9.75987C51.3801 3.93987 56.4801 0.199866 61.1001 2.39987C63.9401 3.74987 65.7501 7.02987 65.6401 10.6099V31.8799" stroke="black" stroke-opacity="0.2" stroke-width="3" stroke-linecap="round" stroke-linejoin="round"></path>
    <path d="M18.3198 16.2299L37.4898 11.1499L81.6898 29.1599L62.5198 34.2399L18.3198 16.2299Z" fill="white"></path>
    <path d="M18.3198 16.2299L37.4898 11.1499L81.6898 29.1599L62.5198 34.2399L18.3198 16.2299Z" stroke="#767373" stroke-width="3" stroke-linecap="round" stroke-linejoin="round"></path>
    <path d="M18.3198 16.2299L37.4898 11.1499L81.6898 29.1599L62.5198 34.2399L18.3198 16.2299Z" stroke="black" stroke-opacity="0.2" stroke-width="3" stroke-linecap="round" stroke-linejoin="round"></path>
    <path d="M18.3198 16.2299L37.4898 11.1499L81.6898 29.1599L62.5198 34.2399L18.3198 16.2299Z" stroke="black" stroke-opacity="0.2" stroke-width="3" stroke-linecap="round" stroke-linejoin="round"></path>
    <path d="M65.6397 38.17C66.8713 38.17 67.8697 36.7238 67.8697 34.94C67.8697 33.1561 66.8713 31.71 65.6397 31.71C64.4081 31.71 63.4097 33.1561 63.4097 34.94C63.4097 36.7238 64.4081 38.17 65.6397 38.17Z" stroke="#767373" stroke-width="3" stroke-linecap="round" stroke-linejoin="round"></path>
    <path d="M65.6397 38.17C66.8713 38.17 67.8697 36.7238 67.8697 34.94C67.8697 33.1561 66.8713 31.71 65.6397 31.71C64.4081 31.71 63.4097 33.1561 63.4097 34.94C63.4097 36.7238 64.4081 38.17 65.6397 38.17Z" stroke="black" stroke-opacity="0.2" stroke-width="3" stroke-linecap="round" stroke-linejoin="round"></path>
    <path d="M65.6397 38.17C66.8713 38.17 67.8697 36.7238 67.8697 34.94C67.8697 33.1561 66.8713 31.71 65.6397 31.71C64.4081 31.71 63.4097 33.1561 63.4097 34.94C63.4097 36.7238 64.4081 38.17 65.6397 38.17Z" stroke="black" stroke-opacity="0.2" stroke-width="3" stroke-linecap="round" stroke-linejoin="round"></path>
    <path d="M51.19 32.2298C52.4216 32.2298 53.42 30.7837 53.42 28.9998C53.42 27.2159 52.4216 25.7698 51.19 25.7698C49.9584 25.7698 48.96 27.2159 48.96 28.9998C48.96 30.7837 49.9584 32.2298 51.19 32.2298Z" stroke="#767373" stroke-width="3" stroke-linecap="round" stroke-linejoin="round"></path>
    <path d="M51.19 32.2298C52.4216 32.2298 53.42 30.7837 53.42 28.9998C53.42 27.2159 52.4216 25.7698 51.19 25.7698C49.9584 25.7698 48.96 27.2159 48.96 28.9998C48.96 30.7837 49.9584 32.2298 51.19 32.2298Z" stroke="black" stroke-opacity="0.2" stroke-width="3" stroke-linecap="round" stroke-linejoin="round"></path>
    <path d="M51.19 32.2298C52.4216 32.2298 53.42 30.7837 53.42 28.9998C53.42 27.2159 52.4216 25.7698 51.19 25.7698C49.9584 25.7698 48.96 27.2159 48.96 28.9998C48.96 30.7837 49.9584 32.2298 51.19 32.2298Z" stroke="black" stroke-opacity="0.2" stroke-width="3" stroke-linecap="round" stroke-linejoin="round"></path>
    <path d="M18.3198 16.23L62.5098 34.24V98.33L18.3198 80.32V16.23Z" fill="white"></path>
    <path d="M18.3198 16.23L62.5098 34.24V98.33L18.3198 80.32V16.23Z" stroke="#767373" stroke-width="3" stroke-linecap="round" stroke-linejoin="round"></path>
    <path d="M18.3198 16.23L62.5098 34.24V98.33L18.3198 80.32V16.23Z" stroke="black" stroke-opacity="0.2" stroke-width="3" stroke-linecap="round" stroke-linejoin="round"></path>
    <path d="M18.3198 16.23L62.5098 34.24V98.33L18.3198 80.32V16.23Z" stroke="black" stroke-opacity="0.2" stroke-width="3" stroke-linecap="round" stroke-linejoin="round"></path>
    <path d="M81.6798 91.0799V29.1499L62.5098 34.2299V98.3199L81.6798 91.0699V91.0799Z" fill="white"></path>
    <path d="M81.6798 91.0799V29.1499L62.5098 34.2299V98.3199L81.6798 91.0699V91.0799Z" stroke="#767373" stroke-width="3" stroke-linecap="round" stroke-linejoin="round"></path>
    <path d="M81.6798 91.0799V29.1499L62.5098 34.2299V98.3199L81.6798 91.0699V91.0799Z" stroke="black" stroke-opacity="0.2" stroke-width="3" stroke-linecap="round" stroke-linejoin="round"></path>
    <path d="M81.6798 91.0799V29.1499L62.5098 34.2299V98.3199L81.6798 91.0699V91.0799Z" stroke="black" stroke-opacity="0.2" stroke-width="3" stroke-linecap="round" stroke-linejoin="round"></path>
    <path d="M72.54 84.0999L81.68 91.0798" stroke="#767373" stroke-width="3" stroke-linecap="round" stroke-linejoin="round"></path>
    <path d="M72.54 84.0999L81.68 91.0798" stroke="black" stroke-opacity="0.2" stroke-width="3" stroke-linecap="round" stroke-linejoin="round"></path>
    <path d="M72.54 84.0999L81.68 91.0798" stroke="black" stroke-opacity="0.2" stroke-width="3" stroke-linecap="round" stroke-linejoin="round"></path>
    <path d="M72.4697 83.9998V32.7798V83.9998Z" fill="white"></path>
    <path d="M72.4697 83.9998V32.7798" stroke="#767373" stroke-width="3" stroke-linecap="round" stroke-linejoin="round"></path>
    <path d="M72.4697 83.9998V32.7798" stroke="black" stroke-opacity="0.2" stroke-width="3" stroke-linecap="round" stroke-linejoin="round"></path>
    <path d="M72.4697 83.9998V32.7798" stroke="black" stroke-opacity="0.2" stroke-width="3" stroke-linecap="round" stroke-linejoin="round"></path>
    <path d="M72.5398 84.0999L62.5098 98.3298" stroke="#767373" stroke-width="3" stroke-linecap="round" stroke-linejoin="round"></path>
    <path d="M72.5398 84.0999L62.5098 98.3298" stroke="black" stroke-opacity="0.2" stroke-width="3" stroke-linecap="round" stroke-linejoin="round"></path>
    <path d="M72.5398 84.0999L62.5098 98.3298" stroke="black" stroke-opacity="0.2" stroke-width="3" stroke-linecap="round" stroke-linejoin="round"></path>
    <path d="M46.3696 43.0699C47.6012 43.0699 48.5996 41.6237 48.5996 39.8399C48.5996 38.056 47.6012 36.6099 46.3696 36.6099C45.1381 36.6099 44.1396 38.056 44.1396 39.8399C44.1396 41.6237 45.1381 43.0699 46.3696 43.0699Z" stroke="#767373" stroke-width="3" stroke-linecap="round" stroke-linejoin="round"></path>
    <path d="M46.3696 43.0699C47.6012 43.0699 48.5996 41.6237 48.5996 39.8399C48.5996 38.056 47.6012 36.6099 46.3696 36.6099C45.1381 36.6099 44.1396 38.056 44.1396 39.8399C44.1396 41.6237 45.1381 43.0699 46.3696 43.0699Z" stroke="black" stroke-opacity="0.2" stroke-width="3" stroke-linecap="round" stroke-linejoin="round"></path>
    <path d="M46.3696 43.0699C47.6012 43.0699 48.5996 41.6237 48.5996 39.8399C48.5996 38.056 47.6012 36.6099 46.3696 36.6099C45.1381 36.6099 44.1396 38.056 44.1396 39.8399C44.1396 41.6237 45.1381 43.0699 46.3696 43.0699Z" stroke="black" stroke-opacity="0.2" stroke-width="3" stroke-linecap="round" stroke-linejoin="round"></path>
    <path d="M31.9199 37.1399C33.1515 37.1399 34.1499 35.6938 34.1499 33.9099C34.1499 32.1261 33.1515 30.6799 31.9199 30.6799C30.6883 30.6799 29.6899 32.1261 29.6899 33.9099C29.6899 35.6938 30.6883 37.1399 31.9199 37.1399Z" stroke="#767373" stroke-width="3" stroke-linecap="round" stroke-linejoin="round"></path>
    <path d="M31.9199 37.1399C33.1515 37.1399 34.1499 35.6938 34.1499 33.9099C34.1499 32.1261 33.1515 30.6799 31.9199 30.6799C30.6883 30.6799 29.6899 32.1261 29.6899 33.9099C29.6899 35.6938 30.6883 37.1399 31.9199 37.1399Z" stroke="black" stroke-opacity="0.2" stroke-width="3" stroke-linecap="round" stroke-linejoin="round"></path>
    <path d="M31.9199 37.1399C33.1515 37.1399 34.1499 35.6938 34.1499 33.9099C34.1499 32.1261 33.1515 30.6799 31.9199 30.6799C30.6883 30.6799 29.6899 32.1261 29.6899 33.9099C29.6899 35.6938 30.6883 37.1399 31.9199 37.1399Z" stroke="black" stroke-opacity="0.2" stroke-width="3" stroke-linecap="round" stroke-linejoin="round"></path>
    <path d="M31.7798 31.8898V13.1698C32.0998 7.34978 37.1998 3.60978 41.8198 5.80978C44.6598 7.15978 46.4698 10.4398 46.3598 14.0198V37.6198" stroke="#767373" stroke-width="3" stroke-linecap="round" stroke-linejoin="round"></path>
    <path d="M31.7798 31.8898V13.1698C32.0998 7.34978 37.1998 3.60978 41.8198 5.80978C44.6598 7.15978 46.4698 10.4398 46.3598 14.0198V37.6198" stroke="black" stroke-opacity="0.2" stroke-width="3" stroke-linecap="round" stroke-linejoin="round"></path>
    <path d="M31.7798 31.8898V13.1698C32.0998 7.34978 37.1998 3.60978 41.8198 5.80978C44.6598 7.15978 46.4698 10.4398 46.3598 14.0198V37.6198" stroke="black" stroke-opacity="0.2" stroke-width="3" stroke-linecap="round" stroke-linejoin="round"></path>
  </symbol>
  <symbol fill="none" xmlns="http://www.w3.org/2000/svg" viewBox="0 0 100 100" id="Icon-1-Unselected">
    <path d="M51.0601 26.1499V9.75987C51.3801 3.93987 56.4801 0.199866 61.1001 2.39987C63.9401 3.74987 65.7501 7.02987 65.6401 10.6099V31.8799" stroke="#A09C9D" stroke-width="3" stroke-linecap="round" stroke-linejoin="round"></path>
    <path d="M18.3198 16.2299L37.4898 11.1499L81.6898 29.1599L62.5198 34.2399L18.3198 16.2299Z" fill="white" stroke="#A09C9D" stroke-width="3" stroke-linecap="round" stroke-linejoin="round"></path>
    <path d="M65.6397 38.17C66.8713 38.17 67.8697 36.7238 67.8697 34.94C67.8697 33.1561 66.8713 31.71 65.6397 31.71C64.4081 31.71 63.4097 33.1561 63.4097 34.94C63.4097 36.7238 64.4081 38.17 65.6397 38.17Z" stroke="#A09C9D" stroke-width="3" stroke-linecap="round" stroke-linejoin="round"></path>
    <path d="M51.19 32.2298C52.4216 32.2298 53.42 30.7837 53.42 28.9998C53.42 27.2159 52.4216 25.7698 51.19 25.7698C49.9584 25.7698 48.96 27.2159 48.96 28.9998C48.96 30.7837 49.9584 32.2298 51.19 32.2298Z" stroke="#A09C9D" stroke-width="3" stroke-linecap="round" stroke-linejoin="round"></path>
    <path d="M18.3198 16.23L62.5098 34.24V98.33L18.3198 80.32V16.23Z" fill="white" stroke="#A09C9D" stroke-width="3" stroke-linecap="round" stroke-linejoin="round"></path>
    <path d="M81.6798 91.0799V29.1499L62.5098 34.2299V98.3199L81.6798 91.0699V91.0799Z" fill="white" stroke="#A09C9D" stroke-width="3" stroke-linecap="round" stroke-linejoin="round"></path>
    <path d="M72.54 84.0999L81.68 91.0798" stroke="#A09C9D" stroke-width="3" stroke-linecap="round" stroke-linejoin="round"></path>
    <path d="M72.4697 83.9998V32.7798V83.9998Z" fill="white"></path>
    <path d="M72.4697 83.9998V32.7798" stroke="#A09C9D" stroke-width="3" stroke-linecap="round" stroke-linejoin="round"></path>
    <path d="M72.5398 84.0999L62.5098 98.3298" stroke="#A09C9D" stroke-width="3" stroke-linecap="round" stroke-linejoin="round"></path>
    <path d="M46.3696 43.0699C47.6012 43.0699 48.5996 41.6237 48.5996 39.8399C48.5996 38.056 47.6012 36.6099 46.3696 36.6099C45.1381 36.6099 44.1396 38.056 44.1396 39.8399C44.1396 41.6237 45.1381 43.0699 46.3696 43.0699Z" stroke="#A09C9D" stroke-width="3" stroke-linecap="round" stroke-linejoin="round"></path>
    <path d="M31.9199 37.1399C33.1515 37.1399 34.1499 35.6938 34.1499 33.9099C34.1499 32.1261 33.1515 30.6799 31.9199 30.6799C30.6883 30.6799 29.6899 32.1261 29.6899 33.9099C29.6899 35.6938 30.6883 37.1399 31.9199 37.1399Z" stroke="#A09C9D" stroke-width="3" stroke-linecap="round" stroke-linejoin="round"></path>
    <path d="M31.7798 31.8898V13.1698C32.0998 7.34978 37.1998 3.60978 41.8198 5.80978C44.6598 7.15978 46.4698 10.4398 46.3598 14.0198V37.6198" stroke="#A09C9D" stroke-width="3" stroke-linecap="round" stroke-linejoin="round"></path>
    <path d="M51.0601 26.1499V9.75987C51.3801 3.93987 56.4801 0.199866 61.1001 2.39987C63.9401 3.74987 65.7501 7.02987 65.6401 10.6099V31.8799" stroke="#A09C9D" stroke-width="3" stroke-linecap="round" stroke-linejoin="round"></path>
    <path d="M18.3198 16.2299L37.4898 11.1499L81.6898 29.1599L62.5198 34.2399L18.3198 16.2299Z" fill="white" stroke="#A09C9D" stroke-width="3" stroke-linecap="round" stroke-linejoin="round"></path>
    <path d="M65.6397 38.17C66.8713 38.17 67.8697 36.7238 67.8697 34.94C67.8697 33.1561 66.8713 31.71 65.6397 31.71C64.4081 31.71 63.4097 33.1561 63.4097 34.94C63.4097 36.7238 64.4081 38.17 65.6397 38.17Z" stroke="#A09C9D" stroke-width="3" stroke-linecap="round" stroke-linejoin="round"></path>
    <path d="M51.19 32.2298C52.4216 32.2298 53.42 30.7837 53.42 28.9998C53.42 27.2159 52.4216 25.7698 51.19 25.7698C49.9584 25.7698 48.96 27.2159 48.96 28.9998C48.96 30.7837 49.9584 32.2298 51.19 32.2298Z" stroke="#A09C9D" stroke-width="3" stroke-linecap="round" stroke-linejoin="round"></path>
    <path d="M18.3198 16.23L62.5098 34.24V98.33L18.3198 80.32V16.23Z" fill="white" stroke="#A09C9D" stroke-width="3" stroke-linecap="round" stroke-linejoin="round"></path>
    <path d="M81.6798 91.0799V29.1499L62.5098 34.2299V98.3199L81.6798 91.0699V91.0799Z" fill="white" stroke="#A09C9D" stroke-width="3" stroke-linecap="round" stroke-linejoin="round"></path>
    <path d="M72.54 84.0999L81.68 91.0798" stroke="#A09C9D" stroke-width="3" stroke-linecap="round" stroke-linejoin="round"></path>
    <path d="M72.4697 83.9998V32.7798V83.9998Z" fill="white"></path>
    <path d="M72.4697 83.9998V32.7798" stroke="#A09C9D" stroke-width="3" stroke-linecap="round" stroke-linejoin="round"></path>
    <path d="M72.5398 84.0999L62.5098 98.3298" stroke="#A09C9D" stroke-width="3" stroke-linecap="round" stroke-linejoin="round"></path>
    <path d="M46.3696 43.0699C47.6012 43.0699 48.5996 41.6237 48.5996 39.8399C48.5996 38.056 47.6012 36.6099 46.3696 36.6099C45.1381 36.6099 44.1396 38.056 44.1396 39.8399C44.1396 41.6237 45.1381 43.0699 46.3696 43.0699Z" stroke="#A09C9D" stroke-width="3" stroke-linecap="round" stroke-linejoin="round"></path>
    <path d="M31.9199 37.1399C33.1515 37.1399 34.1499 35.6938 34.1499 33.9099C34.1499 32.1261 33.1515 30.6799 31.9199 30.6799C30.6883 30.6799 29.6899 32.1261 29.6899 33.9099C29.6899 35.6938 30.6883 37.1399 31.9199 37.1399Z" stroke="#A09C9D" stroke-width="3" stroke-linecap="round" stroke-linejoin="round"></path>
    <path d="M31.7798 31.8898V13.1698C32.0998 7.34978 37.1998 3.60978 41.8198 5.80978C44.6598 7.15978 46.4698 10.4398 46.3598 14.0198V37.6198" stroke="#A09C9D" stroke-width="3" stroke-linecap="round" stroke-linejoin="round"></path>
  </symbol>
  <symbol fill="none" xmlns="http://www.w3.org/2000/svg" viewBox="0 0 100 100" id="Icon-2-Active">
    <path d="M15.4702 8.10007L36.3302 2.57007L84.4202 22.1601L63.5602 27.6901L15.4702 8.10007Z" stroke="#4D494A" stroke-width="3" stroke-linecap="round" stroke-linejoin="round"></path>
    <path d="M36.4404 2.76001L84.5304 22.35" stroke="#4D494A" stroke-width="3" stroke-linecap="round" stroke-linejoin="round"></path>
    <path d="M66.97 31.9702C68.3121 31.9702 69.4 30.3942 69.4 28.4502C69.4 26.5061 68.3121 24.9302 66.97 24.9302C65.628 24.9302 64.54 26.5061 64.54 28.4502C64.54 30.3942 65.628 31.9702 66.97 31.9702Z" stroke="#4D494A" stroke-width="3" stroke-linecap="round" stroke-linejoin="round"></path>
    <path d="M51.2401 25.52C52.5821 25.52 53.6701 23.944 53.6701 22C53.6701 20.0559 52.5821 18.48 51.2401 18.48C49.898 18.48 48.8101 20.0559 48.8101 22C48.8101 23.944 49.898 25.52 51.2401 25.52Z" stroke="#4D494A" stroke-width="3" stroke-linecap="round" stroke-linejoin="round"></path>
    <path d="M15.4702 8.1001L63.5602 27.6901V97.4301L15.4702 77.8301V8.1001Z" fill="white" stroke="#4D494A" stroke-width="3" stroke-linecap="round" stroke-linejoin="round"></path>
    <path d="M46.0003 37.31C47.3424 37.31 48.4303 35.7341 48.4303 33.79C48.4303 31.846 47.3424 30.27 46.0003 30.27C44.6583 30.27 43.5703 31.846 43.5703 33.79C43.5703 35.7341 44.6583 37.31 46.0003 37.31Z" stroke="#4D494A" stroke-width="3" stroke-linecap="round" stroke-linejoin="round"></path>
    <path d="M30.2801 30.8601C31.6221 30.8601 32.7101 29.2841 32.7101 27.3401C32.7101 25.396 31.6221 23.8201 30.2801 23.8201C28.938 23.8201 27.8501 25.396 27.8501 27.3401C27.8501 29.2841 28.938 30.8601 30.2801 30.8601Z" stroke="#4D494A" stroke-width="3" stroke-linecap="round" stroke-linejoin="round"></path>
    <path d="M30.0402 27.71C30.0402 27.71 27.0802 34.76 28.2402 40.19C29.3102 45.22 32.6002 47.58 36.8602 46.76C43.9602 45.39 45.9402 34.31 45.9402 34.31" stroke="#4D494A" stroke-width="3" stroke-linecap="round" stroke-linejoin="round"></path>
    <path d="M84.4201 89.5402V22.1702L63.5601 27.7002V97.4402L84.4201 89.5502V89.5402Z" fill="white" stroke="#4D494A" stroke-width="3" stroke-linecap="round" stroke-linejoin="round"></path>
    <path d="M74.4702 81.95L84.4202 89.54" stroke="#4D494A" stroke-width="3" stroke-linecap="round" stroke-linejoin="round"></path>
    <path d="M74.3901 81.8401V26.1101V81.8401Z" fill="white"></path>
    <path d="M74.3901 81.8401V26.1101" stroke="#4D494A" stroke-width="3" stroke-linecap="round" stroke-linejoin="round"></path>
    <path d="M74.4701 81.95L63.5601 97.43" stroke="#4D494A" stroke-width="3" stroke-linecap="round" stroke-linejoin="round"></path>
  </symbol>
  <symbol fill="none" xmlns="http://www.w3.org/2000/svg" viewBox="0 0 100 100" id="Icon-2-Hover">
    <path d="M15.4702 8.10007L36.3302 2.57007L84.4202 22.1601L63.5602 27.6901L15.4702 8.10007Z" stroke="#767373" stroke-width="3" stroke-linecap="round" stroke-linejoin="round"></path>
    <path d="M15.4702 8.10007L36.3302 2.57007L84.4202 22.1601L63.5602 27.6901L15.4702 8.10007Z" stroke="black" stroke-opacity="0.2" stroke-width="3" stroke-linecap="round" stroke-linejoin="round"></path>
    <path d="M15.4702 8.10007L36.3302 2.57007L84.4202 22.1601L63.5602 27.6901L15.4702 8.10007Z" stroke="black" stroke-opacity="0.2" stroke-width="3" stroke-linecap="round" stroke-linejoin="round"></path>
    <path d="M36.4404 2.76001L84.5304 22.35" stroke="#767373" stroke-width="3" stroke-linecap="round" stroke-linejoin="round"></path>
    <path d="M36.4404 2.76001L84.5304 22.35" stroke="black" stroke-opacity="0.2" stroke-width="3" stroke-linecap="round" stroke-linejoin="round"></path>
    <path d="M36.4404 2.76001L84.5304 22.35" stroke="black" stroke-opacity="0.2" stroke-width="3" stroke-linecap="round" stroke-linejoin="round"></path>
    <path d="M66.97 31.9702C68.3121 31.9702 69.4 30.3942 69.4 28.4502C69.4 26.5061 68.3121 24.9302 66.97 24.9302C65.628 24.9302 64.54 26.5061 64.54 28.4502C64.54 30.3942 65.628 31.9702 66.97 31.9702Z" stroke="#767373" stroke-width="3" stroke-linecap="round" stroke-linejoin="round"></path>
    <path d="M66.97 31.9702C68.3121 31.9702 69.4 30.3942 69.4 28.4502C69.4 26.5061 68.3121 24.9302 66.97 24.9302C65.628 24.9302 64.54 26.5061 64.54 28.4502C64.54 30.3942 65.628 31.9702 66.97 31.9702Z" stroke="black" stroke-opacity="0.2" stroke-width="3" stroke-linecap="round" stroke-linejoin="round"></path>
    <path d="M66.97 31.9702C68.3121 31.9702 69.4 30.3942 69.4 28.4502C69.4 26.5061 68.3121 24.9302 66.97 24.9302C65.628 24.9302 64.54 26.5061 64.54 28.4502C64.54 30.3942 65.628 31.9702 66.97 31.9702Z" stroke="black" stroke-opacity="0.2" stroke-width="3" stroke-linecap="round" stroke-linejoin="round"></path>
    <path d="M51.2401 25.52C52.5821 25.52 53.6701 23.944 53.6701 22C53.6701 20.0559 52.5821 18.48 51.2401 18.48C49.898 18.48 48.8101 20.0559 48.8101 22C48.8101 23.944 49.898 25.52 51.2401 25.52Z" stroke="#767373" stroke-width="3" stroke-linecap="round" stroke-linejoin="round"></path>
    <path d="M51.2401 25.52C52.5821 25.52 53.6701 23.944 53.6701 22C53.6701 20.0559 52.5821 18.48 51.2401 18.48C49.898 18.48 48.8101 20.0559 48.8101 22C48.8101 23.944 49.898 25.52 51.2401 25.52Z" stroke="black" stroke-opacity="0.2" stroke-width="3" stroke-linecap="round" stroke-linejoin="round"></path>
    <path d="M51.2401 25.52C52.5821 25.52 53.6701 23.944 53.6701 22C53.6701 20.0559 52.5821 18.48 51.2401 18.48C49.898 18.48 48.8101 20.0559 48.8101 22C48.8101 23.944 49.898 25.52 51.2401 25.52Z" stroke="black" stroke-opacity="0.2" stroke-width="3" stroke-linecap="round" stroke-linejoin="round"></path>
    <path d="M15.4702 8.1001L63.5602 27.6901V97.4301L15.4702 77.8301V8.1001Z" fill="white"></path>
    <path d="M15.4702 8.1001L63.5602 27.6901V97.4301L15.4702 77.8301V8.1001Z" stroke="#767373" stroke-width="3" stroke-linecap="round" stroke-linejoin="round"></path>
    <path d="M15.4702 8.1001L63.5602 27.6901V97.4301L15.4702 77.8301V8.1001Z" stroke="black" stroke-opacity="0.2" stroke-width="3" stroke-linecap="round" stroke-linejoin="round"></path>
    <path d="M15.4702 8.1001L63.5602 27.6901V97.4301L15.4702 77.8301V8.1001Z" stroke="black" stroke-opacity="0.2" stroke-width="3" stroke-linecap="round" stroke-linejoin="round"></path>
    <path d="M46.0003 37.31C47.3424 37.31 48.4303 35.7341 48.4303 33.79C48.4303 31.846 47.3424 30.27 46.0003 30.27C44.6583 30.27 43.5703 31.846 43.5703 33.79C43.5703 35.7341 44.6583 37.31 46.0003 37.31Z" stroke="#767373" stroke-width="3" stroke-linecap="round" stroke-linejoin="round"></path>
    <path d="M46.0003 37.31C47.3424 37.31 48.4303 35.7341 48.4303 33.79C48.4303 31.846 47.3424 30.27 46.0003 30.27C44.6583 30.27 43.5703 31.846 43.5703 33.79C43.5703 35.7341 44.6583 37.31 46.0003 37.31Z" stroke="black" stroke-opacity="0.2" stroke-width="3" stroke-linecap="round" stroke-linejoin="round"></path>
    <path d="M46.0003 37.31C47.3424 37.31 48.4303 35.7341 48.4303 33.79C48.4303 31.846 47.3424 30.27 46.0003 30.27C44.6583 30.27 43.5703 31.846 43.5703 33.79C43.5703 35.7341 44.6583 37.31 46.0003 37.31Z" stroke="black" stroke-opacity="0.2" stroke-width="3" stroke-linecap="round" stroke-linejoin="round"></path>
    <path d="M30.2801 30.8601C31.6221 30.8601 32.7101 29.2841 32.7101 27.3401C32.7101 25.396 31.6221 23.8201 30.2801 23.8201C28.938 23.8201 27.8501 25.396 27.8501 27.3401C27.8501 29.2841 28.938 30.8601 30.2801 30.8601Z" stroke="#767373" stroke-width="3" stroke-linecap="round" stroke-linejoin="round"></path>
    <path d="M30.2801 30.8601C31.6221 30.8601 32.7101 29.2841 32.7101 27.3401C32.7101 25.396 31.6221 23.8201 30.2801 23.8201C28.938 23.8201 27.8501 25.396 27.8501 27.3401C27.8501 29.2841 28.938 30.8601 30.2801 30.8601Z" stroke="black" stroke-opacity="0.2" stroke-width="3" stroke-linecap="round" stroke-linejoin="round"></path>
    <path d="M30.2801 30.8601C31.6221 30.8601 32.7101 29.2841 32.7101 27.3401C32.7101 25.396 31.6221 23.8201 30.2801 23.8201C28.938 23.8201 27.8501 25.396 27.8501 27.3401C27.8501 29.2841 28.938 30.8601 30.2801 30.8601Z" stroke="black" stroke-opacity="0.2" stroke-width="3" stroke-linecap="round" stroke-linejoin="round"></path>
    <path d="M30.0402 27.71C30.0402 27.71 27.0802 34.76 28.2402 40.19C29.3102 45.22 32.6002 47.58 36.8602 46.76C43.9602 45.39 45.9402 34.31 45.9402 34.31" stroke="#767373" stroke-width="3" stroke-linecap="round" stroke-linejoin="round"></path>
    <path d="M30.0402 27.71C30.0402 27.71 27.0802 34.76 28.2402 40.19C29.3102 45.22 32.6002 47.58 36.8602 46.76C43.9602 45.39 45.9402 34.31 45.9402 34.31" stroke="black" stroke-opacity="0.2" stroke-width="3" stroke-linecap="round" stroke-linejoin="round"></path>
    <path d="M30.0402 27.71C30.0402 27.71 27.0802 34.76 28.2402 40.19C29.3102 45.22 32.6002 47.58 36.8602 46.76C43.9602 45.39 45.9402 34.31 45.9402 34.31" stroke="black" stroke-opacity="0.2" stroke-width="3" stroke-linecap="round" stroke-linejoin="round"></path>
    <path d="M84.4201 89.5402V22.1702L63.5601 27.7002V97.4402L84.4201 89.5502V89.5402Z" fill="white"></path>
    <path d="M84.4201 89.5402V22.1702L63.5601 27.7002V97.4402L84.4201 89.5502V89.5402Z" stroke="#767373" stroke-width="3" stroke-linecap="round" stroke-linejoin="round"></path>
    <path d="M84.4201 89.5402V22.1702L63.5601 27.7002V97.4402L84.4201 89.5502V89.5402Z" stroke="black" stroke-opacity="0.2" stroke-width="3" stroke-linecap="round" stroke-linejoin="round"></path>
    <path d="M84.4201 89.5402V22.1702L63.5601 27.7002V97.4402L84.4201 89.5502V89.5402Z" stroke="black" stroke-opacity="0.2" stroke-width="3" stroke-linecap="round" stroke-linejoin="round"></path>
    <path d="M74.4702 81.95L84.4202 89.54" stroke="#767373" stroke-width="3" stroke-linecap="round" stroke-linejoin="round"></path>
    <path d="M74.4702 81.95L84.4202 89.54" stroke="black" stroke-opacity="0.2" stroke-width="3" stroke-linecap="round" stroke-linejoin="round"></path>
    <path d="M74.4702 81.95L84.4202 89.54" stroke="black" stroke-opacity="0.2" stroke-width="3" stroke-linecap="round" stroke-linejoin="round"></path>
    <path d="M74.3901 81.8401V26.1101V81.8401Z" fill="white"></path>
    <path d="M74.3901 81.8401V26.1101" stroke="#767373" stroke-width="3" stroke-linecap="round" stroke-linejoin="round"></path>
    <path d="M74.3901 81.8401V26.1101" stroke="black" stroke-opacity="0.2" stroke-width="3" stroke-linecap="round" stroke-linejoin="round"></path>
    <path d="M74.3901 81.8401V26.1101" stroke="black" stroke-opacity="0.2" stroke-width="3" stroke-linecap="round" stroke-linejoin="round"></path>
    <path d="M74.4701 81.95L63.5601 97.43" stroke="#767373" stroke-width="3" stroke-linecap="round" stroke-linejoin="round"></path>
    <path d="M74.4701 81.95L63.5601 97.43" stroke="black" stroke-opacity="0.2" stroke-width="3" stroke-linecap="round" stroke-linejoin="round"></path>
    <path d="M74.4701 81.95L63.5601 97.43" stroke="black" stroke-opacity="0.2" stroke-width="3" stroke-linecap="round" stroke-linejoin="round"></path>
  </symbol>
  <symbol fill="none" xmlns="http://www.w3.org/2000/svg" viewBox="0 0 100 100" id="Icon-2-Unselected">
    <path d="M15.4702 8.10007L36.3302 2.57007L84.4202 22.1601L63.5602 27.6901L15.4702 8.10007Z" stroke="#A09C9D" stroke-width="3" stroke-linecap="round" stroke-linejoin="round"></path>
    <path d="M36.4404 2.76001L84.5304 22.35" stroke="#A09C9D" stroke-width="3" stroke-linecap="round" stroke-linejoin="round"></path>
    <path d="M66.97 31.9702C68.3121 31.9702 69.4 30.3942 69.4 28.4502C69.4 26.5061 68.3121 24.9302 66.97 24.9302C65.628 24.9302 64.54 26.5061 64.54 28.4502C64.54 30.3942 65.628 31.9702 66.97 31.9702Z" stroke="#A09C9D" stroke-width="3" stroke-linecap="round" stroke-linejoin="round"></path>
    <path d="M51.2401 25.52C52.5821 25.52 53.6701 23.944 53.6701 22C53.6701 20.0559 52.5821 18.48 51.2401 18.48C49.898 18.48 48.8101 20.0559 48.8101 22C48.8101 23.944 49.898 25.52 51.2401 25.52Z" stroke="#A09C9D" stroke-width="3" stroke-linecap="round" stroke-linejoin="round"></path>
    <path d="M15.4702 8.1001L63.5602 27.6901V97.4301L15.4702 77.8301V8.1001Z" fill="white" stroke="#A09C9D" stroke-width="3" stroke-linecap="round" stroke-linejoin="round"></path>
    <path d="M46.0003 37.31C47.3424 37.31 48.4303 35.7341 48.4303 33.79C48.4303 31.846 47.3424 30.27 46.0003 30.27C44.6583 30.27 43.5703 31.846 43.5703 33.79C43.5703 35.7341 44.6583 37.31 46.0003 37.31Z" stroke="#A09C9D" stroke-width="3" stroke-linecap="round" stroke-linejoin="round"></path>
    <path d="M30.2801 30.8601C31.6221 30.8601 32.7101 29.2841 32.7101 27.3401C32.7101 25.396 31.6221 23.8201 30.2801 23.8201C28.938 23.8201 27.8501 25.396 27.8501 27.3401C27.8501 29.2841 28.938 30.8601 30.2801 30.8601Z" stroke="#A09C9D" stroke-width="3" stroke-linecap="round" stroke-linejoin="round"></path>
    <path d="M30.0402 27.71C30.0402 27.71 27.0802 34.76 28.2402 40.19C29.3102 45.22 32.6002 47.58 36.8602 46.76C43.9602 45.39 45.9402 34.31 45.9402 34.31" stroke="#A09C9D" stroke-width="3" stroke-linecap="round" stroke-linejoin="round"></path>
    <path d="M84.4201 89.5402V22.1702L63.5601 27.7002V97.4402L84.4201 89.5502V89.5402Z" fill="white" stroke="#A09C9D" stroke-width="3" stroke-linecap="round" stroke-linejoin="round"></path>
    <path d="M74.4702 81.95L84.4202 89.54" stroke="#A09C9D" stroke-width="3" stroke-linecap="round" stroke-linejoin="round"></path>
    <path d="M74.3901 81.8401V26.1101V81.8401Z" fill="white"></path>
    <path d="M74.3901 81.8401V26.1101" stroke="#A09C9D" stroke-width="3" stroke-linecap="round" stroke-linejoin="round"></path>
    <path d="M74.4701 81.95L63.5601 97.43" stroke="#A09C9D" stroke-width="3" stroke-linecap="round" stroke-linejoin="round"></path>
  </symbol>
  <symbol fill="none" xmlns="http://www.w3.org/2000/svg" viewBox="0 0 100 100" id="Icon-3-Active">
    <path d="M51.0098 25.0399V9.39993C51.3098 3.84993 56.1898 0.279936 60.5898 2.37994C63.2998 3.66994 65.0298 6.79992 64.9198 10.2099V30.5099" stroke="#4D494A" stroke-width="3" stroke-linecap="round" stroke-linejoin="round"></path>
    <path d="M19.7598 19.87L38.0598 15.02L80.2398 32.21L61.9398 37.06L19.7598 19.87Z" fill="white" stroke="#4D494A" stroke-width="3" stroke-linecap="round" stroke-linejoin="round"></path>
    <path d="M80.2399 91.31V32.21L61.9399 37.06V98.23L80.2399 91.31Z" fill="white" stroke="#4D494A" stroke-width="3" stroke-linecap="round" stroke-linejoin="round"></path>
    <path d="M71.5098 84.6499L80.2398 91.3099" stroke="#4D494A" stroke-width="3" stroke-linecap="round" stroke-linejoin="round"></path>
    <path d="M71.4497 84.5499V35.6699V84.5499Z" fill="white"></path>
    <path d="M71.4497 84.5499V35.6699" stroke="#4D494A" stroke-width="3" stroke-linecap="round" stroke-linejoin="round"></path>
    <path d="M71.5099 84.6499L61.9399 98.2299" stroke="#4D494A" stroke-width="3" stroke-linecap="round" stroke-linejoin="round"></path>
    <path d="M33.8896 29.8898V12.0198C34.1896 6.4698 39.0697 2.89981 43.4697 4.99981C46.1797 6.28981 47.9096 9.4198 47.7996 12.8298V35.3498" stroke="#4D494A" stroke-width="3" stroke-linecap="round" stroke-linejoin="round"></path>
    <path d="M19.7598 19.8699L61.9398 37.0599V98.2299L19.7598 81.0399V19.8699Z" fill="white" stroke="#4D494A" stroke-width="3" stroke-linecap="round" stroke-linejoin="round"></path>
  </symbol>
  <symbol fill="none" xmlns="http://www.w3.org/2000/svg" viewBox="0 0 100 100" id="Icon-3-Hover">
    <path d="M51.0098 25.0399V9.39993C51.3098 3.84993 56.1898 0.279936 60.5898 2.37994C63.2998 3.66994 65.0298 6.79992 64.9198 10.2099V30.5099" stroke="#767373" stroke-width="3" stroke-linecap="round" stroke-linejoin="round"></path>
    <path d="M51.0098 25.0399V9.39993C51.3098 3.84993 56.1898 0.279936 60.5898 2.37994C63.2998 3.66994 65.0298 6.79992 64.9198 10.2099V30.5099" stroke="black" stroke-opacity="0.2" stroke-width="3" stroke-linecap="round" stroke-linejoin="round"></path>
    <path d="M51.0098 25.0399V9.39993C51.3098 3.84993 56.1898 0.279936 60.5898 2.37994C63.2998 3.66994 65.0298 6.79992 64.9198 10.2099V30.5099" stroke="black" stroke-opacity="0.2" stroke-width="3" stroke-linecap="round" stroke-linejoin="round"></path>
    <path d="M19.7598 19.87L38.0598 15.02L80.2398 32.21L61.9398 37.06L19.7598 19.87Z" fill="white"></path>
    <path d="M19.7598 19.87L38.0598 15.02L80.2398 32.21L61.9398 37.06L19.7598 19.87Z" stroke="#767373" stroke-width="3" stroke-linecap="round" stroke-linejoin="round"></path>
    <path d="M19.7598 19.87L38.0598 15.02L80.2398 32.21L61.9398 37.06L19.7598 19.87Z" stroke="black" stroke-opacity="0.2" stroke-width="3" stroke-linecap="round" stroke-linejoin="round"></path>
    <path d="M19.7598 19.87L38.0598 15.02L80.2398 32.21L61.9398 37.06L19.7598 19.87Z" stroke="black" stroke-opacity="0.2" stroke-width="3" stroke-linecap="round" stroke-linejoin="round"></path>
    <path d="M80.2399 91.31V32.21L61.9399 37.06V98.23L80.2399 91.31Z" fill="white"></path>
    <path d="M80.2399 91.31V32.21L61.9399 37.06V98.23L80.2399 91.31Z" stroke="#767373" stroke-width="3" stroke-linecap="round" stroke-linejoin="round"></path>
    <path d="M80.2399 91.31V32.21L61.9399 37.06V98.23L80.2399 91.31Z" stroke="black" stroke-opacity="0.2" stroke-width="3" stroke-linecap="round" stroke-linejoin="round"></path>
    <path d="M80.2399 91.31V32.21L61.9399 37.06V98.23L80.2399 91.31Z" stroke="black" stroke-opacity="0.2" stroke-width="3" stroke-linecap="round" stroke-linejoin="round"></path>
    <path d="M71.5098 84.6499L80.2398 91.3099" stroke="#767373" stroke-width="3" stroke-linecap="round" stroke-linejoin="round"></path>
    <path d="M71.5098 84.6499L80.2398 91.3099" stroke="black" stroke-opacity="0.2" stroke-width="3" stroke-linecap="round" stroke-linejoin="round"></path>
    <path d="M71.5098 84.6499L80.2398 91.3099" stroke="black" stroke-opacity="0.2" stroke-width="3" stroke-linecap="round" stroke-linejoin="round"></path>
    <path d="M71.4497 84.5499V35.6699V84.5499Z" fill="white"></path>
    <path d="M71.4497 84.5499V35.6699" stroke="#767373" stroke-width="3" stroke-linecap="round" stroke-linejoin="round"></path>
    <path d="M71.4497 84.5499V35.6699" stroke="black" stroke-opacity="0.2" stroke-width="3" stroke-linecap="round" stroke-linejoin="round"></path>
    <path d="M71.4497 84.5499V35.6699" stroke="black" stroke-opacity="0.2" stroke-width="3" stroke-linecap="round" stroke-linejoin="round"></path>
    <path d="M71.5099 84.6499L61.9399 98.2299" stroke="#767373" stroke-width="3" stroke-linecap="round" stroke-linejoin="round"></path>
    <path d="M71.5099 84.6499L61.9399 98.2299" stroke="black" stroke-opacity="0.2" stroke-width="3" stroke-linecap="round" stroke-linejoin="round"></path>
    <path d="M71.5099 84.6499L61.9399 98.2299" stroke="black" stroke-opacity="0.2" stroke-width="3" stroke-linecap="round" stroke-linejoin="round"></path>
    <path d="M33.8896 29.8898V12.0198C34.1896 6.4698 39.0697 2.89981 43.4697 4.99981C46.1797 6.28981 47.9096 9.4198 47.7996 12.8298V35.3498" stroke="#767373" stroke-width="3" stroke-linecap="round" stroke-linejoin="round"></path>
    <path d="M33.8896 29.8898V12.0198C34.1896 6.4698 39.0697 2.89981 43.4697 4.99981C46.1797 6.28981 47.9096 9.4198 47.7996 12.8298V35.3498" stroke="black" stroke-opacity="0.2" stroke-width="3" stroke-linecap="round" stroke-linejoin="round"></path>
    <path d="M33.8896 29.8898V12.0198C34.1896 6.4698 39.0697 2.89981 43.4697 4.99981C46.1797 6.28981 47.9096 9.4198 47.7996 12.8298V35.3498" stroke="black" stroke-opacity="0.2" stroke-width="3" stroke-linecap="round" stroke-linejoin="round"></path>
    <path d="M19.7598 19.8699L61.9398 37.0599V98.2299L19.7598 81.0399V19.8699Z" fill="white"></path>
    <path d="M19.7598 19.8699L61.9398 37.0599V98.2299L19.7598 81.0399V19.8699Z" stroke="#767373" stroke-width="3" stroke-linecap="round" stroke-linejoin="round"></path>
    <path d="M19.7598 19.8699L61.9398 37.0599V98.2299L19.7598 81.0399V19.8699Z" stroke="black" stroke-opacity="0.2" stroke-width="3" stroke-linecap="round" stroke-linejoin="round"></path>
    <path d="M19.7598 19.8699L61.9398 37.0599V98.2299L19.7598 81.0399V19.8699Z" stroke="black" stroke-opacity="0.2" stroke-width="3" stroke-linecap="round" stroke-linejoin="round"></path>
  </symbol>
  <symbol fill="none" xmlns="http://www.w3.org/2000/svg" viewBox="0 0 100 100" id="Icon-3-Unselected">
    <path d="M51.0098 25.0399V9.39993C51.3098 3.84993 56.1898 0.279936 60.5898 2.37994C63.2998 3.66994 65.0298 6.79992 64.9198 10.2099V30.5099" stroke="#A09C9D" stroke-width="3" stroke-linecap="round" stroke-linejoin="round"></path>
    <path d="M19.7598 19.87L38.0598 15.02L80.2398 32.21L61.9398 37.06L19.7598 19.87Z" fill="white" stroke="#A09C9D" stroke-width="3" stroke-linecap="round" stroke-linejoin="round"></path>
    <path d="M80.2399 91.31V32.21L61.9399 37.06V98.23L80.2399 91.31Z" fill="white" stroke="#A09C9D" stroke-width="3" stroke-linecap="round" stroke-linejoin="round"></path>
    <path d="M71.5098 84.6499L80.2398 91.3099" stroke="#A09C9D" stroke-width="3" stroke-linecap="round" stroke-linejoin="round"></path>
    <path d="M71.4497 84.5499V35.6699V84.5499Z" fill="white"></path>
    <path d="M71.4497 84.5499V35.6699" stroke="#A09C9D" stroke-width="3" stroke-linecap="round" stroke-linejoin="round"></path>
    <path d="M71.5099 84.6499L61.9399 98.2299" stroke="#A09C9D" stroke-width="3" stroke-linecap="round" stroke-linejoin="round"></path>
    <path d="M33.8896 29.8898V12.0198C34.1896 6.4698 39.0697 2.89981 43.4697 4.99981C46.1797 6.28981 47.9096 9.4198 47.7996 12.8298V35.3498" stroke="#A09C9D" stroke-width="3" stroke-linecap="round" stroke-linejoin="round"></path>
    <path d="M19.7598 19.8699L61.9398 37.0599V98.2299L19.7598 81.0399V19.8699Z" fill="white" stroke="#A09C9D" stroke-width="3" stroke-linecap="round" stroke-linejoin="round"></path>
  </symbol>
  <symbol fill="none" xmlns="http://www.w3.org/2000/svg" viewBox="0 0 100 100" id="Icon-4-Active">
    <path d="M51.4199 24.0303V9.14026C51.7099 3.85026 56.3499 0.450258 60.5499 2.45026C63.1299 3.68026 64.7799 6.66022 64.6799 9.91022V29.2402" stroke="#4D494A" stroke-width="3" stroke-linecap="round" stroke-linejoin="round"></path>
    <path d="M28.46 18.1502L46.7 13.7002L71.11 23.6902L52.87 28.0701L28.46 18.1402V18.1502Z" fill="white" stroke="#4D494A" stroke-width="3" stroke-linecap="round" stroke-linejoin="round"></path>
    <path d="M71.5399 91.1204L71.1199 23.6904L52.8799 28.0704V98.1705L71.5499 91.1104L71.5399 91.1204Z" fill="white" stroke="#4D494A" stroke-width="3" stroke-linecap="round" stroke-linejoin="round"></path>
    <path d="M52.8701 98.1705L62.4501 84.5205" stroke="#4D494A" stroke-width="3" stroke-linecap="round" stroke-linejoin="round"></path>
    <path d="M62.4502 84.5205L71.5402 91.1205" stroke="#4D494A" stroke-width="3" stroke-linecap="round" stroke-linejoin="round"></path>
    <path d="M62.4502 84.5204V26.3203V84.5204Z" fill="white"></path>
    <path d="M62.4502 84.5204V26.3203" stroke="#4D494A" stroke-width="3" stroke-linecap="round" stroke-linejoin="round"></path>
    <path d="M51.5398 29.5505C52.6609 29.5505 53.5698 28.2341 53.5698 26.6104C53.5698 24.9867 52.6609 23.6704 51.5398 23.6704C50.4186 23.6704 49.5098 24.9867 49.5098 26.6104C49.5098 28.2341 50.4186 29.5505 51.5398 29.5505Z" stroke="#4D494A" stroke-width="3" stroke-linecap="round" stroke-linejoin="round"></path>
    <path d="M28.46 18.1504L52.87 28.0703V98.1704L28.46 88.2804V18.1504Z" fill="white" stroke="#4D494A" stroke-width="3" stroke-linecap="round" stroke-linejoin="round"></path>
    <path d="M47.1599 39.4103C48.281 39.4103 49.1899 38.0939 49.1899 36.4702C49.1899 34.8465 48.281 33.5303 47.1599 33.5303C46.0387 33.5303 45.1299 34.8465 45.1299 36.4702C45.1299 38.0939 46.0387 39.4103 47.1599 39.4103Z" stroke="#4D494A" stroke-width="3" stroke-linecap="round" stroke-linejoin="round"></path>
    <path d="M34.03 34.0201C35.1511 34.0201 36.06 32.7038 36.06 31.0801C36.06 29.4564 35.1511 28.1401 34.03 28.1401C32.9089 28.1401 32 29.4564 32 31.0801C32 32.7038 32.9089 34.0201 34.03 34.0201Z" stroke="#4D494A" stroke-width="3" stroke-linecap="round" stroke-linejoin="round"></path>
    <path d="M33.8999 29.2401V12.2301C34.1899 6.9401 38.8299 3.5401 43.0299 5.5401C45.6099 6.7701 47.2599 9.75012 47.1599 13.0001V34.4501" stroke="#4D494A" stroke-width="3" stroke-linecap="round" stroke-linejoin="round"></path>
  </symbol>
  <symbol fill="none" xmlns="http://www.w3.org/2000/svg" viewBox="0 0 100 100" id="Icon-4-Hover">
    <path d="M51.4199 24.0303V9.14026C51.7099 3.85026 56.3499 0.450258 60.5499 2.45026C63.1299 3.68026 64.7799 6.66022 64.6799 9.91022V29.2402" stroke="#767373" stroke-width="3" stroke-linecap="round" stroke-linejoin="round"></path>
    <path d="M51.4199 24.0303V9.14026C51.7099 3.85026 56.3499 0.450258 60.5499 2.45026C63.1299 3.68026 64.7799 6.66022 64.6799 9.91022V29.2402" stroke="black" stroke-opacity="0.2" stroke-width="3" stroke-linecap="round" stroke-linejoin="round"></path>
    <path d="M51.4199 24.0303V9.14026C51.7099 3.85026 56.3499 0.450258 60.5499 2.45026C63.1299 3.68026 64.7799 6.66022 64.6799 9.91022V29.2402" stroke="black" stroke-opacity="0.2" stroke-width="3" stroke-linecap="round" stroke-linejoin="round"></path>
    <path d="M28.46 18.1502L46.7 13.7002L71.11 23.6902L52.87 28.0701L28.46 18.1402V18.1502Z" fill="white"></path>
    <path d="M28.46 18.1502L46.7 13.7002L71.11 23.6902L52.87 28.0701L28.46 18.1402V18.1502Z" stroke="#767373" stroke-width="3" stroke-linecap="round" stroke-linejoin="round"></path>
    <path d="M28.46 18.1502L46.7 13.7002L71.11 23.6902L52.87 28.0701L28.46 18.1402V18.1502Z" stroke="black" stroke-opacity="0.2" stroke-width="3" stroke-linecap="round" stroke-linejoin="round"></path>
    <path d="M28.46 18.1502L46.7 13.7002L71.11 23.6902L52.87 28.0701L28.46 18.1402V18.1502Z" stroke="black" stroke-opacity="0.2" stroke-width="3" stroke-linecap="round" stroke-linejoin="round"></path>
    <path d="M71.5399 91.1204L71.1199 23.6904L52.8799 28.0704V98.1705L71.5499 91.1104L71.5399 91.1204Z" fill="white"></path>
    <path d="M71.5399 91.1204L71.1199 23.6904L52.8799 28.0704V98.1705L71.5499 91.1104L71.5399 91.1204Z" stroke="#767373" stroke-width="3" stroke-linecap="round" stroke-linejoin="round"></path>
    <path d="M71.5399 91.1204L71.1199 23.6904L52.8799 28.0704V98.1705L71.5499 91.1104L71.5399 91.1204Z" stroke="black" stroke-opacity="0.2" stroke-width="3" stroke-linecap="round" stroke-linejoin="round"></path>
    <path d="M71.5399 91.1204L71.1199 23.6904L52.8799 28.0704V98.1705L71.5499 91.1104L71.5399 91.1204Z" stroke="black" stroke-opacity="0.2" stroke-width="3" stroke-linecap="round" stroke-linejoin="round"></path>
    <path d="M52.8701 98.1705L62.4501 84.5205" stroke="#767373" stroke-width="3" stroke-linecap="round" stroke-linejoin="round"></path>
    <path d="M52.8701 98.1705L62.4501 84.5205" stroke="black" stroke-opacity="0.2" stroke-width="3" stroke-linecap="round" stroke-linejoin="round"></path>
    <path d="M52.8701 98.1705L62.4501 84.5205" stroke="black" stroke-opacity="0.2" stroke-width="3" stroke-linecap="round" stroke-linejoin="round"></path>
    <path d="M62.4502 84.5205L71.5402 91.1205" stroke="#767373" stroke-width="3" stroke-linecap="round" stroke-linejoin="round"></path>
    <path d="M62.4502 84.5205L71.5402 91.1205" stroke="black" stroke-opacity="0.2" stroke-width="3" stroke-linecap="round" stroke-linejoin="round"></path>
    <path d="M62.4502 84.5205L71.5402 91.1205" stroke="black" stroke-opacity="0.2" stroke-width="3" stroke-linecap="round" stroke-linejoin="round"></path>
    <path d="M62.4502 84.5204V26.3203V84.5204Z" fill="white"></path>
    <path d="M62.4502 84.5204V26.3203" stroke="#767373" stroke-width="3" stroke-linecap="round" stroke-linejoin="round"></path>
    <path d="M62.4502 84.5204V26.3203" stroke="black" stroke-opacity="0.2" stroke-width="3" stroke-linecap="round" stroke-linejoin="round"></path>
    <path d="M62.4502 84.5204V26.3203" stroke="black" stroke-opacity="0.2" stroke-width="3" stroke-linecap="round" stroke-linejoin="round"></path>
    <path d="M51.5398 29.5505C52.6609 29.5505 53.5698 28.2341 53.5698 26.6104C53.5698 24.9867 52.6609 23.6704 51.5398 23.6704C50.4186 23.6704 49.5098 24.9867 49.5098 26.6104C49.5098 28.2341 50.4186 29.5505 51.5398 29.5505Z" stroke="#767373" stroke-width="3" stroke-linecap="round" stroke-linejoin="round"></path>
    <path d="M51.5398 29.5505C52.6609 29.5505 53.5698 28.2341 53.5698 26.6104C53.5698 24.9867 52.6609 23.6704 51.5398 23.6704C50.4186 23.6704 49.5098 24.9867 49.5098 26.6104C49.5098 28.2341 50.4186 29.5505 51.5398 29.5505Z" stroke="black" stroke-opacity="0.2" stroke-width="3" stroke-linecap="round" stroke-linejoin="round"></path>
    <path d="M51.5398 29.5505C52.6609 29.5505 53.5698 28.2341 53.5698 26.6104C53.5698 24.9867 52.6609 23.6704 51.5398 23.6704C50.4186 23.6704 49.5098 24.9867 49.5098 26.6104C49.5098 28.2341 50.4186 29.5505 51.5398 29.5505Z" stroke="black" stroke-opacity="0.2" stroke-width="3" stroke-linecap="round" stroke-linejoin="round"></path>
    <path d="M28.46 18.1504L52.87 28.0703V98.1704L28.46 88.2804V18.1504Z" fill="white"></path>
    <path d="M28.46 18.1504L52.87 28.0703V98.1704L28.46 88.2804V18.1504Z" stroke="#767373" stroke-width="3" stroke-linecap="round" stroke-linejoin="round"></path>
    <path d="M28.46 18.1504L52.87 28.0703V98.1704L28.46 88.2804V18.1504Z" stroke="black" stroke-opacity="0.2" stroke-width="3" stroke-linecap="round" stroke-linejoin="round"></path>
    <path d="M28.46 18.1504L52.87 28.0703V98.1704L28.46 88.2804V18.1504Z" stroke="black" stroke-opacity="0.2" stroke-width="3" stroke-linecap="round" stroke-linejoin="round"></path>
    <path d="M47.1599 39.4103C48.281 39.4103 49.1899 38.0939 49.1899 36.4702C49.1899 34.8465 48.281 33.5303 47.1599 33.5303C46.0387 33.5303 45.1299 34.8465 45.1299 36.4702C45.1299 38.0939 46.0387 39.4103 47.1599 39.4103Z" stroke="#767373" stroke-width="3" stroke-linecap="round" stroke-linejoin="round"></path>
    <path d="M47.1599 39.4103C48.281 39.4103 49.1899 38.0939 49.1899 36.4702C49.1899 34.8465 48.281 33.5303 47.1599 33.5303C46.0387 33.5303 45.1299 34.8465 45.1299 36.4702C45.1299 38.0939 46.0387 39.4103 47.1599 39.4103Z" stroke="black" stroke-opacity="0.2" stroke-width="3" stroke-linecap="round" stroke-linejoin="round"></path>
    <path d="M47.1599 39.4103C48.281 39.4103 49.1899 38.0939 49.1899 36.4702C49.1899 34.8465 48.281 33.5303 47.1599 33.5303C46.0387 33.5303 45.1299 34.8465 45.1299 36.4702C45.1299 38.0939 46.0387 39.4103 47.1599 39.4103Z" stroke="black" stroke-opacity="0.2" stroke-width="3" stroke-linecap="round" stroke-linejoin="round"></path>
    <path d="M34.03 34.0201C35.1511 34.0201 36.06 32.7038 36.06 31.0801C36.06 29.4564 35.1511 28.1401 34.03 28.1401C32.9089 28.1401 32 29.4564 32 31.0801C32 32.7038 32.9089 34.0201 34.03 34.0201Z" stroke="#767373" stroke-width="3" stroke-linecap="round" stroke-linejoin="round"></path>
    <path d="M34.03 34.0201C35.1511 34.0201 36.06 32.7038 36.06 31.0801C36.06 29.4564 35.1511 28.1401 34.03 28.1401C32.9089 28.1401 32 29.4564 32 31.0801C32 32.7038 32.9089 34.0201 34.03 34.0201Z" stroke="black" stroke-opacity="0.2" stroke-width="3" stroke-linecap="round" stroke-linejoin="round"></path>
    <path d="M34.03 34.0201C35.1511 34.0201 36.06 32.7038 36.06 31.0801C36.06 29.4564 35.1511 28.1401 34.03 28.1401C32.9089 28.1401 32 29.4564 32 31.0801C32 32.7038 32.9089 34.0201 34.03 34.0201Z" stroke="black" stroke-opacity="0.2" stroke-width="3" stroke-linecap="round" stroke-linejoin="round"></path>
    <path d="M33.8999 29.2401V12.2301C34.1899 6.9401 38.8299 3.5401 43.0299 5.5401C45.6099 6.7701 47.2599 9.75012 47.1599 13.0001V34.4501" stroke="#767373" stroke-width="3" stroke-linecap="round" stroke-linejoin="round"></path>
    <path d="M33.8999 29.2401V12.2301C34.1899 6.9401 38.8299 3.5401 43.0299 5.5401C45.6099 6.7701 47.2599 9.75012 47.1599 13.0001V34.4501" stroke="black" stroke-opacity="0.2" stroke-width="3" stroke-linecap="round" stroke-linejoin="round"></path>
    <path d="M33.8999 29.2401V12.2301C34.1899 6.9401 38.8299 3.5401 43.0299 5.5401C45.6099 6.7701 47.2599 9.75012 47.1599 13.0001V34.4501" stroke="black" stroke-opacity="0.2" stroke-width="3" stroke-linecap="round" stroke-linejoin="round"></path>
  </symbol>
  <symbol fill="none" xmlns="http://www.w3.org/2000/svg" viewBox="0 0 100 100" id="Icon-4-Unselected">
    <path d="M51.4199 24.0303V9.14026C51.7099 3.85026 56.3499 0.450258 60.5499 2.45026C63.1299 3.68026 64.7799 6.66022 64.6799 9.91022V29.2402" stroke="#A09C9D" stroke-width="3" stroke-linecap="round" stroke-linejoin="round"></path>
    <path d="M28.46 18.1502L46.7 13.7002L71.11 23.6902L52.87 28.0701L28.46 18.1402V18.1502Z" fill="white" stroke="#A09C9D" stroke-width="3" stroke-linecap="round" stroke-linejoin="round"></path>
    <path d="M71.5399 91.1204L71.1199 23.6904L52.8799 28.0704V98.1705L71.5499 91.1104L71.5399 91.1204Z" fill="white" stroke="#A09C9D" stroke-width="3" stroke-linecap="round" stroke-linejoin="round"></path>
    <path d="M52.8701 98.1705L62.4501 84.5205" stroke="#A09C9D" stroke-width="3" stroke-linecap="round" stroke-linejoin="round"></path>
    <path d="M62.4502 84.5205L71.5402 91.1205" stroke="#A09C9D" stroke-width="3" stroke-linecap="round" stroke-linejoin="round"></path>
    <path d="M62.4502 84.5204V26.3203V84.5204Z" fill="white"></path>
    <path d="M62.4502 84.5204V26.3203" stroke="#A09C9D" stroke-width="3" stroke-linecap="round" stroke-linejoin="round"></path>
    <path d="M51.5398 29.5505C52.6609 29.5505 53.5698 28.2341 53.5698 26.6104C53.5698 24.9867 52.6609 23.6704 51.5398 23.6704C50.4186 23.6704 49.5098 24.9867 49.5098 26.6104C49.5098 28.2341 50.4186 29.5505 51.5398 29.5505Z" stroke="#A09C9D" stroke-width="3" stroke-linecap="round" stroke-linejoin="round"></path>
    <path d="M28.46 18.1504L52.87 28.0703V98.1704L28.46 88.2804V18.1504Z" fill="white" stroke="#A09C9D" stroke-width="3" stroke-linecap="round" stroke-linejoin="round"></path>
    <path d="M47.1599 39.4103C48.281 39.4103 49.1899 38.0939 49.1899 36.4702C49.1899 34.8465 48.281 33.5303 47.1599 33.5303C46.0387 33.5303 45.1299 34.8465 45.1299 36.4702C45.1299 38.0939 46.0387 39.4103 47.1599 39.4103Z" stroke="#A09C9D" stroke-width="3" stroke-linecap="round" stroke-linejoin="round"></path>
    <path d="M34.03 34.0201C35.1511 34.0201 36.06 32.7038 36.06 31.0801C36.06 29.4564 35.1511 28.1401 34.03 28.1401C32.9089 28.1401 32 29.4564 32 31.0801C32 32.7038 32.9089 34.0201 34.03 34.0201Z" stroke="#A09C9D" stroke-width="3" stroke-linecap="round" stroke-linejoin="round"></path>
    <path d="M33.8999 29.2401V12.2301C34.1899 6.9401 38.8299 3.5401 43.0299 5.5401C45.6099 6.7701 47.2599 9.75012 47.1599 13.0001V34.4501" stroke="#A09C9D" stroke-width="3" stroke-linecap="round" stroke-linejoin="round"></path>
  </symbol>
</svg>