<svg width="72" height="72" viewBox="0 0 72 72" fill="none" xmlns="http://www.w3.org/2000/svg">
<path d="M0 34.77L72 71.93V37.15L0 0V34.77Z" fill="#F3F0F0"/>
<path d="M36.22 47.53C36.22 47.53 48.96 36.64 48.96 27.74C48.96 20.71 43.26 15 36.22 15C29.18 15 23.49 20.7 23.49 27.74C23.49 36.99 36.23 47.53 36.23 47.53H36.22ZM29.67 28.37C29.67 24.75 32.6 21.82 36.22 21.82C39.84 21.82 42.77 24.75 42.77 28.37C42.77 31.99 39.84 34.92 36.22 34.92C32.6 34.92 29.67 31.99 29.67 28.37ZM56.15 55.32L50.65 42.12C50.56 41.9 50.34 41.75 50.1 41.75H44.84C41.41 46.32 37.71 49.62 37.42 49.88L36.21 50.95L35.02 49.87C34.74 49.61 31.1 46.29 27.7 41.76H22.1C21.86 41.76 21.64 41.91 21.55 42.13L16.05 55.32C15.89 55.72 16.18 56.15 16.6 56.15H55.6C56.03 56.15 56.32 55.71 56.15 55.32Z" fill="#767373"/>
<path d="M0 34.77L8 38.9V4.13L0 0V34.77Z" fill="#F0592A"/>
</svg>
