<svg width="72" height="73" viewBox="0 0 72 73" fill="none" xmlns="http://www.w3.org/2000/svg">
<path d="M0 35.4367L72 72.5966V37.8167L0 0.666656V35.4367Z" fill="#F3F0F0"/>
<path d="M0 35.4367L8 39.5667V4.79665L0 0.666656V35.4367Z" fill="#F0592A"/>
<path d="M51.83 43.9367L56.28 43.0367C56.81 42.9267 56.97 42.2567 56.54 41.9267L37.22 27.0467H40.56V23.3167L51.29 20.9667C51.87 21.5067 52.65 21.8466 53.51 21.8466C55.32 21.8466 56.78 20.3867 56.78 18.5767C56.78 16.7667 55.32 15.3067 53.51 15.3067C52.09 15.3067 50.89 16.2067 50.43 17.4767L40.56 19.6367V17.7967H31.31V21.6567L20.28 24.0767C19.69 23.5067 18.89 23.1467 18 23.1467C16.19 23.1467 14.73 24.6067 14.73 26.4167C14.73 28.2267 16.19 29.6867 18 29.6867C19.39 29.6867 20.58 28.8167 21.05 27.5867L26.94 26.2967C25.97 27.1567 25.11 28.0167 24.34 28.8967C21.75 31.8667 20.29 34.9167 19.51 37.7767C18.73 40.6267 18.61 43.2567 18.61 45.4467L18.58 47.5567H15.73V56.8067H24.98V47.5567H22.18L22.2 45.4767C22.2 42.7267 22.41 39.5767 23.83 36.2967C24.54 34.6567 25.56 32.9667 27.05 31.2667C28.27 29.8667 29.82 28.4467 31.78 27.0467H35.56C35.56 27.0467 35.56 27.1467 35.57 27.1967L41.61 51.6767C41.74 52.2167 42.45 52.3267 42.75 51.8667L45.1 48.2066C45.35 47.8167 45.93 47.8267 46.17 48.2267L51.22 56.6367C51.4 56.9267 51.77 57.0267 52.07 56.8567L56.29 54.4367C56.59 54.2667 56.7 53.8767 56.52 53.5767L51.41 44.8767C51.19 44.5067 51.41 44.0267 51.83 43.9467V43.9367ZM21.39 53.2066H19.34V51.1567H21.39V53.2066ZM36.96 23.4367H34.91V21.3867H36.96V23.4367Z" fill="#767373"/>
</svg>
