<svg width="72" height="73" viewBox="0 0 72 73" fill="none" xmlns="http://www.w3.org/2000/svg">
<path d="M0 35.1033L72 72.2633V37.4833L0 0.333328V35.1033Z" fill="#F3F0F0"/>
<path d="M0 35.1033L8 39.2333V4.46333L0 0.333328V35.1033Z" fill="#F0592A"/>
<path d="M49.95 36.3333C49.95 44.0233 43.69 50.2833 36 50.2833C28.31 50.2833 22.05 44.0233 22.05 36.3333C22.05 28.6433 28.31 22.3833 36 22.3833C43.69 22.3833 49.95 28.6433 49.95 36.3333ZM56.12 36.3333C56.12 47.4433 47.11 56.4533 36 56.4533C24.89 56.4533 15.88 47.4433 15.88 36.3333C15.88 25.2233 24.89 16.2133 36 16.2133C47.11 16.2133 56.12 25.2233 56.12 36.3333ZM52.35 36.3333C52.35 27.3033 45.03 19.9833 36 19.9833C26.97 19.9833 19.65 27.3033 19.65 36.3333C19.65 45.3633 26.97 52.6833 36 52.6833C45.03 52.6833 52.35 45.3633 52.35 36.3333ZM31.51 44.6933H34.94V42.6833H39.97V40.2833H34.94V38.9833H37.25C38.21 38.9833 39.06 38.8633 39.81 38.6133C40.56 38.3733 41.18 38.0233 41.67 37.5633C42.17 37.1033 42.54 36.5633 42.79 35.9433C43.04 35.3133 43.17 34.6133 43.17 33.8433C43.17 33.0733 43.04 32.3633 42.79 31.7433C42.54 31.1133 42.16 30.5733 41.67 30.1233C41.17 29.6633 40.55 29.3133 39.81 29.0733C39.06 28.8333 38.21 28.7033 37.25 28.7033H31.51V36.1333H29.45V38.9933H31.51V40.2933H29.45V42.6933H31.51V44.7033V44.6933ZM34.94 36.1233V31.5533H36.88C37.43 31.5533 37.88 31.6033 38.23 31.7033C38.58 31.8033 38.87 31.9433 39.1 32.1333C39.33 32.3233 39.49 32.5633 39.59 32.8533C39.69 33.1433 39.74 33.4733 39.74 33.8333C39.74 34.1933 39.69 34.5233 39.58 34.8133C39.47 35.1033 39.3 35.3433 39.07 35.5233C38.83 35.7033 38.54 35.8533 38.19 35.9533C37.84 36.0533 37.4 36.1133 36.89 36.1133H34.95L34.94 36.1233Z" fill="#767373"/>
</svg>
