<svg width="72" height="72" viewBox="0 0 72 72" fill="none" xmlns="http://www.w3.org/2000/svg">
<path d="M0 34.77L72 71.93V37.15L0 0V34.77Z" fill="#F3F0F0"/>
<path d="M36.17 47.33C45.1 47.33 52.34 40.09 52.34 31.16C52.34 22.23 45.1 15 36.17 15C27.24 15 20 22.24 20 31.17C20 40.1 27.24 47.34 36.17 47.34V47.33ZM26.91 28.13L32.66 27.25L35.28 22.06C35.65 21.33 36.7 21.33 37.07 22.06L39.69 27.25L45.44 28.13C46.25 28.25 46.58 29.25 45.99 29.83L41.86 33.92L42.8 39.66C42.93 40.47 42.08 41.09 41.35 40.71L36.18 38.05L31.01 40.71C30.28 41.09 29.43 40.47 29.56 39.66L30.5 33.92L26.37 29.83C25.79 29.25 26.11 28.25 26.92 28.13H26.91ZM24.23 45.33V55.78C24.23 56.5 24.82 57.01 25.46 57.01C25.69 57.01 25.92 56.95 26.13 56.8L31.89 52.99C32.1 52.85 32.33 52.79 32.57 52.79C32.81 52.79 33.04 52.86 33.25 52.99L39.01 56.8C39.22 56.94 39.46 57.01 39.68 57.01C40.32 57.01 40.91 56.5 40.91 55.78V49.09C39.39 49.49 37.8 49.71 36.16 49.71C31.61 49.71 27.45 48.06 24.22 45.34L24.23 45.33ZM42.76 48.48V53.3L48.04 56.79C48.86 57.33 49.94 56.74 49.94 55.77V43.55C47.99 45.72 45.53 47.42 42.76 48.48Z" fill="#767373"/>
<path d="M0 34.77L8 38.9V4.13L0 0V34.77Z" fill="#F0592A"/>
</svg>
