<svg width="72" height="73" viewBox="0 0 72 73" fill="none" xmlns="http://www.w3.org/2000/svg">
<path d="M0 35.1033L72 72.2633V37.4833L0 0.333328V35.1033Z" fill="#F3F0F0"/>
<path d="M0 35.1033L8 39.2333V4.46333L0 0.333328V35.1033Z" fill="#F0592A"/>
<path d="M31.64 16.3933H55.66V46.9733H31.64V16.3933ZM16.1 25.5333H28.05V21.9333H16.1V25.5333ZM35.78 25.5333H51.51V21.9333H35.78V25.5333ZM17.9 32.7333H28.05V29.1333H17.9V32.7333ZM20.3 39.9333H28.05V36.3333H20.3V39.9333ZM35.78 33.4833H39.19V29.8833H35.78V33.4833ZM48.1 33.4833H51.51V29.8833H48.1V33.4833ZM41.94 33.4833H45.35V29.8833H41.94V33.4833ZM35.78 39.9333H39.19V36.3333H35.78V39.9333ZM48.1 39.9333H51.51V36.3333H48.1V39.9333ZM41.94 39.9333H45.35V36.3333H41.94V39.9333ZM22.1 47.1333H28.05V43.5333H22.1V47.1333ZM23.9 54.3333H41.95V50.7333H23.9V54.3333ZM45.35 54.3333H55.66V50.7333H45.35V54.3333Z" fill="#767373"/>
</svg>
